G04 #@! TF.GenerationSoftware,KiCad,Pcbnew,(5.1.7)-1*
G04 #@! TF.CreationDate,2020-10-30T03:26:27-04:00*
G04 #@! TF.ProjectId,server-hat,73657276-6572-42d6-9861-742e6b696361,rev?*
G04 #@! TF.SameCoordinates,Original*
G04 #@! TF.FileFunction,Soldermask,Top*
G04 #@! TF.FilePolarity,Negative*
%FSLAX46Y46*%
G04 Gerber Fmt 4.6, Leading zero omitted, Abs format (unit mm)*
G04 Created by KiCad (PCBNEW (5.1.7)-1) date 2020-10-30 03:26:27*
%MOMM*%
%LPD*%
G01*
G04 APERTURE LIST*
%ADD10C,1.500000*%
%ADD11C,2.300000*%
%ADD12C,3.250000*%
%ADD13R,1.500000X1.500000*%
%ADD14R,1.700000X1.700000*%
%ADD15O,1.700000X1.700000*%
%ADD16C,2.700000*%
G04 APERTURE END LIST*
G36*
G01*
X203019000Y-110778000D02*
X203019000Y-110228000D01*
G75*
G02*
X203219000Y-110028000I200000J0D01*
G01*
X203619000Y-110028000D01*
G75*
G02*
X203819000Y-110228000I0J-200000D01*
G01*
X203819000Y-110778000D01*
G75*
G02*
X203619000Y-110978000I-200000J0D01*
G01*
X203219000Y-110978000D01*
G75*
G02*
X203019000Y-110778000I0J200000D01*
G01*
G37*
G36*
G01*
X201369000Y-110778000D02*
X201369000Y-110228000D01*
G75*
G02*
X201569000Y-110028000I200000J0D01*
G01*
X201969000Y-110028000D01*
G75*
G02*
X202169000Y-110228000I0J-200000D01*
G01*
X202169000Y-110778000D01*
G75*
G02*
X201969000Y-110978000I-200000J0D01*
G01*
X201569000Y-110978000D01*
G75*
G02*
X201369000Y-110778000I0J200000D01*
G01*
G37*
G36*
G01*
X203019000Y-108238000D02*
X203019000Y-107688000D01*
G75*
G02*
X203219000Y-107488000I200000J0D01*
G01*
X203619000Y-107488000D01*
G75*
G02*
X203819000Y-107688000I0J-200000D01*
G01*
X203819000Y-108238000D01*
G75*
G02*
X203619000Y-108438000I-200000J0D01*
G01*
X203219000Y-108438000D01*
G75*
G02*
X203019000Y-108238000I0J200000D01*
G01*
G37*
G36*
G01*
X201369000Y-108238000D02*
X201369000Y-107688000D01*
G75*
G02*
X201569000Y-107488000I200000J0D01*
G01*
X201969000Y-107488000D01*
G75*
G02*
X202169000Y-107688000I0J-200000D01*
G01*
X202169000Y-108238000D01*
G75*
G02*
X201969000Y-108438000I-200000J0D01*
G01*
X201569000Y-108438000D01*
G75*
G02*
X201369000Y-108238000I0J200000D01*
G01*
G37*
G36*
G01*
X206446000Y-110759250D02*
X206446000Y-110246750D01*
G75*
G02*
X206664750Y-110028000I218750J0D01*
G01*
X207102250Y-110028000D01*
G75*
G02*
X207321000Y-110246750I0J-218750D01*
G01*
X207321000Y-110759250D01*
G75*
G02*
X207102250Y-110978000I-218750J0D01*
G01*
X206664750Y-110978000D01*
G75*
G02*
X206446000Y-110759250I0J218750D01*
G01*
G37*
G36*
G01*
X204871000Y-110759250D02*
X204871000Y-110246750D01*
G75*
G02*
X205089750Y-110028000I218750J0D01*
G01*
X205527250Y-110028000D01*
G75*
G02*
X205746000Y-110246750I0J-218750D01*
G01*
X205746000Y-110759250D01*
G75*
G02*
X205527250Y-110978000I-218750J0D01*
G01*
X205089750Y-110978000D01*
G75*
G02*
X204871000Y-110759250I0J218750D01*
G01*
G37*
G36*
G01*
X206319000Y-108219250D02*
X206319000Y-107706750D01*
G75*
G02*
X206537750Y-107488000I218750J0D01*
G01*
X206975250Y-107488000D01*
G75*
G02*
X207194000Y-107706750I0J-218750D01*
G01*
X207194000Y-108219250D01*
G75*
G02*
X206975250Y-108438000I-218750J0D01*
G01*
X206537750Y-108438000D01*
G75*
G02*
X206319000Y-108219250I0J218750D01*
G01*
G37*
G36*
G01*
X204744000Y-108219250D02*
X204744000Y-107706750D01*
G75*
G02*
X204962750Y-107488000I218750J0D01*
G01*
X205400250Y-107488000D01*
G75*
G02*
X205619000Y-107706750I0J-218750D01*
G01*
X205619000Y-108219250D01*
G75*
G02*
X205400250Y-108438000I-218750J0D01*
G01*
X204962750Y-108438000D01*
G75*
G02*
X204744000Y-108219250I0J218750D01*
G01*
G37*
G36*
G01*
X242775000Y-109637000D02*
X242775000Y-109337000D01*
G75*
G02*
X242925000Y-109187000I150000J0D01*
G01*
X244575000Y-109187000D01*
G75*
G02*
X244725000Y-109337000I0J-150000D01*
G01*
X244725000Y-109637000D01*
G75*
G02*
X244575000Y-109787000I-150000J0D01*
G01*
X242925000Y-109787000D01*
G75*
G02*
X242775000Y-109637000I0J150000D01*
G01*
G37*
G36*
G01*
X242775000Y-110907000D02*
X242775000Y-110607000D01*
G75*
G02*
X242925000Y-110457000I150000J0D01*
G01*
X244575000Y-110457000D01*
G75*
G02*
X244725000Y-110607000I0J-150000D01*
G01*
X244725000Y-110907000D01*
G75*
G02*
X244575000Y-111057000I-150000J0D01*
G01*
X242925000Y-111057000D01*
G75*
G02*
X242775000Y-110907000I0J150000D01*
G01*
G37*
G36*
G01*
X242775000Y-112177000D02*
X242775000Y-111877000D01*
G75*
G02*
X242925000Y-111727000I150000J0D01*
G01*
X244575000Y-111727000D01*
G75*
G02*
X244725000Y-111877000I0J-150000D01*
G01*
X244725000Y-112177000D01*
G75*
G02*
X244575000Y-112327000I-150000J0D01*
G01*
X242925000Y-112327000D01*
G75*
G02*
X242775000Y-112177000I0J150000D01*
G01*
G37*
G36*
G01*
X242775000Y-113447000D02*
X242775000Y-113147000D01*
G75*
G02*
X242925000Y-112997000I150000J0D01*
G01*
X244575000Y-112997000D01*
G75*
G02*
X244725000Y-113147000I0J-150000D01*
G01*
X244725000Y-113447000D01*
G75*
G02*
X244575000Y-113597000I-150000J0D01*
G01*
X242925000Y-113597000D01*
G75*
G02*
X242775000Y-113447000I0J150000D01*
G01*
G37*
G36*
G01*
X242775000Y-114717000D02*
X242775000Y-114417000D01*
G75*
G02*
X242925000Y-114267000I150000J0D01*
G01*
X244575000Y-114267000D01*
G75*
G02*
X244725000Y-114417000I0J-150000D01*
G01*
X244725000Y-114717000D01*
G75*
G02*
X244575000Y-114867000I-150000J0D01*
G01*
X242925000Y-114867000D01*
G75*
G02*
X242775000Y-114717000I0J150000D01*
G01*
G37*
G36*
G01*
X242775000Y-115987000D02*
X242775000Y-115687000D01*
G75*
G02*
X242925000Y-115537000I150000J0D01*
G01*
X244575000Y-115537000D01*
G75*
G02*
X244725000Y-115687000I0J-150000D01*
G01*
X244725000Y-115987000D01*
G75*
G02*
X244575000Y-116137000I-150000J0D01*
G01*
X242925000Y-116137000D01*
G75*
G02*
X242775000Y-115987000I0J150000D01*
G01*
G37*
G36*
G01*
X242775000Y-117257000D02*
X242775000Y-116957000D01*
G75*
G02*
X242925000Y-116807000I150000J0D01*
G01*
X244575000Y-116807000D01*
G75*
G02*
X244725000Y-116957000I0J-150000D01*
G01*
X244725000Y-117257000D01*
G75*
G02*
X244575000Y-117407000I-150000J0D01*
G01*
X242925000Y-117407000D01*
G75*
G02*
X242775000Y-117257000I0J150000D01*
G01*
G37*
G36*
G01*
X237825000Y-117257000D02*
X237825000Y-116957000D01*
G75*
G02*
X237975000Y-116807000I150000J0D01*
G01*
X239625000Y-116807000D01*
G75*
G02*
X239775000Y-116957000I0J-150000D01*
G01*
X239775000Y-117257000D01*
G75*
G02*
X239625000Y-117407000I-150000J0D01*
G01*
X237975000Y-117407000D01*
G75*
G02*
X237825000Y-117257000I0J150000D01*
G01*
G37*
G36*
G01*
X237825000Y-115987000D02*
X237825000Y-115687000D01*
G75*
G02*
X237975000Y-115537000I150000J0D01*
G01*
X239625000Y-115537000D01*
G75*
G02*
X239775000Y-115687000I0J-150000D01*
G01*
X239775000Y-115987000D01*
G75*
G02*
X239625000Y-116137000I-150000J0D01*
G01*
X237975000Y-116137000D01*
G75*
G02*
X237825000Y-115987000I0J150000D01*
G01*
G37*
G36*
G01*
X237825000Y-114717000D02*
X237825000Y-114417000D01*
G75*
G02*
X237975000Y-114267000I150000J0D01*
G01*
X239625000Y-114267000D01*
G75*
G02*
X239775000Y-114417000I0J-150000D01*
G01*
X239775000Y-114717000D01*
G75*
G02*
X239625000Y-114867000I-150000J0D01*
G01*
X237975000Y-114867000D01*
G75*
G02*
X237825000Y-114717000I0J150000D01*
G01*
G37*
G36*
G01*
X237825000Y-113447000D02*
X237825000Y-113147000D01*
G75*
G02*
X237975000Y-112997000I150000J0D01*
G01*
X239625000Y-112997000D01*
G75*
G02*
X239775000Y-113147000I0J-150000D01*
G01*
X239775000Y-113447000D01*
G75*
G02*
X239625000Y-113597000I-150000J0D01*
G01*
X237975000Y-113597000D01*
G75*
G02*
X237825000Y-113447000I0J150000D01*
G01*
G37*
G36*
G01*
X237825000Y-112177000D02*
X237825000Y-111877000D01*
G75*
G02*
X237975000Y-111727000I150000J0D01*
G01*
X239625000Y-111727000D01*
G75*
G02*
X239775000Y-111877000I0J-150000D01*
G01*
X239775000Y-112177000D01*
G75*
G02*
X239625000Y-112327000I-150000J0D01*
G01*
X237975000Y-112327000D01*
G75*
G02*
X237825000Y-112177000I0J150000D01*
G01*
G37*
G36*
G01*
X237825000Y-110907000D02*
X237825000Y-110607000D01*
G75*
G02*
X237975000Y-110457000I150000J0D01*
G01*
X239625000Y-110457000D01*
G75*
G02*
X239775000Y-110607000I0J-150000D01*
G01*
X239775000Y-110907000D01*
G75*
G02*
X239625000Y-111057000I-150000J0D01*
G01*
X237975000Y-111057000D01*
G75*
G02*
X237825000Y-110907000I0J150000D01*
G01*
G37*
G36*
G01*
X237825000Y-109637000D02*
X237825000Y-109337000D01*
G75*
G02*
X237975000Y-109187000I150000J0D01*
G01*
X239625000Y-109187000D01*
G75*
G02*
X239775000Y-109337000I0J-150000D01*
G01*
X239775000Y-109637000D01*
G75*
G02*
X239625000Y-109787000I-150000J0D01*
G01*
X237975000Y-109787000D01*
G75*
G02*
X237825000Y-109637000I0J150000D01*
G01*
G37*
G36*
G01*
X245826000Y-113151000D02*
X246376000Y-113151000D01*
G75*
G02*
X246576000Y-113351000I0J-200000D01*
G01*
X246576000Y-113751000D01*
G75*
G02*
X246376000Y-113951000I-200000J0D01*
G01*
X245826000Y-113951000D01*
G75*
G02*
X245626000Y-113751000I0J200000D01*
G01*
X245626000Y-113351000D01*
G75*
G02*
X245826000Y-113151000I200000J0D01*
G01*
G37*
G36*
G01*
X245826000Y-111501000D02*
X246376000Y-111501000D01*
G75*
G02*
X246576000Y-111701000I0J-200000D01*
G01*
X246576000Y-112101000D01*
G75*
G02*
X246376000Y-112301000I-200000J0D01*
G01*
X245826000Y-112301000D01*
G75*
G02*
X245626000Y-112101000I0J200000D01*
G01*
X245626000Y-111701000D01*
G75*
G02*
X245826000Y-111501000I200000J0D01*
G01*
G37*
D10*
X250296000Y-119907000D03*
X250296000Y-117617000D03*
X250296000Y-108477000D03*
X250296000Y-106187000D03*
D11*
X256006000Y-104917000D03*
X256006000Y-121177000D03*
D12*
X259436000Y-119397000D03*
X259436000Y-106697000D03*
D10*
X255116000Y-116599000D03*
X255116000Y-114567000D03*
X255116000Y-112535000D03*
X255116000Y-110503000D03*
X256896000Y-115583000D03*
X256896000Y-113551000D03*
X256896000Y-111519000D03*
D13*
X256896000Y-109487000D03*
G36*
G01*
X246351000Y-109035000D02*
X245851000Y-109035000D01*
G75*
G02*
X245626000Y-108810000I0J225000D01*
G01*
X245626000Y-108360000D01*
G75*
G02*
X245851000Y-108135000I225000J0D01*
G01*
X246351000Y-108135000D01*
G75*
G02*
X246576000Y-108360000I0J-225000D01*
G01*
X246576000Y-108810000D01*
G75*
G02*
X246351000Y-109035000I-225000J0D01*
G01*
G37*
G36*
G01*
X246351000Y-110585000D02*
X245851000Y-110585000D01*
G75*
G02*
X245626000Y-110360000I0J225000D01*
G01*
X245626000Y-109910000D01*
G75*
G02*
X245851000Y-109685000I225000J0D01*
G01*
X246351000Y-109685000D01*
G75*
G02*
X246576000Y-109910000I0J-225000D01*
G01*
X246576000Y-110360000D01*
G75*
G02*
X246351000Y-110585000I-225000J0D01*
G01*
G37*
D14*
X208370000Y-98770000D03*
D15*
X208370000Y-96230000D03*
X210910000Y-98770000D03*
X210910000Y-96230000D03*
X213450000Y-98770000D03*
X213450000Y-96230000D03*
X215990000Y-98770000D03*
X215990000Y-96230000D03*
X218530000Y-98770000D03*
X218530000Y-96230000D03*
X221070000Y-98770000D03*
X221070000Y-96230000D03*
X223610000Y-98770000D03*
X223610000Y-96230000D03*
X226150000Y-98770000D03*
X226150000Y-96230000D03*
X228690000Y-98770000D03*
X228690000Y-96230000D03*
X231230000Y-98770000D03*
X231230000Y-96230000D03*
X233770000Y-98770000D03*
X233770000Y-96230000D03*
X236310000Y-98770000D03*
X236310000Y-96230000D03*
X238850000Y-98770000D03*
X238850000Y-96230000D03*
X241390000Y-98770000D03*
X241390000Y-96230000D03*
X243930000Y-98770000D03*
X243930000Y-96230000D03*
X246470000Y-98770000D03*
X246470000Y-96230000D03*
X249010000Y-98770000D03*
X249010000Y-96230000D03*
X251550000Y-98770000D03*
X251550000Y-96230000D03*
X254090000Y-98770000D03*
X254090000Y-96230000D03*
X256630000Y-98770000D03*
X256630000Y-96230000D03*
D16*
X261500000Y-146500000D03*
X203500000Y-146500000D03*
X261500000Y-97500000D03*
X203500000Y-97500000D03*
M02*
