G04 #@! TF.GenerationSoftware,KiCad,Pcbnew,(5.1.7)-1*
G04 #@! TF.CreationDate,2020-10-30T03:26:27-04:00*
G04 #@! TF.ProjectId,server-hat,73657276-6572-42d6-9861-742e6b696361,rev?*
G04 #@! TF.SameCoordinates,Original*
G04 #@! TF.FileFunction,Copper,L1,Top*
G04 #@! TF.FilePolarity,Positive*
%FSLAX46Y46*%
G04 Gerber Fmt 4.6, Leading zero omitted, Abs format (unit mm)*
G04 Created by KiCad (PCBNEW (5.1.7)-1) date 2020-10-30 03:26:27*
%MOMM*%
%LPD*%
G01*
G04 APERTURE LIST*
G04 #@! TA.AperFunction,ComponentPad*
%ADD10C,1.500000*%
G04 #@! TD*
G04 #@! TA.AperFunction,ComponentPad*
%ADD11C,2.300000*%
G04 #@! TD*
G04 #@! TA.AperFunction,ComponentPad*
%ADD12R,1.500000X1.500000*%
G04 #@! TD*
G04 #@! TA.AperFunction,ComponentPad*
%ADD13R,1.700000X1.700000*%
G04 #@! TD*
G04 #@! TA.AperFunction,ComponentPad*
%ADD14O,1.700000X1.700000*%
G04 #@! TD*
G04 #@! TA.AperFunction,ViaPad*
%ADD15C,0.620000*%
G04 #@! TD*
G04 #@! TA.AperFunction,Conductor*
%ADD16C,0.160000*%
G04 #@! TD*
G04 #@! TA.AperFunction,Conductor*
%ADD17C,0.254000*%
G04 #@! TD*
G04 #@! TA.AperFunction,Conductor*
%ADD18C,0.150000*%
G04 #@! TD*
G04 APERTURE END LIST*
G04 #@! TA.AperFunction,SMDPad,CuDef*
G36*
G01*
X203019000Y-110778000D02*
X203019000Y-110228000D01*
G75*
G02*
X203219000Y-110028000I200000J0D01*
G01*
X203619000Y-110028000D01*
G75*
G02*
X203819000Y-110228000I0J-200000D01*
G01*
X203819000Y-110778000D01*
G75*
G02*
X203619000Y-110978000I-200000J0D01*
G01*
X203219000Y-110978000D01*
G75*
G02*
X203019000Y-110778000I0J200000D01*
G01*
G37*
G04 #@! TD.AperFunction*
G04 #@! TA.AperFunction,SMDPad,CuDef*
G36*
G01*
X201369000Y-110778000D02*
X201369000Y-110228000D01*
G75*
G02*
X201569000Y-110028000I200000J0D01*
G01*
X201969000Y-110028000D01*
G75*
G02*
X202169000Y-110228000I0J-200000D01*
G01*
X202169000Y-110778000D01*
G75*
G02*
X201969000Y-110978000I-200000J0D01*
G01*
X201569000Y-110978000D01*
G75*
G02*
X201369000Y-110778000I0J200000D01*
G01*
G37*
G04 #@! TD.AperFunction*
G04 #@! TA.AperFunction,SMDPad,CuDef*
G36*
G01*
X203019000Y-108238000D02*
X203019000Y-107688000D01*
G75*
G02*
X203219000Y-107488000I200000J0D01*
G01*
X203619000Y-107488000D01*
G75*
G02*
X203819000Y-107688000I0J-200000D01*
G01*
X203819000Y-108238000D01*
G75*
G02*
X203619000Y-108438000I-200000J0D01*
G01*
X203219000Y-108438000D01*
G75*
G02*
X203019000Y-108238000I0J200000D01*
G01*
G37*
G04 #@! TD.AperFunction*
G04 #@! TA.AperFunction,SMDPad,CuDef*
G36*
G01*
X201369000Y-108238000D02*
X201369000Y-107688000D01*
G75*
G02*
X201569000Y-107488000I200000J0D01*
G01*
X201969000Y-107488000D01*
G75*
G02*
X202169000Y-107688000I0J-200000D01*
G01*
X202169000Y-108238000D01*
G75*
G02*
X201969000Y-108438000I-200000J0D01*
G01*
X201569000Y-108438000D01*
G75*
G02*
X201369000Y-108238000I0J200000D01*
G01*
G37*
G04 #@! TD.AperFunction*
G04 #@! TA.AperFunction,SMDPad,CuDef*
G36*
G01*
X206446000Y-110759250D02*
X206446000Y-110246750D01*
G75*
G02*
X206664750Y-110028000I218750J0D01*
G01*
X207102250Y-110028000D01*
G75*
G02*
X207321000Y-110246750I0J-218750D01*
G01*
X207321000Y-110759250D01*
G75*
G02*
X207102250Y-110978000I-218750J0D01*
G01*
X206664750Y-110978000D01*
G75*
G02*
X206446000Y-110759250I0J218750D01*
G01*
G37*
G04 #@! TD.AperFunction*
G04 #@! TA.AperFunction,SMDPad,CuDef*
G36*
G01*
X204871000Y-110759250D02*
X204871000Y-110246750D01*
G75*
G02*
X205089750Y-110028000I218750J0D01*
G01*
X205527250Y-110028000D01*
G75*
G02*
X205746000Y-110246750I0J-218750D01*
G01*
X205746000Y-110759250D01*
G75*
G02*
X205527250Y-110978000I-218750J0D01*
G01*
X205089750Y-110978000D01*
G75*
G02*
X204871000Y-110759250I0J218750D01*
G01*
G37*
G04 #@! TD.AperFunction*
G04 #@! TA.AperFunction,SMDPad,CuDef*
G36*
G01*
X206319000Y-108219250D02*
X206319000Y-107706750D01*
G75*
G02*
X206537750Y-107488000I218750J0D01*
G01*
X206975250Y-107488000D01*
G75*
G02*
X207194000Y-107706750I0J-218750D01*
G01*
X207194000Y-108219250D01*
G75*
G02*
X206975250Y-108438000I-218750J0D01*
G01*
X206537750Y-108438000D01*
G75*
G02*
X206319000Y-108219250I0J218750D01*
G01*
G37*
G04 #@! TD.AperFunction*
G04 #@! TA.AperFunction,SMDPad,CuDef*
G36*
G01*
X204744000Y-108219250D02*
X204744000Y-107706750D01*
G75*
G02*
X204962750Y-107488000I218750J0D01*
G01*
X205400250Y-107488000D01*
G75*
G02*
X205619000Y-107706750I0J-218750D01*
G01*
X205619000Y-108219250D01*
G75*
G02*
X205400250Y-108438000I-218750J0D01*
G01*
X204962750Y-108438000D01*
G75*
G02*
X204744000Y-108219250I0J218750D01*
G01*
G37*
G04 #@! TD.AperFunction*
G04 #@! TA.AperFunction,SMDPad,CuDef*
G36*
G01*
X242775000Y-109637000D02*
X242775000Y-109337000D01*
G75*
G02*
X242925000Y-109187000I150000J0D01*
G01*
X244575000Y-109187000D01*
G75*
G02*
X244725000Y-109337000I0J-150000D01*
G01*
X244725000Y-109637000D01*
G75*
G02*
X244575000Y-109787000I-150000J0D01*
G01*
X242925000Y-109787000D01*
G75*
G02*
X242775000Y-109637000I0J150000D01*
G01*
G37*
G04 #@! TD.AperFunction*
G04 #@! TA.AperFunction,SMDPad,CuDef*
G36*
G01*
X242775000Y-110907000D02*
X242775000Y-110607000D01*
G75*
G02*
X242925000Y-110457000I150000J0D01*
G01*
X244575000Y-110457000D01*
G75*
G02*
X244725000Y-110607000I0J-150000D01*
G01*
X244725000Y-110907000D01*
G75*
G02*
X244575000Y-111057000I-150000J0D01*
G01*
X242925000Y-111057000D01*
G75*
G02*
X242775000Y-110907000I0J150000D01*
G01*
G37*
G04 #@! TD.AperFunction*
G04 #@! TA.AperFunction,SMDPad,CuDef*
G36*
G01*
X242775000Y-112177000D02*
X242775000Y-111877000D01*
G75*
G02*
X242925000Y-111727000I150000J0D01*
G01*
X244575000Y-111727000D01*
G75*
G02*
X244725000Y-111877000I0J-150000D01*
G01*
X244725000Y-112177000D01*
G75*
G02*
X244575000Y-112327000I-150000J0D01*
G01*
X242925000Y-112327000D01*
G75*
G02*
X242775000Y-112177000I0J150000D01*
G01*
G37*
G04 #@! TD.AperFunction*
G04 #@! TA.AperFunction,SMDPad,CuDef*
G36*
G01*
X242775000Y-113447000D02*
X242775000Y-113147000D01*
G75*
G02*
X242925000Y-112997000I150000J0D01*
G01*
X244575000Y-112997000D01*
G75*
G02*
X244725000Y-113147000I0J-150000D01*
G01*
X244725000Y-113447000D01*
G75*
G02*
X244575000Y-113597000I-150000J0D01*
G01*
X242925000Y-113597000D01*
G75*
G02*
X242775000Y-113447000I0J150000D01*
G01*
G37*
G04 #@! TD.AperFunction*
G04 #@! TA.AperFunction,SMDPad,CuDef*
G36*
G01*
X242775000Y-114717000D02*
X242775000Y-114417000D01*
G75*
G02*
X242925000Y-114267000I150000J0D01*
G01*
X244575000Y-114267000D01*
G75*
G02*
X244725000Y-114417000I0J-150000D01*
G01*
X244725000Y-114717000D01*
G75*
G02*
X244575000Y-114867000I-150000J0D01*
G01*
X242925000Y-114867000D01*
G75*
G02*
X242775000Y-114717000I0J150000D01*
G01*
G37*
G04 #@! TD.AperFunction*
G04 #@! TA.AperFunction,SMDPad,CuDef*
G36*
G01*
X242775000Y-115987000D02*
X242775000Y-115687000D01*
G75*
G02*
X242925000Y-115537000I150000J0D01*
G01*
X244575000Y-115537000D01*
G75*
G02*
X244725000Y-115687000I0J-150000D01*
G01*
X244725000Y-115987000D01*
G75*
G02*
X244575000Y-116137000I-150000J0D01*
G01*
X242925000Y-116137000D01*
G75*
G02*
X242775000Y-115987000I0J150000D01*
G01*
G37*
G04 #@! TD.AperFunction*
G04 #@! TA.AperFunction,SMDPad,CuDef*
G36*
G01*
X242775000Y-117257000D02*
X242775000Y-116957000D01*
G75*
G02*
X242925000Y-116807000I150000J0D01*
G01*
X244575000Y-116807000D01*
G75*
G02*
X244725000Y-116957000I0J-150000D01*
G01*
X244725000Y-117257000D01*
G75*
G02*
X244575000Y-117407000I-150000J0D01*
G01*
X242925000Y-117407000D01*
G75*
G02*
X242775000Y-117257000I0J150000D01*
G01*
G37*
G04 #@! TD.AperFunction*
G04 #@! TA.AperFunction,SMDPad,CuDef*
G36*
G01*
X237825000Y-117257000D02*
X237825000Y-116957000D01*
G75*
G02*
X237975000Y-116807000I150000J0D01*
G01*
X239625000Y-116807000D01*
G75*
G02*
X239775000Y-116957000I0J-150000D01*
G01*
X239775000Y-117257000D01*
G75*
G02*
X239625000Y-117407000I-150000J0D01*
G01*
X237975000Y-117407000D01*
G75*
G02*
X237825000Y-117257000I0J150000D01*
G01*
G37*
G04 #@! TD.AperFunction*
G04 #@! TA.AperFunction,SMDPad,CuDef*
G36*
G01*
X237825000Y-115987000D02*
X237825000Y-115687000D01*
G75*
G02*
X237975000Y-115537000I150000J0D01*
G01*
X239625000Y-115537000D01*
G75*
G02*
X239775000Y-115687000I0J-150000D01*
G01*
X239775000Y-115987000D01*
G75*
G02*
X239625000Y-116137000I-150000J0D01*
G01*
X237975000Y-116137000D01*
G75*
G02*
X237825000Y-115987000I0J150000D01*
G01*
G37*
G04 #@! TD.AperFunction*
G04 #@! TA.AperFunction,SMDPad,CuDef*
G36*
G01*
X237825000Y-114717000D02*
X237825000Y-114417000D01*
G75*
G02*
X237975000Y-114267000I150000J0D01*
G01*
X239625000Y-114267000D01*
G75*
G02*
X239775000Y-114417000I0J-150000D01*
G01*
X239775000Y-114717000D01*
G75*
G02*
X239625000Y-114867000I-150000J0D01*
G01*
X237975000Y-114867000D01*
G75*
G02*
X237825000Y-114717000I0J150000D01*
G01*
G37*
G04 #@! TD.AperFunction*
G04 #@! TA.AperFunction,SMDPad,CuDef*
G36*
G01*
X237825000Y-113447000D02*
X237825000Y-113147000D01*
G75*
G02*
X237975000Y-112997000I150000J0D01*
G01*
X239625000Y-112997000D01*
G75*
G02*
X239775000Y-113147000I0J-150000D01*
G01*
X239775000Y-113447000D01*
G75*
G02*
X239625000Y-113597000I-150000J0D01*
G01*
X237975000Y-113597000D01*
G75*
G02*
X237825000Y-113447000I0J150000D01*
G01*
G37*
G04 #@! TD.AperFunction*
G04 #@! TA.AperFunction,SMDPad,CuDef*
G36*
G01*
X237825000Y-112177000D02*
X237825000Y-111877000D01*
G75*
G02*
X237975000Y-111727000I150000J0D01*
G01*
X239625000Y-111727000D01*
G75*
G02*
X239775000Y-111877000I0J-150000D01*
G01*
X239775000Y-112177000D01*
G75*
G02*
X239625000Y-112327000I-150000J0D01*
G01*
X237975000Y-112327000D01*
G75*
G02*
X237825000Y-112177000I0J150000D01*
G01*
G37*
G04 #@! TD.AperFunction*
G04 #@! TA.AperFunction,SMDPad,CuDef*
G36*
G01*
X237825000Y-110907000D02*
X237825000Y-110607000D01*
G75*
G02*
X237975000Y-110457000I150000J0D01*
G01*
X239625000Y-110457000D01*
G75*
G02*
X239775000Y-110607000I0J-150000D01*
G01*
X239775000Y-110907000D01*
G75*
G02*
X239625000Y-111057000I-150000J0D01*
G01*
X237975000Y-111057000D01*
G75*
G02*
X237825000Y-110907000I0J150000D01*
G01*
G37*
G04 #@! TD.AperFunction*
G04 #@! TA.AperFunction,SMDPad,CuDef*
G36*
G01*
X237825000Y-109637000D02*
X237825000Y-109337000D01*
G75*
G02*
X237975000Y-109187000I150000J0D01*
G01*
X239625000Y-109187000D01*
G75*
G02*
X239775000Y-109337000I0J-150000D01*
G01*
X239775000Y-109637000D01*
G75*
G02*
X239625000Y-109787000I-150000J0D01*
G01*
X237975000Y-109787000D01*
G75*
G02*
X237825000Y-109637000I0J150000D01*
G01*
G37*
G04 #@! TD.AperFunction*
G04 #@! TA.AperFunction,SMDPad,CuDef*
G36*
G01*
X245826000Y-113151000D02*
X246376000Y-113151000D01*
G75*
G02*
X246576000Y-113351000I0J-200000D01*
G01*
X246576000Y-113751000D01*
G75*
G02*
X246376000Y-113951000I-200000J0D01*
G01*
X245826000Y-113951000D01*
G75*
G02*
X245626000Y-113751000I0J200000D01*
G01*
X245626000Y-113351000D01*
G75*
G02*
X245826000Y-113151000I200000J0D01*
G01*
G37*
G04 #@! TD.AperFunction*
G04 #@! TA.AperFunction,SMDPad,CuDef*
G36*
G01*
X245826000Y-111501000D02*
X246376000Y-111501000D01*
G75*
G02*
X246576000Y-111701000I0J-200000D01*
G01*
X246576000Y-112101000D01*
G75*
G02*
X246376000Y-112301000I-200000J0D01*
G01*
X245826000Y-112301000D01*
G75*
G02*
X245626000Y-112101000I0J200000D01*
G01*
X245626000Y-111701000D01*
G75*
G02*
X245826000Y-111501000I200000J0D01*
G01*
G37*
G04 #@! TD.AperFunction*
D10*
X250296000Y-119907000D03*
X250296000Y-117617000D03*
X250296000Y-108477000D03*
X250296000Y-106187000D03*
D11*
X256006000Y-104917000D03*
X256006000Y-121177000D03*
D10*
X255116000Y-116599000D03*
X255116000Y-114567000D03*
X255116000Y-112535000D03*
X255116000Y-110503000D03*
X256896000Y-115583000D03*
X256896000Y-113551000D03*
X256896000Y-111519000D03*
D12*
X256896000Y-109487000D03*
G04 #@! TA.AperFunction,SMDPad,CuDef*
G36*
G01*
X246351000Y-109035000D02*
X245851000Y-109035000D01*
G75*
G02*
X245626000Y-108810000I0J225000D01*
G01*
X245626000Y-108360000D01*
G75*
G02*
X245851000Y-108135000I225000J0D01*
G01*
X246351000Y-108135000D01*
G75*
G02*
X246576000Y-108360000I0J-225000D01*
G01*
X246576000Y-108810000D01*
G75*
G02*
X246351000Y-109035000I-225000J0D01*
G01*
G37*
G04 #@! TD.AperFunction*
G04 #@! TA.AperFunction,SMDPad,CuDef*
G36*
G01*
X246351000Y-110585000D02*
X245851000Y-110585000D01*
G75*
G02*
X245626000Y-110360000I0J225000D01*
G01*
X245626000Y-109910000D01*
G75*
G02*
X245851000Y-109685000I225000J0D01*
G01*
X246351000Y-109685000D01*
G75*
G02*
X246576000Y-109910000I0J-225000D01*
G01*
X246576000Y-110360000D01*
G75*
G02*
X246351000Y-110585000I-225000J0D01*
G01*
G37*
G04 #@! TD.AperFunction*
D13*
X208370000Y-98770000D03*
D14*
X208370000Y-96230000D03*
X210910000Y-98770000D03*
X210910000Y-96230000D03*
X213450000Y-98770000D03*
X213450000Y-96230000D03*
X215990000Y-98770000D03*
X215990000Y-96230000D03*
X218530000Y-98770000D03*
X218530000Y-96230000D03*
X221070000Y-98770000D03*
X221070000Y-96230000D03*
X223610000Y-98770000D03*
X223610000Y-96230000D03*
X226150000Y-98770000D03*
X226150000Y-96230000D03*
X228690000Y-98770000D03*
X228690000Y-96230000D03*
X231230000Y-98770000D03*
X231230000Y-96230000D03*
X233770000Y-98770000D03*
X233770000Y-96230000D03*
X236310000Y-98770000D03*
X236310000Y-96230000D03*
X238850000Y-98770000D03*
X238850000Y-96230000D03*
X241390000Y-98770000D03*
X241390000Y-96230000D03*
X243930000Y-98770000D03*
X243930000Y-96230000D03*
X246470000Y-98770000D03*
X246470000Y-96230000D03*
X249010000Y-98770000D03*
X249010000Y-96230000D03*
X251550000Y-98770000D03*
X251550000Y-96230000D03*
X254090000Y-98770000D03*
X254090000Y-96230000D03*
X256630000Y-98770000D03*
X256630000Y-96230000D03*
D15*
X245085000Y-108344000D03*
X236576000Y-115456000D03*
X236703000Y-117488000D03*
X201270000Y-106947000D03*
X201270000Y-111646000D03*
X236449000Y-111900000D03*
D16*
X238660000Y-113437000D02*
X238800000Y-113297000D01*
X245326000Y-108585000D02*
X245085000Y-108344000D01*
X246101000Y-108585000D02*
X245326000Y-108585000D01*
X246241000Y-108725000D02*
X246101000Y-108585000D01*
X236957000Y-115837000D02*
X236576000Y-115456000D01*
X238800000Y-115837000D02*
X236957000Y-115837000D01*
X237084000Y-117107000D02*
X236703000Y-117488000D01*
X238800000Y-117107000D02*
X237084000Y-117107000D01*
X201769000Y-107446000D02*
X201270000Y-106947000D01*
X201769000Y-107963000D02*
X201769000Y-107446000D01*
X201769000Y-111147000D02*
X201270000Y-111646000D01*
X201769000Y-110503000D02*
X201769000Y-111147000D01*
X236576000Y-112027000D02*
X236449000Y-111900000D01*
X238800000Y-112027000D02*
X236576000Y-112027000D01*
X217080001Y-97320001D02*
X215990000Y-96230000D01*
X217080001Y-99293201D02*
X217080001Y-97320001D01*
X232353800Y-114567000D02*
X217080001Y-99293201D01*
X238800000Y-114567000D02*
X232353800Y-114567000D01*
X219620001Y-97320001D02*
X218530000Y-96230000D01*
X219620001Y-99008001D02*
X219620001Y-97320001D01*
X231369000Y-110757000D02*
X219620001Y-99008001D01*
X238800000Y-110757000D02*
X231369000Y-110757000D01*
X245975000Y-112027000D02*
X246101000Y-111901000D01*
X243750000Y-112027000D02*
X245975000Y-112027000D01*
X246101000Y-111901000D02*
X249656000Y-111901000D01*
X252070000Y-109487000D02*
X256896000Y-109487000D01*
X249656000Y-111901000D02*
X252070000Y-109487000D01*
X243750000Y-114567000D02*
X249839438Y-114567000D01*
X249839438Y-114567000D02*
X252887438Y-111519000D01*
X252887438Y-111519000D02*
X256896000Y-111519000D01*
X245847000Y-113297000D02*
X246101000Y-113551000D01*
X243750000Y-113297000D02*
X245847000Y-113297000D01*
X248514000Y-113551000D02*
X246101000Y-113551000D01*
X251562000Y-110503000D02*
X248514000Y-113551000D01*
X255116000Y-110503000D02*
X251562000Y-110503000D01*
X250292000Y-114567000D02*
X255116000Y-114567000D01*
X249022000Y-115837000D02*
X250292000Y-114567000D01*
X243750000Y-115837000D02*
X249022000Y-115837000D01*
X211176000Y-99036000D02*
X210910000Y-98770000D01*
X211176000Y-105677000D02*
X211176000Y-99036000D01*
X208890000Y-107963000D02*
X211176000Y-105677000D01*
X206756500Y-107963000D02*
X208890000Y-107963000D01*
X205181500Y-107963000D02*
X203419000Y-107963000D01*
X213450000Y-103936500D02*
X213450000Y-98770000D01*
X206883500Y-110503000D02*
X213450000Y-103936500D01*
X205308500Y-110503000D02*
X203419000Y-110503000D01*
D17*
X262498586Y-94481954D02*
X262978182Y-94626753D01*
X263420520Y-94861948D01*
X263808750Y-95178580D01*
X264128083Y-95564587D01*
X264366361Y-96005274D01*
X264514504Y-96483847D01*
X264569001Y-97002348D01*
X264569000Y-146978921D01*
X264518046Y-147498586D01*
X264373247Y-147978185D01*
X264138053Y-148420520D01*
X263821420Y-148808750D01*
X263435413Y-149128083D01*
X262994725Y-149366361D01*
X262516153Y-149514504D01*
X261997661Y-149569000D01*
X203021079Y-149569000D01*
X202501414Y-149518046D01*
X202021815Y-149373247D01*
X201579480Y-149138053D01*
X201191250Y-148821420D01*
X200871917Y-148435413D01*
X200633639Y-147994725D01*
X200485496Y-147516153D01*
X200431000Y-146997661D01*
X200431000Y-146329511D01*
X201769000Y-146329511D01*
X201769000Y-146670489D01*
X201835521Y-147004914D01*
X201966007Y-147319936D01*
X202155444Y-147603448D01*
X202396552Y-147844556D01*
X202680064Y-148033993D01*
X202995086Y-148164479D01*
X203329511Y-148231000D01*
X203670489Y-148231000D01*
X204004914Y-148164479D01*
X204319936Y-148033993D01*
X204603448Y-147844556D01*
X204844556Y-147603448D01*
X205033993Y-147319936D01*
X205164479Y-147004914D01*
X205231000Y-146670489D01*
X205231000Y-146329511D01*
X259769000Y-146329511D01*
X259769000Y-146670489D01*
X259835521Y-147004914D01*
X259966007Y-147319936D01*
X260155444Y-147603448D01*
X260396552Y-147844556D01*
X260680064Y-148033993D01*
X260995086Y-148164479D01*
X261329511Y-148231000D01*
X261670489Y-148231000D01*
X262004914Y-148164479D01*
X262319936Y-148033993D01*
X262603448Y-147844556D01*
X262844556Y-147603448D01*
X263033993Y-147319936D01*
X263164479Y-147004914D01*
X263231000Y-146670489D01*
X263231000Y-146329511D01*
X263164479Y-145995086D01*
X263033993Y-145680064D01*
X262844556Y-145396552D01*
X262603448Y-145155444D01*
X262319936Y-144966007D01*
X262004914Y-144835521D01*
X261670489Y-144769000D01*
X261329511Y-144769000D01*
X260995086Y-144835521D01*
X260680064Y-144966007D01*
X260396552Y-145155444D01*
X260155444Y-145396552D01*
X259966007Y-145680064D01*
X259835521Y-145995086D01*
X259769000Y-146329511D01*
X205231000Y-146329511D01*
X205164479Y-145995086D01*
X205033993Y-145680064D01*
X204844556Y-145396552D01*
X204603448Y-145155444D01*
X204319936Y-144966007D01*
X204004914Y-144835521D01*
X203670489Y-144769000D01*
X203329511Y-144769000D01*
X202995086Y-144835521D01*
X202680064Y-144966007D01*
X202396552Y-145155444D01*
X202155444Y-145396552D01*
X201966007Y-145680064D01*
X201835521Y-145995086D01*
X201769000Y-146329511D01*
X200431000Y-146329511D01*
X200431000Y-119795606D01*
X249165000Y-119795606D01*
X249165000Y-120018394D01*
X249208464Y-120236900D01*
X249293721Y-120442729D01*
X249417495Y-120627970D01*
X249575030Y-120785505D01*
X249760271Y-120909279D01*
X249966100Y-120994536D01*
X250184606Y-121038000D01*
X250407394Y-121038000D01*
X250466665Y-121026210D01*
X254475000Y-121026210D01*
X254475000Y-121327790D01*
X254533835Y-121623576D01*
X254649245Y-121902201D01*
X254816795Y-122152956D01*
X255030044Y-122366205D01*
X255280799Y-122533755D01*
X255559424Y-122649165D01*
X255855210Y-122708000D01*
X256156790Y-122708000D01*
X256452576Y-122649165D01*
X256731201Y-122533755D01*
X256981956Y-122366205D01*
X257195205Y-122152956D01*
X257362755Y-121902201D01*
X257478165Y-121623576D01*
X257537000Y-121327790D01*
X257537000Y-121026210D01*
X257478165Y-120730424D01*
X257362755Y-120451799D01*
X257195205Y-120201044D01*
X256981956Y-119987795D01*
X256731201Y-119820245D01*
X256452576Y-119704835D01*
X256156790Y-119646000D01*
X255855210Y-119646000D01*
X255559424Y-119704835D01*
X255280799Y-119820245D01*
X255030044Y-119987795D01*
X254816795Y-120201044D01*
X254649245Y-120451799D01*
X254533835Y-120730424D01*
X254475000Y-121026210D01*
X250466665Y-121026210D01*
X250625900Y-120994536D01*
X250831729Y-120909279D01*
X251016970Y-120785505D01*
X251174505Y-120627970D01*
X251298279Y-120442729D01*
X251383536Y-120236900D01*
X251427000Y-120018394D01*
X251427000Y-119795606D01*
X251383536Y-119577100D01*
X251298279Y-119371271D01*
X251183456Y-119199426D01*
X257430000Y-119199426D01*
X257430000Y-119594574D01*
X257507090Y-119982129D01*
X257658306Y-120347197D01*
X257877838Y-120675750D01*
X258157250Y-120955162D01*
X258485803Y-121174694D01*
X258850871Y-121325910D01*
X259238426Y-121403000D01*
X259633574Y-121403000D01*
X260021129Y-121325910D01*
X260386197Y-121174694D01*
X260714750Y-120955162D01*
X260994162Y-120675750D01*
X261213694Y-120347197D01*
X261364910Y-119982129D01*
X261442000Y-119594574D01*
X261442000Y-119199426D01*
X261364910Y-118811871D01*
X261213694Y-118446803D01*
X260994162Y-118118250D01*
X260714750Y-117838838D01*
X260386197Y-117619306D01*
X260021129Y-117468090D01*
X259633574Y-117391000D01*
X259238426Y-117391000D01*
X258850871Y-117468090D01*
X258485803Y-117619306D01*
X258157250Y-117838838D01*
X257877838Y-118118250D01*
X257658306Y-118446803D01*
X257507090Y-118811871D01*
X257430000Y-119199426D01*
X251183456Y-119199426D01*
X251174505Y-119186030D01*
X251016970Y-119028495D01*
X250831729Y-118904721D01*
X250625900Y-118819464D01*
X250407394Y-118776000D01*
X250184606Y-118776000D01*
X249966100Y-118819464D01*
X249760271Y-118904721D01*
X249575030Y-119028495D01*
X249417495Y-119186030D01*
X249293721Y-119371271D01*
X249208464Y-119577100D01*
X249165000Y-119795606D01*
X200431000Y-119795606D01*
X200431000Y-111577942D01*
X200579000Y-111577942D01*
X200579000Y-111714058D01*
X200605555Y-111847557D01*
X200657644Y-111973311D01*
X200733266Y-112086487D01*
X200829513Y-112182734D01*
X200942689Y-112258356D01*
X201068443Y-112310445D01*
X201201942Y-112337000D01*
X201338058Y-112337000D01*
X201471557Y-112310445D01*
X201597311Y-112258356D01*
X201710487Y-112182734D01*
X201806734Y-112086487D01*
X201882356Y-111973311D01*
X201934445Y-111847557D01*
X201961000Y-111714058D01*
X201961000Y-111606952D01*
X202078968Y-111488984D01*
X202096553Y-111474553D01*
X202119436Y-111446671D01*
X202154162Y-111404357D01*
X202164660Y-111384717D01*
X202196969Y-111324270D01*
X202200744Y-111311827D01*
X202292810Y-111262616D01*
X202381132Y-111190132D01*
X202453616Y-111101810D01*
X202507477Y-111001044D01*
X202540644Y-110891707D01*
X202551843Y-110778000D01*
X202551843Y-110228000D01*
X202540644Y-110114293D01*
X202507477Y-110004956D01*
X202453616Y-109904190D01*
X202381132Y-109815868D01*
X202292810Y-109743384D01*
X202192044Y-109689523D01*
X202082707Y-109656356D01*
X201969000Y-109645157D01*
X201569000Y-109645157D01*
X201455293Y-109656356D01*
X201345956Y-109689523D01*
X201245190Y-109743384D01*
X201156868Y-109815868D01*
X201084384Y-109904190D01*
X201030523Y-110004956D01*
X200997356Y-110114293D01*
X200986157Y-110228000D01*
X200986157Y-110778000D01*
X200997356Y-110891707D01*
X201029504Y-110997684D01*
X200942689Y-111033644D01*
X200829513Y-111109266D01*
X200733266Y-111205513D01*
X200657644Y-111318689D01*
X200605555Y-111444443D01*
X200579000Y-111577942D01*
X200431000Y-111577942D01*
X200431000Y-106878942D01*
X200579000Y-106878942D01*
X200579000Y-107015058D01*
X200605555Y-107148557D01*
X200657644Y-107274311D01*
X200733266Y-107387487D01*
X200829513Y-107483734D01*
X200942689Y-107559356D01*
X200996627Y-107581698D01*
X200986157Y-107688000D01*
X200986157Y-108238000D01*
X200997356Y-108351707D01*
X201030523Y-108461044D01*
X201084384Y-108561810D01*
X201156868Y-108650132D01*
X201245190Y-108722616D01*
X201345956Y-108776477D01*
X201455293Y-108809644D01*
X201569000Y-108820843D01*
X201969000Y-108820843D01*
X202082707Y-108809644D01*
X202192044Y-108776477D01*
X202292810Y-108722616D01*
X202381132Y-108650132D01*
X202453616Y-108561810D01*
X202507477Y-108461044D01*
X202540644Y-108351707D01*
X202551843Y-108238000D01*
X202551843Y-107688000D01*
X202636157Y-107688000D01*
X202636157Y-108238000D01*
X202647356Y-108351707D01*
X202680523Y-108461044D01*
X202734384Y-108561810D01*
X202806868Y-108650132D01*
X202895190Y-108722616D01*
X202995956Y-108776477D01*
X203105293Y-108809644D01*
X203219000Y-108820843D01*
X203619000Y-108820843D01*
X203732707Y-108809644D01*
X203842044Y-108776477D01*
X203942810Y-108722616D01*
X204031132Y-108650132D01*
X204103616Y-108561810D01*
X204157477Y-108461044D01*
X204168714Y-108424000D01*
X204399225Y-108424000D01*
X204406951Y-108449470D01*
X204462544Y-108553477D01*
X204537360Y-108644640D01*
X204628523Y-108719456D01*
X204732530Y-108775049D01*
X204845385Y-108809284D01*
X204962750Y-108820843D01*
X205400250Y-108820843D01*
X205517615Y-108809284D01*
X205630470Y-108775049D01*
X205734477Y-108719456D01*
X205825640Y-108644640D01*
X205900456Y-108553477D01*
X205956049Y-108449470D01*
X205969000Y-108406777D01*
X205981951Y-108449470D01*
X206037544Y-108553477D01*
X206112360Y-108644640D01*
X206203523Y-108719456D01*
X206307530Y-108775049D01*
X206420385Y-108809284D01*
X206537750Y-108820843D01*
X206975250Y-108820843D01*
X207092615Y-108809284D01*
X207205470Y-108775049D01*
X207309477Y-108719456D01*
X207400640Y-108644640D01*
X207475456Y-108553477D01*
X207531049Y-108449470D01*
X207538775Y-108424000D01*
X208310549Y-108424000D01*
X207089392Y-109645157D01*
X206664750Y-109645157D01*
X206547385Y-109656716D01*
X206434530Y-109690951D01*
X206330523Y-109746544D01*
X206239360Y-109821360D01*
X206164544Y-109912523D01*
X206108951Y-110016530D01*
X206096000Y-110059223D01*
X206083049Y-110016530D01*
X206027456Y-109912523D01*
X205952640Y-109821360D01*
X205861477Y-109746544D01*
X205757470Y-109690951D01*
X205644615Y-109656716D01*
X205527250Y-109645157D01*
X205089750Y-109645157D01*
X204972385Y-109656716D01*
X204859530Y-109690951D01*
X204755523Y-109746544D01*
X204664360Y-109821360D01*
X204589544Y-109912523D01*
X204533951Y-110016530D01*
X204526225Y-110042000D01*
X204168714Y-110042000D01*
X204157477Y-110004956D01*
X204103616Y-109904190D01*
X204031132Y-109815868D01*
X203942810Y-109743384D01*
X203842044Y-109689523D01*
X203732707Y-109656356D01*
X203619000Y-109645157D01*
X203219000Y-109645157D01*
X203105293Y-109656356D01*
X202995956Y-109689523D01*
X202895190Y-109743384D01*
X202806868Y-109815868D01*
X202734384Y-109904190D01*
X202680523Y-110004956D01*
X202647356Y-110114293D01*
X202636157Y-110228000D01*
X202636157Y-110778000D01*
X202647356Y-110891707D01*
X202680523Y-111001044D01*
X202734384Y-111101810D01*
X202806868Y-111190132D01*
X202895190Y-111262616D01*
X202995956Y-111316477D01*
X203105293Y-111349644D01*
X203219000Y-111360843D01*
X203619000Y-111360843D01*
X203732707Y-111349644D01*
X203842044Y-111316477D01*
X203942810Y-111262616D01*
X204031132Y-111190132D01*
X204103616Y-111101810D01*
X204157477Y-111001044D01*
X204168714Y-110964000D01*
X204526225Y-110964000D01*
X204533951Y-110989470D01*
X204589544Y-111093477D01*
X204664360Y-111184640D01*
X204755523Y-111259456D01*
X204859530Y-111315049D01*
X204972385Y-111349284D01*
X205089750Y-111360843D01*
X205527250Y-111360843D01*
X205644615Y-111349284D01*
X205757470Y-111315049D01*
X205861477Y-111259456D01*
X205952640Y-111184640D01*
X206027456Y-111093477D01*
X206083049Y-110989470D01*
X206096000Y-110946777D01*
X206108951Y-110989470D01*
X206164544Y-111093477D01*
X206239360Y-111184640D01*
X206330523Y-111259456D01*
X206434530Y-111315049D01*
X206547385Y-111349284D01*
X206664750Y-111360843D01*
X207102250Y-111360843D01*
X207219615Y-111349284D01*
X207332470Y-111315049D01*
X207436477Y-111259456D01*
X207527640Y-111184640D01*
X207602456Y-111093477D01*
X207658049Y-110989470D01*
X207692284Y-110876615D01*
X207703843Y-110759250D01*
X207703843Y-110334608D01*
X213759965Y-104278487D01*
X213777553Y-104264053D01*
X213835162Y-104193857D01*
X213877969Y-104113770D01*
X213904329Y-104026872D01*
X213911000Y-103959141D01*
X213911000Y-103959135D01*
X213913229Y-103936501D01*
X213911000Y-103913867D01*
X213911000Y-99911472D01*
X214033097Y-99860898D01*
X214234717Y-99726180D01*
X214406180Y-99554717D01*
X214540898Y-99353097D01*
X214633693Y-99129069D01*
X214681000Y-98891243D01*
X214681000Y-98648757D01*
X214633693Y-98410931D01*
X214540898Y-98186903D01*
X214406180Y-97985283D01*
X214234717Y-97813820D01*
X214033097Y-97679102D01*
X213809069Y-97586307D01*
X213571243Y-97539000D01*
X213328757Y-97539000D01*
X213090931Y-97586307D01*
X212866903Y-97679102D01*
X212665283Y-97813820D01*
X212493820Y-97985283D01*
X212359102Y-98186903D01*
X212266307Y-98410931D01*
X212219000Y-98648757D01*
X212219000Y-98891243D01*
X212266307Y-99129069D01*
X212359102Y-99353097D01*
X212493820Y-99554717D01*
X212665283Y-99726180D01*
X212866903Y-99860898D01*
X212989001Y-99911472D01*
X212989000Y-103745548D01*
X211637000Y-105097548D01*
X211637000Y-99764745D01*
X211694717Y-99726180D01*
X211866180Y-99554717D01*
X212000898Y-99353097D01*
X212093693Y-99129069D01*
X212141000Y-98891243D01*
X212141000Y-98648757D01*
X212093693Y-98410931D01*
X212000898Y-98186903D01*
X211866180Y-97985283D01*
X211694717Y-97813820D01*
X211493097Y-97679102D01*
X211269069Y-97586307D01*
X211031243Y-97539000D01*
X210788757Y-97539000D01*
X210550931Y-97586307D01*
X210326903Y-97679102D01*
X210125283Y-97813820D01*
X209953820Y-97985283D01*
X209856927Y-98130294D01*
X209858072Y-97920000D01*
X209845812Y-97795518D01*
X209809502Y-97675820D01*
X209750537Y-97565506D01*
X209671185Y-97468815D01*
X209574494Y-97389463D01*
X209464180Y-97330498D01*
X209344482Y-97294188D01*
X209220000Y-97281928D01*
X209009706Y-97283073D01*
X209154717Y-97186180D01*
X209326180Y-97014717D01*
X209460898Y-96813097D01*
X209553693Y-96589069D01*
X209601000Y-96351243D01*
X209601000Y-96108757D01*
X209679000Y-96108757D01*
X209679000Y-96351243D01*
X209726307Y-96589069D01*
X209819102Y-96813097D01*
X209953820Y-97014717D01*
X210125283Y-97186180D01*
X210326903Y-97320898D01*
X210550931Y-97413693D01*
X210788757Y-97461000D01*
X211031243Y-97461000D01*
X211269069Y-97413693D01*
X211493097Y-97320898D01*
X211694717Y-97186180D01*
X211866180Y-97014717D01*
X212000898Y-96813097D01*
X212093693Y-96589069D01*
X212141000Y-96351243D01*
X212141000Y-96108757D01*
X212219000Y-96108757D01*
X212219000Y-96351243D01*
X212266307Y-96589069D01*
X212359102Y-96813097D01*
X212493820Y-97014717D01*
X212665283Y-97186180D01*
X212866903Y-97320898D01*
X213090931Y-97413693D01*
X213328757Y-97461000D01*
X213571243Y-97461000D01*
X213809069Y-97413693D01*
X214033097Y-97320898D01*
X214234717Y-97186180D01*
X214406180Y-97014717D01*
X214540898Y-96813097D01*
X214633693Y-96589069D01*
X214681000Y-96351243D01*
X214681000Y-96108757D01*
X214759000Y-96108757D01*
X214759000Y-96351243D01*
X214806307Y-96589069D01*
X214899102Y-96813097D01*
X215033820Y-97014717D01*
X215205283Y-97186180D01*
X215406903Y-97320898D01*
X215630931Y-97413693D01*
X215868757Y-97461000D01*
X216111243Y-97461000D01*
X216349069Y-97413693D01*
X216471167Y-97363119D01*
X216619002Y-97510954D01*
X216619002Y-97709775D01*
X216573097Y-97679102D01*
X216349069Y-97586307D01*
X216111243Y-97539000D01*
X215868757Y-97539000D01*
X215630931Y-97586307D01*
X215406903Y-97679102D01*
X215205283Y-97813820D01*
X215033820Y-97985283D01*
X214899102Y-98186903D01*
X214806307Y-98410931D01*
X214759000Y-98648757D01*
X214759000Y-98891243D01*
X214806307Y-99129069D01*
X214899102Y-99353097D01*
X215033820Y-99554717D01*
X215205283Y-99726180D01*
X215406903Y-99860898D01*
X215630931Y-99953693D01*
X215868757Y-100001000D01*
X216111243Y-100001000D01*
X216349069Y-99953693D01*
X216573097Y-99860898D01*
X216774717Y-99726180D01*
X216817873Y-99683024D01*
X232011814Y-114876967D01*
X232026247Y-114894553D01*
X232043831Y-114908984D01*
X232043833Y-114908986D01*
X232058363Y-114920910D01*
X232096443Y-114952162D01*
X232176530Y-114994969D01*
X232263428Y-115021329D01*
X232353800Y-115030230D01*
X232376441Y-115028000D01*
X236030922Y-115028000D01*
X235963644Y-115128689D01*
X235911555Y-115254443D01*
X235885000Y-115387942D01*
X235885000Y-115524058D01*
X235911555Y-115657557D01*
X235963644Y-115783311D01*
X236039266Y-115896487D01*
X236135513Y-115992734D01*
X236248689Y-116068356D01*
X236374443Y-116120445D01*
X236507942Y-116147000D01*
X236615041Y-116147000D01*
X236629447Y-116164553D01*
X236699643Y-116222162D01*
X236779730Y-116264969D01*
X236828789Y-116279851D01*
X236866627Y-116291329D01*
X236875801Y-116292233D01*
X236934359Y-116298000D01*
X236934365Y-116298000D01*
X236956999Y-116300229D01*
X236979633Y-116298000D01*
X237544241Y-116298000D01*
X237598223Y-116363777D01*
X237678968Y-116430043D01*
X237757464Y-116472000D01*
X237678968Y-116513957D01*
X237598223Y-116580223D01*
X237544241Y-116646000D01*
X237106633Y-116646000D01*
X237083999Y-116643771D01*
X237061365Y-116646000D01*
X237061359Y-116646000D01*
X237002801Y-116651767D01*
X236993627Y-116652671D01*
X236966276Y-116660968D01*
X236906730Y-116679031D01*
X236826643Y-116721838D01*
X236756447Y-116779447D01*
X236742041Y-116797000D01*
X236634942Y-116797000D01*
X236501443Y-116823555D01*
X236375689Y-116875644D01*
X236262513Y-116951266D01*
X236166266Y-117047513D01*
X236090644Y-117160689D01*
X236038555Y-117286443D01*
X236012000Y-117419942D01*
X236012000Y-117556058D01*
X236038555Y-117689557D01*
X236090644Y-117815311D01*
X236166266Y-117928487D01*
X236262513Y-118024734D01*
X236375689Y-118100356D01*
X236501443Y-118152445D01*
X236634942Y-118179000D01*
X236771058Y-118179000D01*
X236904557Y-118152445D01*
X237030311Y-118100356D01*
X237143487Y-118024734D01*
X237239734Y-117928487D01*
X237315356Y-117815311D01*
X237367445Y-117689557D01*
X237391625Y-117568000D01*
X237544241Y-117568000D01*
X237598223Y-117633777D01*
X237678968Y-117700043D01*
X237771090Y-117749283D01*
X237871047Y-117779605D01*
X237975000Y-117789843D01*
X239625000Y-117789843D01*
X239728953Y-117779605D01*
X239828910Y-117749283D01*
X239921032Y-117700043D01*
X240001777Y-117633777D01*
X240068043Y-117553032D01*
X240117283Y-117460910D01*
X240147605Y-117360953D01*
X240157843Y-117257000D01*
X240157843Y-116957000D01*
X240147605Y-116853047D01*
X240117283Y-116753090D01*
X240068043Y-116660968D01*
X240001777Y-116580223D01*
X239921032Y-116513957D01*
X239842536Y-116472000D01*
X239921032Y-116430043D01*
X240001777Y-116363777D01*
X240068043Y-116283032D01*
X240117283Y-116190910D01*
X240147605Y-116090953D01*
X240157843Y-115987000D01*
X240157843Y-115687000D01*
X240147605Y-115583047D01*
X240117283Y-115483090D01*
X240068043Y-115390968D01*
X240001777Y-115310223D01*
X239921032Y-115243957D01*
X239842536Y-115202000D01*
X239921032Y-115160043D01*
X240001777Y-115093777D01*
X240068043Y-115013032D01*
X240117283Y-114920910D01*
X240147605Y-114820953D01*
X240157843Y-114717000D01*
X240157843Y-114417000D01*
X240147605Y-114313047D01*
X240117283Y-114213090D01*
X240068043Y-114120968D01*
X240001777Y-114040223D01*
X239921032Y-113973957D01*
X239828910Y-113924717D01*
X239728953Y-113894395D01*
X239625000Y-113884157D01*
X237975000Y-113884157D01*
X237871047Y-113894395D01*
X237771090Y-113924717D01*
X237678968Y-113973957D01*
X237598223Y-114040223D01*
X237544241Y-114106000D01*
X232544753Y-114106000D01*
X218439751Y-100001000D01*
X218651243Y-100001000D01*
X218889069Y-99953693D01*
X219113097Y-99860898D01*
X219314717Y-99726180D01*
X219486180Y-99554717D01*
X219497630Y-99537581D01*
X231027016Y-111066969D01*
X231041447Y-111084553D01*
X231059031Y-111098984D01*
X231059033Y-111098986D01*
X231073563Y-111110910D01*
X231111643Y-111142162D01*
X231191730Y-111184969D01*
X231270950Y-111209000D01*
X231278628Y-111211329D01*
X231369000Y-111220230D01*
X231391641Y-111218000D01*
X236335697Y-111218000D01*
X236247443Y-111235555D01*
X236121689Y-111287644D01*
X236008513Y-111363266D01*
X235912266Y-111459513D01*
X235836644Y-111572689D01*
X235784555Y-111698443D01*
X235758000Y-111831942D01*
X235758000Y-111968058D01*
X235784555Y-112101557D01*
X235836644Y-112227311D01*
X235912266Y-112340487D01*
X236008513Y-112436734D01*
X236121689Y-112512356D01*
X236247443Y-112564445D01*
X236380942Y-112591000D01*
X236517058Y-112591000D01*
X236650557Y-112564445D01*
X236776311Y-112512356D01*
X236812762Y-112488000D01*
X237544241Y-112488000D01*
X237598223Y-112553777D01*
X237678968Y-112620043D01*
X237771090Y-112669283D01*
X237871047Y-112699605D01*
X237975000Y-112709843D01*
X239625000Y-112709843D01*
X239728953Y-112699605D01*
X239828910Y-112669283D01*
X239921032Y-112620043D01*
X240001777Y-112553777D01*
X240068043Y-112473032D01*
X240117283Y-112380910D01*
X240147605Y-112280953D01*
X240157843Y-112177000D01*
X240157843Y-111877000D01*
X242392157Y-111877000D01*
X242392157Y-112177000D01*
X242402395Y-112280953D01*
X242432717Y-112380910D01*
X242481957Y-112473032D01*
X242548223Y-112553777D01*
X242628968Y-112620043D01*
X242707464Y-112662000D01*
X242628968Y-112703957D01*
X242548223Y-112770223D01*
X242481957Y-112850968D01*
X242432717Y-112943090D01*
X242402395Y-113043047D01*
X242392157Y-113147000D01*
X242392157Y-113447000D01*
X242402395Y-113550953D01*
X242432717Y-113650910D01*
X242481957Y-113743032D01*
X242548223Y-113823777D01*
X242628968Y-113890043D01*
X242707464Y-113932000D01*
X242628968Y-113973957D01*
X242548223Y-114040223D01*
X242481957Y-114120968D01*
X242432717Y-114213090D01*
X242402395Y-114313047D01*
X242392157Y-114417000D01*
X242392157Y-114717000D01*
X242402395Y-114820953D01*
X242432717Y-114920910D01*
X242481957Y-115013032D01*
X242548223Y-115093777D01*
X242628968Y-115160043D01*
X242707464Y-115202000D01*
X242628968Y-115243957D01*
X242548223Y-115310223D01*
X242481957Y-115390968D01*
X242432717Y-115483090D01*
X242402395Y-115583047D01*
X242392157Y-115687000D01*
X242392157Y-115987000D01*
X242402395Y-116090953D01*
X242432717Y-116190910D01*
X242481957Y-116283032D01*
X242548223Y-116363777D01*
X242628968Y-116430043D01*
X242707464Y-116472000D01*
X242628968Y-116513957D01*
X242548223Y-116580223D01*
X242481957Y-116660968D01*
X242432717Y-116753090D01*
X242402395Y-116853047D01*
X242392157Y-116957000D01*
X242392157Y-117257000D01*
X242402395Y-117360953D01*
X242432717Y-117460910D01*
X242481957Y-117553032D01*
X242548223Y-117633777D01*
X242628968Y-117700043D01*
X242721090Y-117749283D01*
X242821047Y-117779605D01*
X242925000Y-117789843D01*
X244575000Y-117789843D01*
X244678953Y-117779605D01*
X244778910Y-117749283D01*
X244871032Y-117700043D01*
X244951777Y-117633777D01*
X245018043Y-117553032D01*
X245043392Y-117505606D01*
X249165000Y-117505606D01*
X249165000Y-117728394D01*
X249208464Y-117946900D01*
X249293721Y-118152729D01*
X249417495Y-118337970D01*
X249575030Y-118495505D01*
X249760271Y-118619279D01*
X249966100Y-118704536D01*
X250184606Y-118748000D01*
X250407394Y-118748000D01*
X250625900Y-118704536D01*
X250831729Y-118619279D01*
X251016970Y-118495505D01*
X251174505Y-118337970D01*
X251298279Y-118152729D01*
X251383536Y-117946900D01*
X251427000Y-117728394D01*
X251427000Y-117505606D01*
X251383536Y-117287100D01*
X251298279Y-117081271D01*
X251174505Y-116896030D01*
X251016970Y-116738495D01*
X250831729Y-116614721D01*
X250625900Y-116529464D01*
X250407394Y-116486000D01*
X250184606Y-116486000D01*
X249966100Y-116529464D01*
X249760271Y-116614721D01*
X249575030Y-116738495D01*
X249417495Y-116896030D01*
X249293721Y-117081271D01*
X249208464Y-117287100D01*
X249165000Y-117505606D01*
X245043392Y-117505606D01*
X245067283Y-117460910D01*
X245097605Y-117360953D01*
X245107843Y-117257000D01*
X245107843Y-116957000D01*
X245097605Y-116853047D01*
X245067283Y-116753090D01*
X245018043Y-116660968D01*
X244951777Y-116580223D01*
X244871032Y-116513957D01*
X244792536Y-116472000D01*
X244871032Y-116430043D01*
X244951777Y-116363777D01*
X245005759Y-116298000D01*
X248999367Y-116298000D01*
X249022000Y-116300229D01*
X249044633Y-116298000D01*
X249044641Y-116298000D01*
X249112372Y-116291329D01*
X249199270Y-116264969D01*
X249279357Y-116222162D01*
X249349553Y-116164553D01*
X249363993Y-116146958D01*
X250482952Y-115028000D01*
X254082767Y-115028000D01*
X254113721Y-115102729D01*
X254237495Y-115287970D01*
X254395030Y-115445505D01*
X254580271Y-115569279D01*
X254613396Y-115583000D01*
X254580271Y-115596721D01*
X254395030Y-115720495D01*
X254237495Y-115878030D01*
X254113721Y-116063271D01*
X254028464Y-116269100D01*
X253985000Y-116487606D01*
X253985000Y-116710394D01*
X254028464Y-116928900D01*
X254113721Y-117134729D01*
X254237495Y-117319970D01*
X254395030Y-117477505D01*
X254580271Y-117601279D01*
X254786100Y-117686536D01*
X255004606Y-117730000D01*
X255227394Y-117730000D01*
X255445900Y-117686536D01*
X255651729Y-117601279D01*
X255836970Y-117477505D01*
X255994505Y-117319970D01*
X256118279Y-117134729D01*
X256203536Y-116928900D01*
X256247000Y-116710394D01*
X256247000Y-116509594D01*
X256360271Y-116585279D01*
X256566100Y-116670536D01*
X256784606Y-116714000D01*
X257007394Y-116714000D01*
X257225900Y-116670536D01*
X257431729Y-116585279D01*
X257616970Y-116461505D01*
X257774505Y-116303970D01*
X257898279Y-116118729D01*
X257983536Y-115912900D01*
X258027000Y-115694394D01*
X258027000Y-115471606D01*
X257983536Y-115253100D01*
X257898279Y-115047271D01*
X257774505Y-114862030D01*
X257616970Y-114704495D01*
X257431729Y-114580721D01*
X257398604Y-114567000D01*
X257431729Y-114553279D01*
X257616970Y-114429505D01*
X257774505Y-114271970D01*
X257898279Y-114086729D01*
X257983536Y-113880900D01*
X258027000Y-113662394D01*
X258027000Y-113439606D01*
X257983536Y-113221100D01*
X257898279Y-113015271D01*
X257774505Y-112830030D01*
X257616970Y-112672495D01*
X257431729Y-112548721D01*
X257398604Y-112535000D01*
X257431729Y-112521279D01*
X257616970Y-112397505D01*
X257774505Y-112239970D01*
X257898279Y-112054729D01*
X257983536Y-111848900D01*
X258027000Y-111630394D01*
X258027000Y-111407606D01*
X257983536Y-111189100D01*
X257898279Y-110983271D01*
X257774505Y-110798030D01*
X257616970Y-110640495D01*
X257586062Y-110619843D01*
X257646000Y-110619843D01*
X257720689Y-110612487D01*
X257792508Y-110590701D01*
X257858696Y-110555322D01*
X257916711Y-110507711D01*
X257964322Y-110449696D01*
X257999701Y-110383508D01*
X258021487Y-110311689D01*
X258028843Y-110237000D01*
X258028843Y-108737000D01*
X258021487Y-108662311D01*
X257999701Y-108590492D01*
X257964322Y-108524304D01*
X257916711Y-108466289D01*
X257858696Y-108418678D01*
X257792508Y-108383299D01*
X257720689Y-108361513D01*
X257646000Y-108354157D01*
X256146000Y-108354157D01*
X256071311Y-108361513D01*
X255999492Y-108383299D01*
X255933304Y-108418678D01*
X255875289Y-108466289D01*
X255827678Y-108524304D01*
X255792299Y-108590492D01*
X255770513Y-108662311D01*
X255763157Y-108737000D01*
X255763157Y-109026000D01*
X252092641Y-109026000D01*
X252070000Y-109023770D01*
X252047359Y-109026000D01*
X251979628Y-109032671D01*
X251892730Y-109059031D01*
X251812643Y-109101838D01*
X251774563Y-109133090D01*
X251742447Y-109159447D01*
X251728016Y-109177031D01*
X249465049Y-111440000D01*
X246894189Y-111440000D01*
X246860616Y-111377190D01*
X246788132Y-111288868D01*
X246699810Y-111216384D01*
X246599044Y-111162523D01*
X246489707Y-111129356D01*
X246376000Y-111118157D01*
X245826000Y-111118157D01*
X245712293Y-111129356D01*
X245602956Y-111162523D01*
X245502190Y-111216384D01*
X245413868Y-111288868D01*
X245341384Y-111377190D01*
X245287523Y-111477956D01*
X245260815Y-111566000D01*
X245005759Y-111566000D01*
X244951777Y-111500223D01*
X244871032Y-111433957D01*
X244778910Y-111384717D01*
X244678953Y-111354395D01*
X244575000Y-111344157D01*
X242925000Y-111344157D01*
X242821047Y-111354395D01*
X242721090Y-111384717D01*
X242628968Y-111433957D01*
X242548223Y-111500223D01*
X242481957Y-111580968D01*
X242432717Y-111673090D01*
X242402395Y-111773047D01*
X242392157Y-111877000D01*
X240157843Y-111877000D01*
X240147605Y-111773047D01*
X240117283Y-111673090D01*
X240068043Y-111580968D01*
X240001777Y-111500223D01*
X239921032Y-111433957D01*
X239842536Y-111392000D01*
X239921032Y-111350043D01*
X240001777Y-111283777D01*
X240068043Y-111203032D01*
X240117283Y-111110910D01*
X240147605Y-111010953D01*
X240157843Y-110907000D01*
X240157843Y-110607000D01*
X240147605Y-110503047D01*
X240117283Y-110403090D01*
X240068043Y-110310968D01*
X240001777Y-110230223D01*
X239921032Y-110163957D01*
X239842536Y-110122000D01*
X239921032Y-110080043D01*
X240001777Y-110013777D01*
X240068043Y-109933032D01*
X240117283Y-109840910D01*
X240147605Y-109740953D01*
X240157843Y-109637000D01*
X240157843Y-109337000D01*
X240147605Y-109233047D01*
X240117283Y-109133090D01*
X240068043Y-109040968D01*
X240001777Y-108960223D01*
X239921032Y-108893957D01*
X239828910Y-108844717D01*
X239728953Y-108814395D01*
X239625000Y-108804157D01*
X237975000Y-108804157D01*
X237871047Y-108814395D01*
X237771090Y-108844717D01*
X237678968Y-108893957D01*
X237598223Y-108960223D01*
X237531957Y-109040968D01*
X237482717Y-109133090D01*
X237452395Y-109233047D01*
X237442157Y-109337000D01*
X237442157Y-109637000D01*
X237452395Y-109740953D01*
X237482717Y-109840910D01*
X237531957Y-109933032D01*
X237598223Y-110013777D01*
X237678968Y-110080043D01*
X237757464Y-110122000D01*
X237678968Y-110163957D01*
X237598223Y-110230223D01*
X237544241Y-110296000D01*
X231559953Y-110296000D01*
X229539895Y-108275942D01*
X244394000Y-108275942D01*
X244394000Y-108412058D01*
X244420555Y-108545557D01*
X244472644Y-108671311D01*
X244548266Y-108784487D01*
X244644513Y-108880734D01*
X244757689Y-108956356D01*
X244883443Y-109008445D01*
X245016942Y-109035000D01*
X245153058Y-109035000D01*
X245194308Y-109026795D01*
X245235627Y-109039329D01*
X245244801Y-109040233D01*
X245290564Y-109044740D01*
X245345597Y-109147699D01*
X245421190Y-109239810D01*
X245513301Y-109315403D01*
X245618389Y-109371574D01*
X245732416Y-109406163D01*
X245851000Y-109417843D01*
X246351000Y-109417843D01*
X246469584Y-109406163D01*
X246583611Y-109371574D01*
X246688699Y-109315403D01*
X246780810Y-109239810D01*
X246856403Y-109147699D01*
X246912574Y-109042611D01*
X246947163Y-108928584D01*
X246958843Y-108810000D01*
X246958843Y-108365606D01*
X249165000Y-108365606D01*
X249165000Y-108588394D01*
X249208464Y-108806900D01*
X249293721Y-109012729D01*
X249417495Y-109197970D01*
X249575030Y-109355505D01*
X249760271Y-109479279D01*
X249966100Y-109564536D01*
X250184606Y-109608000D01*
X250407394Y-109608000D01*
X250625900Y-109564536D01*
X250831729Y-109479279D01*
X251016970Y-109355505D01*
X251174505Y-109197970D01*
X251298279Y-109012729D01*
X251383536Y-108806900D01*
X251427000Y-108588394D01*
X251427000Y-108365606D01*
X251383536Y-108147100D01*
X251298279Y-107941271D01*
X251174505Y-107756030D01*
X251016970Y-107598495D01*
X250831729Y-107474721D01*
X250625900Y-107389464D01*
X250407394Y-107346000D01*
X250184606Y-107346000D01*
X249966100Y-107389464D01*
X249760271Y-107474721D01*
X249575030Y-107598495D01*
X249417495Y-107756030D01*
X249293721Y-107941271D01*
X249208464Y-108147100D01*
X249165000Y-108365606D01*
X246958843Y-108365606D01*
X246958843Y-108360000D01*
X246947163Y-108241416D01*
X246912574Y-108127389D01*
X246856403Y-108022301D01*
X246780810Y-107930190D01*
X246688699Y-107854597D01*
X246583611Y-107798426D01*
X246469584Y-107763837D01*
X246351000Y-107752157D01*
X245851000Y-107752157D01*
X245732416Y-107763837D01*
X245618389Y-107798426D01*
X245552087Y-107833866D01*
X245525487Y-107807266D01*
X245412311Y-107731644D01*
X245286557Y-107679555D01*
X245153058Y-107653000D01*
X245016942Y-107653000D01*
X244883443Y-107679555D01*
X244757689Y-107731644D01*
X244644513Y-107807266D01*
X244548266Y-107903513D01*
X244472644Y-108016689D01*
X244420555Y-108142443D01*
X244394000Y-108275942D01*
X229539895Y-108275942D01*
X227339559Y-106075606D01*
X249165000Y-106075606D01*
X249165000Y-106298394D01*
X249208464Y-106516900D01*
X249293721Y-106722729D01*
X249417495Y-106907970D01*
X249575030Y-107065505D01*
X249760271Y-107189279D01*
X249966100Y-107274536D01*
X250184606Y-107318000D01*
X250407394Y-107318000D01*
X250625900Y-107274536D01*
X250831729Y-107189279D01*
X251016970Y-107065505D01*
X251174505Y-106907970D01*
X251298279Y-106722729D01*
X251383536Y-106516900D01*
X251387011Y-106499426D01*
X257430000Y-106499426D01*
X257430000Y-106894574D01*
X257507090Y-107282129D01*
X257658306Y-107647197D01*
X257877838Y-107975750D01*
X258157250Y-108255162D01*
X258485803Y-108474694D01*
X258850871Y-108625910D01*
X259238426Y-108703000D01*
X259633574Y-108703000D01*
X260021129Y-108625910D01*
X260386197Y-108474694D01*
X260714750Y-108255162D01*
X260994162Y-107975750D01*
X261213694Y-107647197D01*
X261364910Y-107282129D01*
X261442000Y-106894574D01*
X261442000Y-106499426D01*
X261364910Y-106111871D01*
X261213694Y-105746803D01*
X260994162Y-105418250D01*
X260714750Y-105138838D01*
X260386197Y-104919306D01*
X260021129Y-104768090D01*
X259633574Y-104691000D01*
X259238426Y-104691000D01*
X258850871Y-104768090D01*
X258485803Y-104919306D01*
X258157250Y-105138838D01*
X257877838Y-105418250D01*
X257658306Y-105746803D01*
X257507090Y-106111871D01*
X257430000Y-106499426D01*
X251387011Y-106499426D01*
X251427000Y-106298394D01*
X251427000Y-106075606D01*
X251383536Y-105857100D01*
X251298279Y-105651271D01*
X251174505Y-105466030D01*
X251016970Y-105308495D01*
X250831729Y-105184721D01*
X250625900Y-105099464D01*
X250407394Y-105056000D01*
X250184606Y-105056000D01*
X249966100Y-105099464D01*
X249760271Y-105184721D01*
X249575030Y-105308495D01*
X249417495Y-105466030D01*
X249293721Y-105651271D01*
X249208464Y-105857100D01*
X249165000Y-106075606D01*
X227339559Y-106075606D01*
X226030163Y-104766210D01*
X254475000Y-104766210D01*
X254475000Y-105067790D01*
X254533835Y-105363576D01*
X254649245Y-105642201D01*
X254816795Y-105892956D01*
X255030044Y-106106205D01*
X255280799Y-106273755D01*
X255559424Y-106389165D01*
X255855210Y-106448000D01*
X256156790Y-106448000D01*
X256452576Y-106389165D01*
X256731201Y-106273755D01*
X256981956Y-106106205D01*
X257195205Y-105892956D01*
X257362755Y-105642201D01*
X257478165Y-105363576D01*
X257537000Y-105067790D01*
X257537000Y-104766210D01*
X257478165Y-104470424D01*
X257362755Y-104191799D01*
X257195205Y-103941044D01*
X256981956Y-103727795D01*
X256731201Y-103560245D01*
X256452576Y-103444835D01*
X256156790Y-103386000D01*
X255855210Y-103386000D01*
X255559424Y-103444835D01*
X255280799Y-103560245D01*
X255030044Y-103727795D01*
X254816795Y-103941044D01*
X254649245Y-104191799D01*
X254533835Y-104470424D01*
X254475000Y-104766210D01*
X226030163Y-104766210D01*
X221252722Y-99988771D01*
X221429069Y-99953693D01*
X221653097Y-99860898D01*
X221854717Y-99726180D01*
X222026180Y-99554717D01*
X222160898Y-99353097D01*
X222253693Y-99129069D01*
X222301000Y-98891243D01*
X222301000Y-98648757D01*
X222379000Y-98648757D01*
X222379000Y-98891243D01*
X222426307Y-99129069D01*
X222519102Y-99353097D01*
X222653820Y-99554717D01*
X222825283Y-99726180D01*
X223026903Y-99860898D01*
X223250931Y-99953693D01*
X223488757Y-100001000D01*
X223731243Y-100001000D01*
X223969069Y-99953693D01*
X224193097Y-99860898D01*
X224394717Y-99726180D01*
X224566180Y-99554717D01*
X224700898Y-99353097D01*
X224793693Y-99129069D01*
X224841000Y-98891243D01*
X224841000Y-98648757D01*
X224919000Y-98648757D01*
X224919000Y-98891243D01*
X224966307Y-99129069D01*
X225059102Y-99353097D01*
X225193820Y-99554717D01*
X225365283Y-99726180D01*
X225566903Y-99860898D01*
X225790931Y-99953693D01*
X226028757Y-100001000D01*
X226271243Y-100001000D01*
X226509069Y-99953693D01*
X226733097Y-99860898D01*
X226934717Y-99726180D01*
X227106180Y-99554717D01*
X227240898Y-99353097D01*
X227288228Y-99238832D01*
X227345843Y-99401252D01*
X227494822Y-99651355D01*
X227689731Y-99867588D01*
X227923080Y-100041641D01*
X228185901Y-100166825D01*
X228333110Y-100211476D01*
X228563000Y-100090155D01*
X228563000Y-98897000D01*
X228543000Y-98897000D01*
X228543000Y-98643000D01*
X228563000Y-98643000D01*
X228563000Y-98623000D01*
X228817000Y-98623000D01*
X228817000Y-98643000D01*
X228837000Y-98643000D01*
X228837000Y-98897000D01*
X228817000Y-98897000D01*
X228817000Y-100090155D01*
X229046890Y-100211476D01*
X229194099Y-100166825D01*
X229456920Y-100041641D01*
X229690269Y-99867588D01*
X229885178Y-99651355D01*
X230034157Y-99401252D01*
X230091772Y-99238832D01*
X230139102Y-99353097D01*
X230273820Y-99554717D01*
X230445283Y-99726180D01*
X230646903Y-99860898D01*
X230870931Y-99953693D01*
X231108757Y-100001000D01*
X231351243Y-100001000D01*
X231589069Y-99953693D01*
X231813097Y-99860898D01*
X232014717Y-99726180D01*
X232186180Y-99554717D01*
X232320898Y-99353097D01*
X232413693Y-99129069D01*
X232461000Y-98891243D01*
X232461000Y-98648757D01*
X232539000Y-98648757D01*
X232539000Y-98891243D01*
X232586307Y-99129069D01*
X232679102Y-99353097D01*
X232813820Y-99554717D01*
X232985283Y-99726180D01*
X233186903Y-99860898D01*
X233410931Y-99953693D01*
X233648757Y-100001000D01*
X233891243Y-100001000D01*
X234129069Y-99953693D01*
X234353097Y-99860898D01*
X234554717Y-99726180D01*
X234726180Y-99554717D01*
X234860898Y-99353097D01*
X234953693Y-99129069D01*
X235001000Y-98891243D01*
X235001000Y-98648757D01*
X235079000Y-98648757D01*
X235079000Y-98891243D01*
X235126307Y-99129069D01*
X235219102Y-99353097D01*
X235353820Y-99554717D01*
X235525283Y-99726180D01*
X235726903Y-99860898D01*
X235950931Y-99953693D01*
X236188757Y-100001000D01*
X236431243Y-100001000D01*
X236669069Y-99953693D01*
X236893097Y-99860898D01*
X237094717Y-99726180D01*
X237266180Y-99554717D01*
X237400898Y-99353097D01*
X237493693Y-99129069D01*
X237541000Y-98891243D01*
X237541000Y-98648757D01*
X237619000Y-98648757D01*
X237619000Y-98891243D01*
X237666307Y-99129069D01*
X237759102Y-99353097D01*
X237893820Y-99554717D01*
X238065283Y-99726180D01*
X238266903Y-99860898D01*
X238490931Y-99953693D01*
X238728757Y-100001000D01*
X238971243Y-100001000D01*
X239209069Y-99953693D01*
X239433097Y-99860898D01*
X239634717Y-99726180D01*
X239806180Y-99554717D01*
X239940898Y-99353097D01*
X240033693Y-99129069D01*
X240081000Y-98891243D01*
X240081000Y-98648757D01*
X240159000Y-98648757D01*
X240159000Y-98891243D01*
X240206307Y-99129069D01*
X240299102Y-99353097D01*
X240433820Y-99554717D01*
X240605283Y-99726180D01*
X240806903Y-99860898D01*
X241030931Y-99953693D01*
X241268757Y-100001000D01*
X241511243Y-100001000D01*
X241749069Y-99953693D01*
X241973097Y-99860898D01*
X242174717Y-99726180D01*
X242346180Y-99554717D01*
X242480898Y-99353097D01*
X242573693Y-99129069D01*
X242621000Y-98891243D01*
X242621000Y-98648757D01*
X242699000Y-98648757D01*
X242699000Y-98891243D01*
X242746307Y-99129069D01*
X242839102Y-99353097D01*
X242973820Y-99554717D01*
X243145283Y-99726180D01*
X243346903Y-99860898D01*
X243570931Y-99953693D01*
X243808757Y-100001000D01*
X244051243Y-100001000D01*
X244289069Y-99953693D01*
X244513097Y-99860898D01*
X244714717Y-99726180D01*
X244886180Y-99554717D01*
X245020898Y-99353097D01*
X245113693Y-99129069D01*
X245161000Y-98891243D01*
X245161000Y-98648757D01*
X245239000Y-98648757D01*
X245239000Y-98891243D01*
X245286307Y-99129069D01*
X245379102Y-99353097D01*
X245513820Y-99554717D01*
X245685283Y-99726180D01*
X245886903Y-99860898D01*
X246110931Y-99953693D01*
X246348757Y-100001000D01*
X246591243Y-100001000D01*
X246829069Y-99953693D01*
X247053097Y-99860898D01*
X247254717Y-99726180D01*
X247426180Y-99554717D01*
X247560898Y-99353097D01*
X247653693Y-99129069D01*
X247701000Y-98891243D01*
X247701000Y-98648757D01*
X247779000Y-98648757D01*
X247779000Y-98891243D01*
X247826307Y-99129069D01*
X247919102Y-99353097D01*
X248053820Y-99554717D01*
X248225283Y-99726180D01*
X248426903Y-99860898D01*
X248650931Y-99953693D01*
X248888757Y-100001000D01*
X249131243Y-100001000D01*
X249369069Y-99953693D01*
X249593097Y-99860898D01*
X249794717Y-99726180D01*
X249966180Y-99554717D01*
X250100898Y-99353097D01*
X250193693Y-99129069D01*
X250241000Y-98891243D01*
X250241000Y-98648757D01*
X250319000Y-98648757D01*
X250319000Y-98891243D01*
X250366307Y-99129069D01*
X250459102Y-99353097D01*
X250593820Y-99554717D01*
X250765283Y-99726180D01*
X250966903Y-99860898D01*
X251190931Y-99953693D01*
X251428757Y-100001000D01*
X251671243Y-100001000D01*
X251909069Y-99953693D01*
X252133097Y-99860898D01*
X252334717Y-99726180D01*
X252506180Y-99554717D01*
X252640898Y-99353097D01*
X252733693Y-99129069D01*
X252781000Y-98891243D01*
X252781000Y-98648757D01*
X252859000Y-98648757D01*
X252859000Y-98891243D01*
X252906307Y-99129069D01*
X252999102Y-99353097D01*
X253133820Y-99554717D01*
X253305283Y-99726180D01*
X253506903Y-99860898D01*
X253730931Y-99953693D01*
X253968757Y-100001000D01*
X254211243Y-100001000D01*
X254449069Y-99953693D01*
X254673097Y-99860898D01*
X254874717Y-99726180D01*
X255046180Y-99554717D01*
X255180898Y-99353097D01*
X255273693Y-99129069D01*
X255321000Y-98891243D01*
X255321000Y-98648757D01*
X255399000Y-98648757D01*
X255399000Y-98891243D01*
X255446307Y-99129069D01*
X255539102Y-99353097D01*
X255673820Y-99554717D01*
X255845283Y-99726180D01*
X256046903Y-99860898D01*
X256270931Y-99953693D01*
X256508757Y-100001000D01*
X256751243Y-100001000D01*
X256989069Y-99953693D01*
X257213097Y-99860898D01*
X257414717Y-99726180D01*
X257586180Y-99554717D01*
X257720898Y-99353097D01*
X257813693Y-99129069D01*
X257861000Y-98891243D01*
X257861000Y-98648757D01*
X257813693Y-98410931D01*
X257720898Y-98186903D01*
X257586180Y-97985283D01*
X257414717Y-97813820D01*
X257213097Y-97679102D01*
X256989069Y-97586307D01*
X256751243Y-97539000D01*
X256508757Y-97539000D01*
X256270931Y-97586307D01*
X256046903Y-97679102D01*
X255845283Y-97813820D01*
X255673820Y-97985283D01*
X255539102Y-98186903D01*
X255446307Y-98410931D01*
X255399000Y-98648757D01*
X255321000Y-98648757D01*
X255273693Y-98410931D01*
X255180898Y-98186903D01*
X255046180Y-97985283D01*
X254874717Y-97813820D01*
X254673097Y-97679102D01*
X254449069Y-97586307D01*
X254211243Y-97539000D01*
X253968757Y-97539000D01*
X253730931Y-97586307D01*
X253506903Y-97679102D01*
X253305283Y-97813820D01*
X253133820Y-97985283D01*
X252999102Y-98186903D01*
X252906307Y-98410931D01*
X252859000Y-98648757D01*
X252781000Y-98648757D01*
X252733693Y-98410931D01*
X252640898Y-98186903D01*
X252506180Y-97985283D01*
X252334717Y-97813820D01*
X252133097Y-97679102D01*
X251909069Y-97586307D01*
X251671243Y-97539000D01*
X251428757Y-97539000D01*
X251190931Y-97586307D01*
X250966903Y-97679102D01*
X250765283Y-97813820D01*
X250593820Y-97985283D01*
X250459102Y-98186903D01*
X250366307Y-98410931D01*
X250319000Y-98648757D01*
X250241000Y-98648757D01*
X250193693Y-98410931D01*
X250100898Y-98186903D01*
X249966180Y-97985283D01*
X249794717Y-97813820D01*
X249593097Y-97679102D01*
X249369069Y-97586307D01*
X249131243Y-97539000D01*
X248888757Y-97539000D01*
X248650931Y-97586307D01*
X248426903Y-97679102D01*
X248225283Y-97813820D01*
X248053820Y-97985283D01*
X247919102Y-98186903D01*
X247826307Y-98410931D01*
X247779000Y-98648757D01*
X247701000Y-98648757D01*
X247653693Y-98410931D01*
X247560898Y-98186903D01*
X247426180Y-97985283D01*
X247254717Y-97813820D01*
X247053097Y-97679102D01*
X246829069Y-97586307D01*
X246591243Y-97539000D01*
X246348757Y-97539000D01*
X246110931Y-97586307D01*
X245886903Y-97679102D01*
X245685283Y-97813820D01*
X245513820Y-97985283D01*
X245379102Y-98186903D01*
X245286307Y-98410931D01*
X245239000Y-98648757D01*
X245161000Y-98648757D01*
X245113693Y-98410931D01*
X245020898Y-98186903D01*
X244886180Y-97985283D01*
X244714717Y-97813820D01*
X244513097Y-97679102D01*
X244289069Y-97586307D01*
X244051243Y-97539000D01*
X243808757Y-97539000D01*
X243570931Y-97586307D01*
X243346903Y-97679102D01*
X243145283Y-97813820D01*
X242973820Y-97985283D01*
X242839102Y-98186903D01*
X242746307Y-98410931D01*
X242699000Y-98648757D01*
X242621000Y-98648757D01*
X242573693Y-98410931D01*
X242480898Y-98186903D01*
X242346180Y-97985283D01*
X242174717Y-97813820D01*
X241973097Y-97679102D01*
X241749069Y-97586307D01*
X241511243Y-97539000D01*
X241268757Y-97539000D01*
X241030931Y-97586307D01*
X240806903Y-97679102D01*
X240605283Y-97813820D01*
X240433820Y-97985283D01*
X240299102Y-98186903D01*
X240206307Y-98410931D01*
X240159000Y-98648757D01*
X240081000Y-98648757D01*
X240033693Y-98410931D01*
X239940898Y-98186903D01*
X239806180Y-97985283D01*
X239634717Y-97813820D01*
X239433097Y-97679102D01*
X239209069Y-97586307D01*
X238971243Y-97539000D01*
X238728757Y-97539000D01*
X238490931Y-97586307D01*
X238266903Y-97679102D01*
X238065283Y-97813820D01*
X237893820Y-97985283D01*
X237759102Y-98186903D01*
X237666307Y-98410931D01*
X237619000Y-98648757D01*
X237541000Y-98648757D01*
X237493693Y-98410931D01*
X237400898Y-98186903D01*
X237266180Y-97985283D01*
X237094717Y-97813820D01*
X236893097Y-97679102D01*
X236669069Y-97586307D01*
X236431243Y-97539000D01*
X236188757Y-97539000D01*
X235950931Y-97586307D01*
X235726903Y-97679102D01*
X235525283Y-97813820D01*
X235353820Y-97985283D01*
X235219102Y-98186903D01*
X235126307Y-98410931D01*
X235079000Y-98648757D01*
X235001000Y-98648757D01*
X234953693Y-98410931D01*
X234860898Y-98186903D01*
X234726180Y-97985283D01*
X234554717Y-97813820D01*
X234353097Y-97679102D01*
X234129069Y-97586307D01*
X233891243Y-97539000D01*
X233648757Y-97539000D01*
X233410931Y-97586307D01*
X233186903Y-97679102D01*
X232985283Y-97813820D01*
X232813820Y-97985283D01*
X232679102Y-98186903D01*
X232586307Y-98410931D01*
X232539000Y-98648757D01*
X232461000Y-98648757D01*
X232413693Y-98410931D01*
X232320898Y-98186903D01*
X232186180Y-97985283D01*
X232014717Y-97813820D01*
X231813097Y-97679102D01*
X231589069Y-97586307D01*
X231351243Y-97539000D01*
X231108757Y-97539000D01*
X230870931Y-97586307D01*
X230646903Y-97679102D01*
X230445283Y-97813820D01*
X230273820Y-97985283D01*
X230139102Y-98186903D01*
X230091772Y-98301168D01*
X230034157Y-98138748D01*
X229885178Y-97888645D01*
X229690269Y-97672412D01*
X229456920Y-97498359D01*
X229194099Y-97373175D01*
X229166846Y-97364909D01*
X229273097Y-97320898D01*
X229474717Y-97186180D01*
X229646180Y-97014717D01*
X229780898Y-96813097D01*
X229873693Y-96589069D01*
X229921000Y-96351243D01*
X229921000Y-96108757D01*
X229999000Y-96108757D01*
X229999000Y-96351243D01*
X230046307Y-96589069D01*
X230139102Y-96813097D01*
X230273820Y-97014717D01*
X230445283Y-97186180D01*
X230646903Y-97320898D01*
X230870931Y-97413693D01*
X231108757Y-97461000D01*
X231351243Y-97461000D01*
X231589069Y-97413693D01*
X231813097Y-97320898D01*
X232014717Y-97186180D01*
X232186180Y-97014717D01*
X232320898Y-96813097D01*
X232413693Y-96589069D01*
X232461000Y-96351243D01*
X232461000Y-96108757D01*
X232539000Y-96108757D01*
X232539000Y-96351243D01*
X232586307Y-96589069D01*
X232679102Y-96813097D01*
X232813820Y-97014717D01*
X232985283Y-97186180D01*
X233186903Y-97320898D01*
X233410931Y-97413693D01*
X233648757Y-97461000D01*
X233891243Y-97461000D01*
X234129069Y-97413693D01*
X234353097Y-97320898D01*
X234554717Y-97186180D01*
X234726180Y-97014717D01*
X234860898Y-96813097D01*
X234953693Y-96589069D01*
X235001000Y-96351243D01*
X235001000Y-96108757D01*
X235079000Y-96108757D01*
X235079000Y-96351243D01*
X235126307Y-96589069D01*
X235219102Y-96813097D01*
X235353820Y-97014717D01*
X235525283Y-97186180D01*
X235726903Y-97320898D01*
X235950931Y-97413693D01*
X236188757Y-97461000D01*
X236431243Y-97461000D01*
X236669069Y-97413693D01*
X236893097Y-97320898D01*
X237094717Y-97186180D01*
X237266180Y-97014717D01*
X237400898Y-96813097D01*
X237493693Y-96589069D01*
X237541000Y-96351243D01*
X237541000Y-96108757D01*
X237619000Y-96108757D01*
X237619000Y-96351243D01*
X237666307Y-96589069D01*
X237759102Y-96813097D01*
X237893820Y-97014717D01*
X238065283Y-97186180D01*
X238266903Y-97320898D01*
X238490931Y-97413693D01*
X238728757Y-97461000D01*
X238971243Y-97461000D01*
X239209069Y-97413693D01*
X239433097Y-97320898D01*
X239634717Y-97186180D01*
X239806180Y-97014717D01*
X239940898Y-96813097D01*
X240033693Y-96589069D01*
X240081000Y-96351243D01*
X240081000Y-96108757D01*
X240159000Y-96108757D01*
X240159000Y-96351243D01*
X240206307Y-96589069D01*
X240299102Y-96813097D01*
X240433820Y-97014717D01*
X240605283Y-97186180D01*
X240806903Y-97320898D01*
X241030931Y-97413693D01*
X241268757Y-97461000D01*
X241511243Y-97461000D01*
X241749069Y-97413693D01*
X241973097Y-97320898D01*
X242174717Y-97186180D01*
X242346180Y-97014717D01*
X242480898Y-96813097D01*
X242573693Y-96589069D01*
X242621000Y-96351243D01*
X242621000Y-96108757D01*
X242699000Y-96108757D01*
X242699000Y-96351243D01*
X242746307Y-96589069D01*
X242839102Y-96813097D01*
X242973820Y-97014717D01*
X243145283Y-97186180D01*
X243346903Y-97320898D01*
X243570931Y-97413693D01*
X243808757Y-97461000D01*
X244051243Y-97461000D01*
X244289069Y-97413693D01*
X244513097Y-97320898D01*
X244714717Y-97186180D01*
X244886180Y-97014717D01*
X245020898Y-96813097D01*
X245113693Y-96589069D01*
X245161000Y-96351243D01*
X245161000Y-96108757D01*
X245239000Y-96108757D01*
X245239000Y-96351243D01*
X245286307Y-96589069D01*
X245379102Y-96813097D01*
X245513820Y-97014717D01*
X245685283Y-97186180D01*
X245886903Y-97320898D01*
X246110931Y-97413693D01*
X246348757Y-97461000D01*
X246591243Y-97461000D01*
X246829069Y-97413693D01*
X247053097Y-97320898D01*
X247254717Y-97186180D01*
X247426180Y-97014717D01*
X247560898Y-96813097D01*
X247653693Y-96589069D01*
X247701000Y-96351243D01*
X247701000Y-96108757D01*
X247779000Y-96108757D01*
X247779000Y-96351243D01*
X247826307Y-96589069D01*
X247919102Y-96813097D01*
X248053820Y-97014717D01*
X248225283Y-97186180D01*
X248426903Y-97320898D01*
X248650931Y-97413693D01*
X248888757Y-97461000D01*
X249131243Y-97461000D01*
X249369069Y-97413693D01*
X249593097Y-97320898D01*
X249794717Y-97186180D01*
X249966180Y-97014717D01*
X250100898Y-96813097D01*
X250193693Y-96589069D01*
X250241000Y-96351243D01*
X250241000Y-96108757D01*
X250319000Y-96108757D01*
X250319000Y-96351243D01*
X250366307Y-96589069D01*
X250459102Y-96813097D01*
X250593820Y-97014717D01*
X250765283Y-97186180D01*
X250966903Y-97320898D01*
X251190931Y-97413693D01*
X251428757Y-97461000D01*
X251671243Y-97461000D01*
X251909069Y-97413693D01*
X252133097Y-97320898D01*
X252334717Y-97186180D01*
X252506180Y-97014717D01*
X252640898Y-96813097D01*
X252733693Y-96589069D01*
X252781000Y-96351243D01*
X252781000Y-96108757D01*
X252859000Y-96108757D01*
X252859000Y-96351243D01*
X252906307Y-96589069D01*
X252999102Y-96813097D01*
X253133820Y-97014717D01*
X253305283Y-97186180D01*
X253506903Y-97320898D01*
X253730931Y-97413693D01*
X253968757Y-97461000D01*
X254211243Y-97461000D01*
X254449069Y-97413693D01*
X254673097Y-97320898D01*
X254874717Y-97186180D01*
X255046180Y-97014717D01*
X255180898Y-96813097D01*
X255273693Y-96589069D01*
X255321000Y-96351243D01*
X255321000Y-96108757D01*
X255399000Y-96108757D01*
X255399000Y-96351243D01*
X255446307Y-96589069D01*
X255539102Y-96813097D01*
X255673820Y-97014717D01*
X255845283Y-97186180D01*
X256046903Y-97320898D01*
X256270931Y-97413693D01*
X256508757Y-97461000D01*
X256751243Y-97461000D01*
X256989069Y-97413693D01*
X257192303Y-97329511D01*
X259769000Y-97329511D01*
X259769000Y-97670489D01*
X259835521Y-98004914D01*
X259966007Y-98319936D01*
X260155444Y-98603448D01*
X260396552Y-98844556D01*
X260680064Y-99033993D01*
X260995086Y-99164479D01*
X261329511Y-99231000D01*
X261670489Y-99231000D01*
X262004914Y-99164479D01*
X262319936Y-99033993D01*
X262603448Y-98844556D01*
X262844556Y-98603448D01*
X263033993Y-98319936D01*
X263164479Y-98004914D01*
X263231000Y-97670489D01*
X263231000Y-97329511D01*
X263164479Y-96995086D01*
X263033993Y-96680064D01*
X262844556Y-96396552D01*
X262603448Y-96155444D01*
X262319936Y-95966007D01*
X262004914Y-95835521D01*
X261670489Y-95769000D01*
X261329511Y-95769000D01*
X260995086Y-95835521D01*
X260680064Y-95966007D01*
X260396552Y-96155444D01*
X260155444Y-96396552D01*
X259966007Y-96680064D01*
X259835521Y-96995086D01*
X259769000Y-97329511D01*
X257192303Y-97329511D01*
X257213097Y-97320898D01*
X257414717Y-97186180D01*
X257586180Y-97014717D01*
X257720898Y-96813097D01*
X257813693Y-96589069D01*
X257861000Y-96351243D01*
X257861000Y-96108757D01*
X257813693Y-95870931D01*
X257720898Y-95646903D01*
X257586180Y-95445283D01*
X257414717Y-95273820D01*
X257213097Y-95139102D01*
X256989069Y-95046307D01*
X256751243Y-94999000D01*
X256508757Y-94999000D01*
X256270931Y-95046307D01*
X256046903Y-95139102D01*
X255845283Y-95273820D01*
X255673820Y-95445283D01*
X255539102Y-95646903D01*
X255446307Y-95870931D01*
X255399000Y-96108757D01*
X255321000Y-96108757D01*
X255273693Y-95870931D01*
X255180898Y-95646903D01*
X255046180Y-95445283D01*
X254874717Y-95273820D01*
X254673097Y-95139102D01*
X254449069Y-95046307D01*
X254211243Y-94999000D01*
X253968757Y-94999000D01*
X253730931Y-95046307D01*
X253506903Y-95139102D01*
X253305283Y-95273820D01*
X253133820Y-95445283D01*
X252999102Y-95646903D01*
X252906307Y-95870931D01*
X252859000Y-96108757D01*
X252781000Y-96108757D01*
X252733693Y-95870931D01*
X252640898Y-95646903D01*
X252506180Y-95445283D01*
X252334717Y-95273820D01*
X252133097Y-95139102D01*
X251909069Y-95046307D01*
X251671243Y-94999000D01*
X251428757Y-94999000D01*
X251190931Y-95046307D01*
X250966903Y-95139102D01*
X250765283Y-95273820D01*
X250593820Y-95445283D01*
X250459102Y-95646903D01*
X250366307Y-95870931D01*
X250319000Y-96108757D01*
X250241000Y-96108757D01*
X250193693Y-95870931D01*
X250100898Y-95646903D01*
X249966180Y-95445283D01*
X249794717Y-95273820D01*
X249593097Y-95139102D01*
X249369069Y-95046307D01*
X249131243Y-94999000D01*
X248888757Y-94999000D01*
X248650931Y-95046307D01*
X248426903Y-95139102D01*
X248225283Y-95273820D01*
X248053820Y-95445283D01*
X247919102Y-95646903D01*
X247826307Y-95870931D01*
X247779000Y-96108757D01*
X247701000Y-96108757D01*
X247653693Y-95870931D01*
X247560898Y-95646903D01*
X247426180Y-95445283D01*
X247254717Y-95273820D01*
X247053097Y-95139102D01*
X246829069Y-95046307D01*
X246591243Y-94999000D01*
X246348757Y-94999000D01*
X246110931Y-95046307D01*
X245886903Y-95139102D01*
X245685283Y-95273820D01*
X245513820Y-95445283D01*
X245379102Y-95646903D01*
X245286307Y-95870931D01*
X245239000Y-96108757D01*
X245161000Y-96108757D01*
X245113693Y-95870931D01*
X245020898Y-95646903D01*
X244886180Y-95445283D01*
X244714717Y-95273820D01*
X244513097Y-95139102D01*
X244289069Y-95046307D01*
X244051243Y-94999000D01*
X243808757Y-94999000D01*
X243570931Y-95046307D01*
X243346903Y-95139102D01*
X243145283Y-95273820D01*
X242973820Y-95445283D01*
X242839102Y-95646903D01*
X242746307Y-95870931D01*
X242699000Y-96108757D01*
X242621000Y-96108757D01*
X242573693Y-95870931D01*
X242480898Y-95646903D01*
X242346180Y-95445283D01*
X242174717Y-95273820D01*
X241973097Y-95139102D01*
X241749069Y-95046307D01*
X241511243Y-94999000D01*
X241268757Y-94999000D01*
X241030931Y-95046307D01*
X240806903Y-95139102D01*
X240605283Y-95273820D01*
X240433820Y-95445283D01*
X240299102Y-95646903D01*
X240206307Y-95870931D01*
X240159000Y-96108757D01*
X240081000Y-96108757D01*
X240033693Y-95870931D01*
X239940898Y-95646903D01*
X239806180Y-95445283D01*
X239634717Y-95273820D01*
X239433097Y-95139102D01*
X239209069Y-95046307D01*
X238971243Y-94999000D01*
X238728757Y-94999000D01*
X238490931Y-95046307D01*
X238266903Y-95139102D01*
X238065283Y-95273820D01*
X237893820Y-95445283D01*
X237759102Y-95646903D01*
X237666307Y-95870931D01*
X237619000Y-96108757D01*
X237541000Y-96108757D01*
X237493693Y-95870931D01*
X237400898Y-95646903D01*
X237266180Y-95445283D01*
X237094717Y-95273820D01*
X236893097Y-95139102D01*
X236669069Y-95046307D01*
X236431243Y-94999000D01*
X236188757Y-94999000D01*
X235950931Y-95046307D01*
X235726903Y-95139102D01*
X235525283Y-95273820D01*
X235353820Y-95445283D01*
X235219102Y-95646903D01*
X235126307Y-95870931D01*
X235079000Y-96108757D01*
X235001000Y-96108757D01*
X234953693Y-95870931D01*
X234860898Y-95646903D01*
X234726180Y-95445283D01*
X234554717Y-95273820D01*
X234353097Y-95139102D01*
X234129069Y-95046307D01*
X233891243Y-94999000D01*
X233648757Y-94999000D01*
X233410931Y-95046307D01*
X233186903Y-95139102D01*
X232985283Y-95273820D01*
X232813820Y-95445283D01*
X232679102Y-95646903D01*
X232586307Y-95870931D01*
X232539000Y-96108757D01*
X232461000Y-96108757D01*
X232413693Y-95870931D01*
X232320898Y-95646903D01*
X232186180Y-95445283D01*
X232014717Y-95273820D01*
X231813097Y-95139102D01*
X231589069Y-95046307D01*
X231351243Y-94999000D01*
X231108757Y-94999000D01*
X230870931Y-95046307D01*
X230646903Y-95139102D01*
X230445283Y-95273820D01*
X230273820Y-95445283D01*
X230139102Y-95646903D01*
X230046307Y-95870931D01*
X229999000Y-96108757D01*
X229921000Y-96108757D01*
X229873693Y-95870931D01*
X229780898Y-95646903D01*
X229646180Y-95445283D01*
X229474717Y-95273820D01*
X229273097Y-95139102D01*
X229049069Y-95046307D01*
X228811243Y-94999000D01*
X228568757Y-94999000D01*
X228330931Y-95046307D01*
X228106903Y-95139102D01*
X227905283Y-95273820D01*
X227733820Y-95445283D01*
X227599102Y-95646903D01*
X227506307Y-95870931D01*
X227459000Y-96108757D01*
X227459000Y-96351243D01*
X227506307Y-96589069D01*
X227599102Y-96813097D01*
X227733820Y-97014717D01*
X227905283Y-97186180D01*
X228106903Y-97320898D01*
X228213154Y-97364909D01*
X228185901Y-97373175D01*
X227923080Y-97498359D01*
X227689731Y-97672412D01*
X227494822Y-97888645D01*
X227345843Y-98138748D01*
X227288228Y-98301168D01*
X227240898Y-98186903D01*
X227106180Y-97985283D01*
X226934717Y-97813820D01*
X226733097Y-97679102D01*
X226509069Y-97586307D01*
X226271243Y-97539000D01*
X226028757Y-97539000D01*
X225790931Y-97586307D01*
X225566903Y-97679102D01*
X225365283Y-97813820D01*
X225193820Y-97985283D01*
X225059102Y-98186903D01*
X224966307Y-98410931D01*
X224919000Y-98648757D01*
X224841000Y-98648757D01*
X224793693Y-98410931D01*
X224700898Y-98186903D01*
X224566180Y-97985283D01*
X224394717Y-97813820D01*
X224193097Y-97679102D01*
X223969069Y-97586307D01*
X223731243Y-97539000D01*
X223488757Y-97539000D01*
X223250931Y-97586307D01*
X223026903Y-97679102D01*
X222825283Y-97813820D01*
X222653820Y-97985283D01*
X222519102Y-98186903D01*
X222426307Y-98410931D01*
X222379000Y-98648757D01*
X222301000Y-98648757D01*
X222253693Y-98410931D01*
X222160898Y-98186903D01*
X222026180Y-97985283D01*
X221854717Y-97813820D01*
X221653097Y-97679102D01*
X221429069Y-97586307D01*
X221191243Y-97539000D01*
X220948757Y-97539000D01*
X220710931Y-97586307D01*
X220486903Y-97679102D01*
X220285283Y-97813820D01*
X220113820Y-97985283D01*
X220081001Y-98034400D01*
X220081001Y-97342634D01*
X220083230Y-97320000D01*
X220081001Y-97297367D01*
X220081001Y-97297360D01*
X220074330Y-97229629D01*
X220047970Y-97142731D01*
X220005163Y-97062644D01*
X219947554Y-96992448D01*
X219929964Y-96978012D01*
X219663119Y-96711167D01*
X219713693Y-96589069D01*
X219761000Y-96351243D01*
X219761000Y-96108757D01*
X219839000Y-96108757D01*
X219839000Y-96351243D01*
X219886307Y-96589069D01*
X219979102Y-96813097D01*
X220113820Y-97014717D01*
X220285283Y-97186180D01*
X220486903Y-97320898D01*
X220710931Y-97413693D01*
X220948757Y-97461000D01*
X221191243Y-97461000D01*
X221429069Y-97413693D01*
X221653097Y-97320898D01*
X221854717Y-97186180D01*
X222026180Y-97014717D01*
X222160898Y-96813097D01*
X222253693Y-96589069D01*
X222301000Y-96351243D01*
X222301000Y-96108757D01*
X222379000Y-96108757D01*
X222379000Y-96351243D01*
X222426307Y-96589069D01*
X222519102Y-96813097D01*
X222653820Y-97014717D01*
X222825283Y-97186180D01*
X223026903Y-97320898D01*
X223250931Y-97413693D01*
X223488757Y-97461000D01*
X223731243Y-97461000D01*
X223969069Y-97413693D01*
X224193097Y-97320898D01*
X224394717Y-97186180D01*
X224566180Y-97014717D01*
X224700898Y-96813097D01*
X224793693Y-96589069D01*
X224841000Y-96351243D01*
X224841000Y-96108757D01*
X224919000Y-96108757D01*
X224919000Y-96351243D01*
X224966307Y-96589069D01*
X225059102Y-96813097D01*
X225193820Y-97014717D01*
X225365283Y-97186180D01*
X225566903Y-97320898D01*
X225790931Y-97413693D01*
X226028757Y-97461000D01*
X226271243Y-97461000D01*
X226509069Y-97413693D01*
X226733097Y-97320898D01*
X226934717Y-97186180D01*
X227106180Y-97014717D01*
X227240898Y-96813097D01*
X227333693Y-96589069D01*
X227381000Y-96351243D01*
X227381000Y-96108757D01*
X227333693Y-95870931D01*
X227240898Y-95646903D01*
X227106180Y-95445283D01*
X226934717Y-95273820D01*
X226733097Y-95139102D01*
X226509069Y-95046307D01*
X226271243Y-94999000D01*
X226028757Y-94999000D01*
X225790931Y-95046307D01*
X225566903Y-95139102D01*
X225365283Y-95273820D01*
X225193820Y-95445283D01*
X225059102Y-95646903D01*
X224966307Y-95870931D01*
X224919000Y-96108757D01*
X224841000Y-96108757D01*
X224793693Y-95870931D01*
X224700898Y-95646903D01*
X224566180Y-95445283D01*
X224394717Y-95273820D01*
X224193097Y-95139102D01*
X223969069Y-95046307D01*
X223731243Y-94999000D01*
X223488757Y-94999000D01*
X223250931Y-95046307D01*
X223026903Y-95139102D01*
X222825283Y-95273820D01*
X222653820Y-95445283D01*
X222519102Y-95646903D01*
X222426307Y-95870931D01*
X222379000Y-96108757D01*
X222301000Y-96108757D01*
X222253693Y-95870931D01*
X222160898Y-95646903D01*
X222026180Y-95445283D01*
X221854717Y-95273820D01*
X221653097Y-95139102D01*
X221429069Y-95046307D01*
X221191243Y-94999000D01*
X220948757Y-94999000D01*
X220710931Y-95046307D01*
X220486903Y-95139102D01*
X220285283Y-95273820D01*
X220113820Y-95445283D01*
X219979102Y-95646903D01*
X219886307Y-95870931D01*
X219839000Y-96108757D01*
X219761000Y-96108757D01*
X219713693Y-95870931D01*
X219620898Y-95646903D01*
X219486180Y-95445283D01*
X219314717Y-95273820D01*
X219113097Y-95139102D01*
X218889069Y-95046307D01*
X218651243Y-94999000D01*
X218408757Y-94999000D01*
X218170931Y-95046307D01*
X217946903Y-95139102D01*
X217745283Y-95273820D01*
X217573820Y-95445283D01*
X217439102Y-95646903D01*
X217346307Y-95870931D01*
X217299000Y-96108757D01*
X217299000Y-96351243D01*
X217346307Y-96589069D01*
X217439102Y-96813097D01*
X217573820Y-97014717D01*
X217745283Y-97186180D01*
X217946903Y-97320898D01*
X218170931Y-97413693D01*
X218408757Y-97461000D01*
X218651243Y-97461000D01*
X218889069Y-97413693D01*
X219011167Y-97363119D01*
X219159002Y-97510954D01*
X219159002Y-97709775D01*
X219113097Y-97679102D01*
X218889069Y-97586307D01*
X218651243Y-97539000D01*
X218408757Y-97539000D01*
X218170931Y-97586307D01*
X217946903Y-97679102D01*
X217745283Y-97813820D01*
X217573820Y-97985283D01*
X217541001Y-98034400D01*
X217541001Y-97342634D01*
X217543230Y-97320000D01*
X217541001Y-97297367D01*
X217541001Y-97297360D01*
X217534330Y-97229629D01*
X217507970Y-97142731D01*
X217465163Y-97062644D01*
X217407554Y-96992448D01*
X217389964Y-96978012D01*
X217123119Y-96711167D01*
X217173693Y-96589069D01*
X217221000Y-96351243D01*
X217221000Y-96108757D01*
X217173693Y-95870931D01*
X217080898Y-95646903D01*
X216946180Y-95445283D01*
X216774717Y-95273820D01*
X216573097Y-95139102D01*
X216349069Y-95046307D01*
X216111243Y-94999000D01*
X215868757Y-94999000D01*
X215630931Y-95046307D01*
X215406903Y-95139102D01*
X215205283Y-95273820D01*
X215033820Y-95445283D01*
X214899102Y-95646903D01*
X214806307Y-95870931D01*
X214759000Y-96108757D01*
X214681000Y-96108757D01*
X214633693Y-95870931D01*
X214540898Y-95646903D01*
X214406180Y-95445283D01*
X214234717Y-95273820D01*
X214033097Y-95139102D01*
X213809069Y-95046307D01*
X213571243Y-94999000D01*
X213328757Y-94999000D01*
X213090931Y-95046307D01*
X212866903Y-95139102D01*
X212665283Y-95273820D01*
X212493820Y-95445283D01*
X212359102Y-95646903D01*
X212266307Y-95870931D01*
X212219000Y-96108757D01*
X212141000Y-96108757D01*
X212093693Y-95870931D01*
X212000898Y-95646903D01*
X211866180Y-95445283D01*
X211694717Y-95273820D01*
X211493097Y-95139102D01*
X211269069Y-95046307D01*
X211031243Y-94999000D01*
X210788757Y-94999000D01*
X210550931Y-95046307D01*
X210326903Y-95139102D01*
X210125283Y-95273820D01*
X209953820Y-95445283D01*
X209819102Y-95646903D01*
X209726307Y-95870931D01*
X209679000Y-96108757D01*
X209601000Y-96108757D01*
X209553693Y-95870931D01*
X209460898Y-95646903D01*
X209326180Y-95445283D01*
X209154717Y-95273820D01*
X208953097Y-95139102D01*
X208729069Y-95046307D01*
X208491243Y-94999000D01*
X208248757Y-94999000D01*
X208010931Y-95046307D01*
X207786903Y-95139102D01*
X207585283Y-95273820D01*
X207413820Y-95445283D01*
X207279102Y-95646903D01*
X207186307Y-95870931D01*
X207139000Y-96108757D01*
X207139000Y-96351243D01*
X207186307Y-96589069D01*
X207279102Y-96813097D01*
X207413820Y-97014717D01*
X207585283Y-97186180D01*
X207730294Y-97283073D01*
X207520000Y-97281928D01*
X207395518Y-97294188D01*
X207275820Y-97330498D01*
X207165506Y-97389463D01*
X207068815Y-97468815D01*
X206989463Y-97565506D01*
X206930498Y-97675820D01*
X206894188Y-97795518D01*
X206881928Y-97920000D01*
X206885000Y-98484250D01*
X207043750Y-98643000D01*
X208243000Y-98643000D01*
X208243000Y-98623000D01*
X208497000Y-98623000D01*
X208497000Y-98643000D01*
X208517000Y-98643000D01*
X208517000Y-98897000D01*
X208497000Y-98897000D01*
X208497000Y-100096250D01*
X208655750Y-100255000D01*
X209220000Y-100258072D01*
X209344482Y-100245812D01*
X209464180Y-100209502D01*
X209574494Y-100150537D01*
X209671185Y-100071185D01*
X209750537Y-99974494D01*
X209809502Y-99864180D01*
X209845812Y-99744482D01*
X209858072Y-99620000D01*
X209856927Y-99409706D01*
X209953820Y-99554717D01*
X210125283Y-99726180D01*
X210326903Y-99860898D01*
X210550931Y-99953693D01*
X210715001Y-99986329D01*
X210715000Y-105486048D01*
X208699049Y-107502000D01*
X207538775Y-107502000D01*
X207531049Y-107476530D01*
X207475456Y-107372523D01*
X207400640Y-107281360D01*
X207309477Y-107206544D01*
X207205470Y-107150951D01*
X207092615Y-107116716D01*
X206975250Y-107105157D01*
X206537750Y-107105157D01*
X206420385Y-107116716D01*
X206307530Y-107150951D01*
X206203523Y-107206544D01*
X206112360Y-107281360D01*
X206037544Y-107372523D01*
X205981951Y-107476530D01*
X205969000Y-107519223D01*
X205956049Y-107476530D01*
X205900456Y-107372523D01*
X205825640Y-107281360D01*
X205734477Y-107206544D01*
X205630470Y-107150951D01*
X205517615Y-107116716D01*
X205400250Y-107105157D01*
X204962750Y-107105157D01*
X204845385Y-107116716D01*
X204732530Y-107150951D01*
X204628523Y-107206544D01*
X204537360Y-107281360D01*
X204462544Y-107372523D01*
X204406951Y-107476530D01*
X204399225Y-107502000D01*
X204168714Y-107502000D01*
X204157477Y-107464956D01*
X204103616Y-107364190D01*
X204031132Y-107275868D01*
X203942810Y-107203384D01*
X203842044Y-107149523D01*
X203732707Y-107116356D01*
X203619000Y-107105157D01*
X203219000Y-107105157D01*
X203105293Y-107116356D01*
X202995956Y-107149523D01*
X202895190Y-107203384D01*
X202806868Y-107275868D01*
X202734384Y-107364190D01*
X202680523Y-107464956D01*
X202647356Y-107574293D01*
X202636157Y-107688000D01*
X202551843Y-107688000D01*
X202540644Y-107574293D01*
X202507477Y-107464956D01*
X202453616Y-107364190D01*
X202381132Y-107275868D01*
X202292810Y-107203384D01*
X202192044Y-107149523D01*
X202098858Y-107121255D01*
X202096553Y-107118447D01*
X202078968Y-107104016D01*
X201961000Y-106986048D01*
X201961000Y-106878942D01*
X201934445Y-106745443D01*
X201882356Y-106619689D01*
X201806734Y-106506513D01*
X201710487Y-106410266D01*
X201597311Y-106334644D01*
X201471557Y-106282555D01*
X201338058Y-106256000D01*
X201201942Y-106256000D01*
X201068443Y-106282555D01*
X200942689Y-106334644D01*
X200829513Y-106410266D01*
X200733266Y-106506513D01*
X200657644Y-106619689D01*
X200605555Y-106745443D01*
X200579000Y-106878942D01*
X200431000Y-106878942D01*
X200431000Y-99620000D01*
X206881928Y-99620000D01*
X206894188Y-99744482D01*
X206930498Y-99864180D01*
X206989463Y-99974494D01*
X207068815Y-100071185D01*
X207165506Y-100150537D01*
X207275820Y-100209502D01*
X207395518Y-100245812D01*
X207520000Y-100258072D01*
X208084250Y-100255000D01*
X208243000Y-100096250D01*
X208243000Y-98897000D01*
X207043750Y-98897000D01*
X206885000Y-99055750D01*
X206881928Y-99620000D01*
X200431000Y-99620000D01*
X200431000Y-97329511D01*
X201769000Y-97329511D01*
X201769000Y-97670489D01*
X201835521Y-98004914D01*
X201966007Y-98319936D01*
X202155444Y-98603448D01*
X202396552Y-98844556D01*
X202680064Y-99033993D01*
X202995086Y-99164479D01*
X203329511Y-99231000D01*
X203670489Y-99231000D01*
X204004914Y-99164479D01*
X204319936Y-99033993D01*
X204603448Y-98844556D01*
X204844556Y-98603448D01*
X205033993Y-98319936D01*
X205164479Y-98004914D01*
X205231000Y-97670489D01*
X205231000Y-97329511D01*
X205164479Y-96995086D01*
X205033993Y-96680064D01*
X204844556Y-96396552D01*
X204603448Y-96155444D01*
X204319936Y-95966007D01*
X204004914Y-95835521D01*
X203670489Y-95769000D01*
X203329511Y-95769000D01*
X202995086Y-95835521D01*
X202680064Y-95966007D01*
X202396552Y-96155444D01*
X202155444Y-96396552D01*
X201966007Y-96680064D01*
X201835521Y-96995086D01*
X201769000Y-97329511D01*
X200431000Y-97329511D01*
X200431000Y-97021080D01*
X200481954Y-96501414D01*
X200626753Y-96021818D01*
X200861948Y-95579480D01*
X201178580Y-95191250D01*
X201564587Y-94871917D01*
X202005274Y-94633639D01*
X202483847Y-94485496D01*
X203002338Y-94431000D01*
X261978920Y-94431000D01*
X262498586Y-94481954D01*
G04 #@! TA.AperFunction,Conductor*
D18*
G36*
X262498586Y-94481954D02*
G01*
X262978182Y-94626753D01*
X263420520Y-94861948D01*
X263808750Y-95178580D01*
X264128083Y-95564587D01*
X264366361Y-96005274D01*
X264514504Y-96483847D01*
X264569001Y-97002348D01*
X264569000Y-146978921D01*
X264518046Y-147498586D01*
X264373247Y-147978185D01*
X264138053Y-148420520D01*
X263821420Y-148808750D01*
X263435413Y-149128083D01*
X262994725Y-149366361D01*
X262516153Y-149514504D01*
X261997661Y-149569000D01*
X203021079Y-149569000D01*
X202501414Y-149518046D01*
X202021815Y-149373247D01*
X201579480Y-149138053D01*
X201191250Y-148821420D01*
X200871917Y-148435413D01*
X200633639Y-147994725D01*
X200485496Y-147516153D01*
X200431000Y-146997661D01*
X200431000Y-146329511D01*
X201769000Y-146329511D01*
X201769000Y-146670489D01*
X201835521Y-147004914D01*
X201966007Y-147319936D01*
X202155444Y-147603448D01*
X202396552Y-147844556D01*
X202680064Y-148033993D01*
X202995086Y-148164479D01*
X203329511Y-148231000D01*
X203670489Y-148231000D01*
X204004914Y-148164479D01*
X204319936Y-148033993D01*
X204603448Y-147844556D01*
X204844556Y-147603448D01*
X205033993Y-147319936D01*
X205164479Y-147004914D01*
X205231000Y-146670489D01*
X205231000Y-146329511D01*
X259769000Y-146329511D01*
X259769000Y-146670489D01*
X259835521Y-147004914D01*
X259966007Y-147319936D01*
X260155444Y-147603448D01*
X260396552Y-147844556D01*
X260680064Y-148033993D01*
X260995086Y-148164479D01*
X261329511Y-148231000D01*
X261670489Y-148231000D01*
X262004914Y-148164479D01*
X262319936Y-148033993D01*
X262603448Y-147844556D01*
X262844556Y-147603448D01*
X263033993Y-147319936D01*
X263164479Y-147004914D01*
X263231000Y-146670489D01*
X263231000Y-146329511D01*
X263164479Y-145995086D01*
X263033993Y-145680064D01*
X262844556Y-145396552D01*
X262603448Y-145155444D01*
X262319936Y-144966007D01*
X262004914Y-144835521D01*
X261670489Y-144769000D01*
X261329511Y-144769000D01*
X260995086Y-144835521D01*
X260680064Y-144966007D01*
X260396552Y-145155444D01*
X260155444Y-145396552D01*
X259966007Y-145680064D01*
X259835521Y-145995086D01*
X259769000Y-146329511D01*
X205231000Y-146329511D01*
X205164479Y-145995086D01*
X205033993Y-145680064D01*
X204844556Y-145396552D01*
X204603448Y-145155444D01*
X204319936Y-144966007D01*
X204004914Y-144835521D01*
X203670489Y-144769000D01*
X203329511Y-144769000D01*
X202995086Y-144835521D01*
X202680064Y-144966007D01*
X202396552Y-145155444D01*
X202155444Y-145396552D01*
X201966007Y-145680064D01*
X201835521Y-145995086D01*
X201769000Y-146329511D01*
X200431000Y-146329511D01*
X200431000Y-119795606D01*
X249165000Y-119795606D01*
X249165000Y-120018394D01*
X249208464Y-120236900D01*
X249293721Y-120442729D01*
X249417495Y-120627970D01*
X249575030Y-120785505D01*
X249760271Y-120909279D01*
X249966100Y-120994536D01*
X250184606Y-121038000D01*
X250407394Y-121038000D01*
X250466665Y-121026210D01*
X254475000Y-121026210D01*
X254475000Y-121327790D01*
X254533835Y-121623576D01*
X254649245Y-121902201D01*
X254816795Y-122152956D01*
X255030044Y-122366205D01*
X255280799Y-122533755D01*
X255559424Y-122649165D01*
X255855210Y-122708000D01*
X256156790Y-122708000D01*
X256452576Y-122649165D01*
X256731201Y-122533755D01*
X256981956Y-122366205D01*
X257195205Y-122152956D01*
X257362755Y-121902201D01*
X257478165Y-121623576D01*
X257537000Y-121327790D01*
X257537000Y-121026210D01*
X257478165Y-120730424D01*
X257362755Y-120451799D01*
X257195205Y-120201044D01*
X256981956Y-119987795D01*
X256731201Y-119820245D01*
X256452576Y-119704835D01*
X256156790Y-119646000D01*
X255855210Y-119646000D01*
X255559424Y-119704835D01*
X255280799Y-119820245D01*
X255030044Y-119987795D01*
X254816795Y-120201044D01*
X254649245Y-120451799D01*
X254533835Y-120730424D01*
X254475000Y-121026210D01*
X250466665Y-121026210D01*
X250625900Y-120994536D01*
X250831729Y-120909279D01*
X251016970Y-120785505D01*
X251174505Y-120627970D01*
X251298279Y-120442729D01*
X251383536Y-120236900D01*
X251427000Y-120018394D01*
X251427000Y-119795606D01*
X251383536Y-119577100D01*
X251298279Y-119371271D01*
X251183456Y-119199426D01*
X257430000Y-119199426D01*
X257430000Y-119594574D01*
X257507090Y-119982129D01*
X257658306Y-120347197D01*
X257877838Y-120675750D01*
X258157250Y-120955162D01*
X258485803Y-121174694D01*
X258850871Y-121325910D01*
X259238426Y-121403000D01*
X259633574Y-121403000D01*
X260021129Y-121325910D01*
X260386197Y-121174694D01*
X260714750Y-120955162D01*
X260994162Y-120675750D01*
X261213694Y-120347197D01*
X261364910Y-119982129D01*
X261442000Y-119594574D01*
X261442000Y-119199426D01*
X261364910Y-118811871D01*
X261213694Y-118446803D01*
X260994162Y-118118250D01*
X260714750Y-117838838D01*
X260386197Y-117619306D01*
X260021129Y-117468090D01*
X259633574Y-117391000D01*
X259238426Y-117391000D01*
X258850871Y-117468090D01*
X258485803Y-117619306D01*
X258157250Y-117838838D01*
X257877838Y-118118250D01*
X257658306Y-118446803D01*
X257507090Y-118811871D01*
X257430000Y-119199426D01*
X251183456Y-119199426D01*
X251174505Y-119186030D01*
X251016970Y-119028495D01*
X250831729Y-118904721D01*
X250625900Y-118819464D01*
X250407394Y-118776000D01*
X250184606Y-118776000D01*
X249966100Y-118819464D01*
X249760271Y-118904721D01*
X249575030Y-119028495D01*
X249417495Y-119186030D01*
X249293721Y-119371271D01*
X249208464Y-119577100D01*
X249165000Y-119795606D01*
X200431000Y-119795606D01*
X200431000Y-111577942D01*
X200579000Y-111577942D01*
X200579000Y-111714058D01*
X200605555Y-111847557D01*
X200657644Y-111973311D01*
X200733266Y-112086487D01*
X200829513Y-112182734D01*
X200942689Y-112258356D01*
X201068443Y-112310445D01*
X201201942Y-112337000D01*
X201338058Y-112337000D01*
X201471557Y-112310445D01*
X201597311Y-112258356D01*
X201710487Y-112182734D01*
X201806734Y-112086487D01*
X201882356Y-111973311D01*
X201934445Y-111847557D01*
X201961000Y-111714058D01*
X201961000Y-111606952D01*
X202078968Y-111488984D01*
X202096553Y-111474553D01*
X202119436Y-111446671D01*
X202154162Y-111404357D01*
X202164660Y-111384717D01*
X202196969Y-111324270D01*
X202200744Y-111311827D01*
X202292810Y-111262616D01*
X202381132Y-111190132D01*
X202453616Y-111101810D01*
X202507477Y-111001044D01*
X202540644Y-110891707D01*
X202551843Y-110778000D01*
X202551843Y-110228000D01*
X202540644Y-110114293D01*
X202507477Y-110004956D01*
X202453616Y-109904190D01*
X202381132Y-109815868D01*
X202292810Y-109743384D01*
X202192044Y-109689523D01*
X202082707Y-109656356D01*
X201969000Y-109645157D01*
X201569000Y-109645157D01*
X201455293Y-109656356D01*
X201345956Y-109689523D01*
X201245190Y-109743384D01*
X201156868Y-109815868D01*
X201084384Y-109904190D01*
X201030523Y-110004956D01*
X200997356Y-110114293D01*
X200986157Y-110228000D01*
X200986157Y-110778000D01*
X200997356Y-110891707D01*
X201029504Y-110997684D01*
X200942689Y-111033644D01*
X200829513Y-111109266D01*
X200733266Y-111205513D01*
X200657644Y-111318689D01*
X200605555Y-111444443D01*
X200579000Y-111577942D01*
X200431000Y-111577942D01*
X200431000Y-106878942D01*
X200579000Y-106878942D01*
X200579000Y-107015058D01*
X200605555Y-107148557D01*
X200657644Y-107274311D01*
X200733266Y-107387487D01*
X200829513Y-107483734D01*
X200942689Y-107559356D01*
X200996627Y-107581698D01*
X200986157Y-107688000D01*
X200986157Y-108238000D01*
X200997356Y-108351707D01*
X201030523Y-108461044D01*
X201084384Y-108561810D01*
X201156868Y-108650132D01*
X201245190Y-108722616D01*
X201345956Y-108776477D01*
X201455293Y-108809644D01*
X201569000Y-108820843D01*
X201969000Y-108820843D01*
X202082707Y-108809644D01*
X202192044Y-108776477D01*
X202292810Y-108722616D01*
X202381132Y-108650132D01*
X202453616Y-108561810D01*
X202507477Y-108461044D01*
X202540644Y-108351707D01*
X202551843Y-108238000D01*
X202551843Y-107688000D01*
X202636157Y-107688000D01*
X202636157Y-108238000D01*
X202647356Y-108351707D01*
X202680523Y-108461044D01*
X202734384Y-108561810D01*
X202806868Y-108650132D01*
X202895190Y-108722616D01*
X202995956Y-108776477D01*
X203105293Y-108809644D01*
X203219000Y-108820843D01*
X203619000Y-108820843D01*
X203732707Y-108809644D01*
X203842044Y-108776477D01*
X203942810Y-108722616D01*
X204031132Y-108650132D01*
X204103616Y-108561810D01*
X204157477Y-108461044D01*
X204168714Y-108424000D01*
X204399225Y-108424000D01*
X204406951Y-108449470D01*
X204462544Y-108553477D01*
X204537360Y-108644640D01*
X204628523Y-108719456D01*
X204732530Y-108775049D01*
X204845385Y-108809284D01*
X204962750Y-108820843D01*
X205400250Y-108820843D01*
X205517615Y-108809284D01*
X205630470Y-108775049D01*
X205734477Y-108719456D01*
X205825640Y-108644640D01*
X205900456Y-108553477D01*
X205956049Y-108449470D01*
X205969000Y-108406777D01*
X205981951Y-108449470D01*
X206037544Y-108553477D01*
X206112360Y-108644640D01*
X206203523Y-108719456D01*
X206307530Y-108775049D01*
X206420385Y-108809284D01*
X206537750Y-108820843D01*
X206975250Y-108820843D01*
X207092615Y-108809284D01*
X207205470Y-108775049D01*
X207309477Y-108719456D01*
X207400640Y-108644640D01*
X207475456Y-108553477D01*
X207531049Y-108449470D01*
X207538775Y-108424000D01*
X208310549Y-108424000D01*
X207089392Y-109645157D01*
X206664750Y-109645157D01*
X206547385Y-109656716D01*
X206434530Y-109690951D01*
X206330523Y-109746544D01*
X206239360Y-109821360D01*
X206164544Y-109912523D01*
X206108951Y-110016530D01*
X206096000Y-110059223D01*
X206083049Y-110016530D01*
X206027456Y-109912523D01*
X205952640Y-109821360D01*
X205861477Y-109746544D01*
X205757470Y-109690951D01*
X205644615Y-109656716D01*
X205527250Y-109645157D01*
X205089750Y-109645157D01*
X204972385Y-109656716D01*
X204859530Y-109690951D01*
X204755523Y-109746544D01*
X204664360Y-109821360D01*
X204589544Y-109912523D01*
X204533951Y-110016530D01*
X204526225Y-110042000D01*
X204168714Y-110042000D01*
X204157477Y-110004956D01*
X204103616Y-109904190D01*
X204031132Y-109815868D01*
X203942810Y-109743384D01*
X203842044Y-109689523D01*
X203732707Y-109656356D01*
X203619000Y-109645157D01*
X203219000Y-109645157D01*
X203105293Y-109656356D01*
X202995956Y-109689523D01*
X202895190Y-109743384D01*
X202806868Y-109815868D01*
X202734384Y-109904190D01*
X202680523Y-110004956D01*
X202647356Y-110114293D01*
X202636157Y-110228000D01*
X202636157Y-110778000D01*
X202647356Y-110891707D01*
X202680523Y-111001044D01*
X202734384Y-111101810D01*
X202806868Y-111190132D01*
X202895190Y-111262616D01*
X202995956Y-111316477D01*
X203105293Y-111349644D01*
X203219000Y-111360843D01*
X203619000Y-111360843D01*
X203732707Y-111349644D01*
X203842044Y-111316477D01*
X203942810Y-111262616D01*
X204031132Y-111190132D01*
X204103616Y-111101810D01*
X204157477Y-111001044D01*
X204168714Y-110964000D01*
X204526225Y-110964000D01*
X204533951Y-110989470D01*
X204589544Y-111093477D01*
X204664360Y-111184640D01*
X204755523Y-111259456D01*
X204859530Y-111315049D01*
X204972385Y-111349284D01*
X205089750Y-111360843D01*
X205527250Y-111360843D01*
X205644615Y-111349284D01*
X205757470Y-111315049D01*
X205861477Y-111259456D01*
X205952640Y-111184640D01*
X206027456Y-111093477D01*
X206083049Y-110989470D01*
X206096000Y-110946777D01*
X206108951Y-110989470D01*
X206164544Y-111093477D01*
X206239360Y-111184640D01*
X206330523Y-111259456D01*
X206434530Y-111315049D01*
X206547385Y-111349284D01*
X206664750Y-111360843D01*
X207102250Y-111360843D01*
X207219615Y-111349284D01*
X207332470Y-111315049D01*
X207436477Y-111259456D01*
X207527640Y-111184640D01*
X207602456Y-111093477D01*
X207658049Y-110989470D01*
X207692284Y-110876615D01*
X207703843Y-110759250D01*
X207703843Y-110334608D01*
X213759965Y-104278487D01*
X213777553Y-104264053D01*
X213835162Y-104193857D01*
X213877969Y-104113770D01*
X213904329Y-104026872D01*
X213911000Y-103959141D01*
X213911000Y-103959135D01*
X213913229Y-103936501D01*
X213911000Y-103913867D01*
X213911000Y-99911472D01*
X214033097Y-99860898D01*
X214234717Y-99726180D01*
X214406180Y-99554717D01*
X214540898Y-99353097D01*
X214633693Y-99129069D01*
X214681000Y-98891243D01*
X214681000Y-98648757D01*
X214633693Y-98410931D01*
X214540898Y-98186903D01*
X214406180Y-97985283D01*
X214234717Y-97813820D01*
X214033097Y-97679102D01*
X213809069Y-97586307D01*
X213571243Y-97539000D01*
X213328757Y-97539000D01*
X213090931Y-97586307D01*
X212866903Y-97679102D01*
X212665283Y-97813820D01*
X212493820Y-97985283D01*
X212359102Y-98186903D01*
X212266307Y-98410931D01*
X212219000Y-98648757D01*
X212219000Y-98891243D01*
X212266307Y-99129069D01*
X212359102Y-99353097D01*
X212493820Y-99554717D01*
X212665283Y-99726180D01*
X212866903Y-99860898D01*
X212989001Y-99911472D01*
X212989000Y-103745548D01*
X211637000Y-105097548D01*
X211637000Y-99764745D01*
X211694717Y-99726180D01*
X211866180Y-99554717D01*
X212000898Y-99353097D01*
X212093693Y-99129069D01*
X212141000Y-98891243D01*
X212141000Y-98648757D01*
X212093693Y-98410931D01*
X212000898Y-98186903D01*
X211866180Y-97985283D01*
X211694717Y-97813820D01*
X211493097Y-97679102D01*
X211269069Y-97586307D01*
X211031243Y-97539000D01*
X210788757Y-97539000D01*
X210550931Y-97586307D01*
X210326903Y-97679102D01*
X210125283Y-97813820D01*
X209953820Y-97985283D01*
X209856927Y-98130294D01*
X209858072Y-97920000D01*
X209845812Y-97795518D01*
X209809502Y-97675820D01*
X209750537Y-97565506D01*
X209671185Y-97468815D01*
X209574494Y-97389463D01*
X209464180Y-97330498D01*
X209344482Y-97294188D01*
X209220000Y-97281928D01*
X209009706Y-97283073D01*
X209154717Y-97186180D01*
X209326180Y-97014717D01*
X209460898Y-96813097D01*
X209553693Y-96589069D01*
X209601000Y-96351243D01*
X209601000Y-96108757D01*
X209679000Y-96108757D01*
X209679000Y-96351243D01*
X209726307Y-96589069D01*
X209819102Y-96813097D01*
X209953820Y-97014717D01*
X210125283Y-97186180D01*
X210326903Y-97320898D01*
X210550931Y-97413693D01*
X210788757Y-97461000D01*
X211031243Y-97461000D01*
X211269069Y-97413693D01*
X211493097Y-97320898D01*
X211694717Y-97186180D01*
X211866180Y-97014717D01*
X212000898Y-96813097D01*
X212093693Y-96589069D01*
X212141000Y-96351243D01*
X212141000Y-96108757D01*
X212219000Y-96108757D01*
X212219000Y-96351243D01*
X212266307Y-96589069D01*
X212359102Y-96813097D01*
X212493820Y-97014717D01*
X212665283Y-97186180D01*
X212866903Y-97320898D01*
X213090931Y-97413693D01*
X213328757Y-97461000D01*
X213571243Y-97461000D01*
X213809069Y-97413693D01*
X214033097Y-97320898D01*
X214234717Y-97186180D01*
X214406180Y-97014717D01*
X214540898Y-96813097D01*
X214633693Y-96589069D01*
X214681000Y-96351243D01*
X214681000Y-96108757D01*
X214759000Y-96108757D01*
X214759000Y-96351243D01*
X214806307Y-96589069D01*
X214899102Y-96813097D01*
X215033820Y-97014717D01*
X215205283Y-97186180D01*
X215406903Y-97320898D01*
X215630931Y-97413693D01*
X215868757Y-97461000D01*
X216111243Y-97461000D01*
X216349069Y-97413693D01*
X216471167Y-97363119D01*
X216619002Y-97510954D01*
X216619002Y-97709775D01*
X216573097Y-97679102D01*
X216349069Y-97586307D01*
X216111243Y-97539000D01*
X215868757Y-97539000D01*
X215630931Y-97586307D01*
X215406903Y-97679102D01*
X215205283Y-97813820D01*
X215033820Y-97985283D01*
X214899102Y-98186903D01*
X214806307Y-98410931D01*
X214759000Y-98648757D01*
X214759000Y-98891243D01*
X214806307Y-99129069D01*
X214899102Y-99353097D01*
X215033820Y-99554717D01*
X215205283Y-99726180D01*
X215406903Y-99860898D01*
X215630931Y-99953693D01*
X215868757Y-100001000D01*
X216111243Y-100001000D01*
X216349069Y-99953693D01*
X216573097Y-99860898D01*
X216774717Y-99726180D01*
X216817873Y-99683024D01*
X232011814Y-114876967D01*
X232026247Y-114894553D01*
X232043831Y-114908984D01*
X232043833Y-114908986D01*
X232058363Y-114920910D01*
X232096443Y-114952162D01*
X232176530Y-114994969D01*
X232263428Y-115021329D01*
X232353800Y-115030230D01*
X232376441Y-115028000D01*
X236030922Y-115028000D01*
X235963644Y-115128689D01*
X235911555Y-115254443D01*
X235885000Y-115387942D01*
X235885000Y-115524058D01*
X235911555Y-115657557D01*
X235963644Y-115783311D01*
X236039266Y-115896487D01*
X236135513Y-115992734D01*
X236248689Y-116068356D01*
X236374443Y-116120445D01*
X236507942Y-116147000D01*
X236615041Y-116147000D01*
X236629447Y-116164553D01*
X236699643Y-116222162D01*
X236779730Y-116264969D01*
X236828789Y-116279851D01*
X236866627Y-116291329D01*
X236875801Y-116292233D01*
X236934359Y-116298000D01*
X236934365Y-116298000D01*
X236956999Y-116300229D01*
X236979633Y-116298000D01*
X237544241Y-116298000D01*
X237598223Y-116363777D01*
X237678968Y-116430043D01*
X237757464Y-116472000D01*
X237678968Y-116513957D01*
X237598223Y-116580223D01*
X237544241Y-116646000D01*
X237106633Y-116646000D01*
X237083999Y-116643771D01*
X237061365Y-116646000D01*
X237061359Y-116646000D01*
X237002801Y-116651767D01*
X236993627Y-116652671D01*
X236966276Y-116660968D01*
X236906730Y-116679031D01*
X236826643Y-116721838D01*
X236756447Y-116779447D01*
X236742041Y-116797000D01*
X236634942Y-116797000D01*
X236501443Y-116823555D01*
X236375689Y-116875644D01*
X236262513Y-116951266D01*
X236166266Y-117047513D01*
X236090644Y-117160689D01*
X236038555Y-117286443D01*
X236012000Y-117419942D01*
X236012000Y-117556058D01*
X236038555Y-117689557D01*
X236090644Y-117815311D01*
X236166266Y-117928487D01*
X236262513Y-118024734D01*
X236375689Y-118100356D01*
X236501443Y-118152445D01*
X236634942Y-118179000D01*
X236771058Y-118179000D01*
X236904557Y-118152445D01*
X237030311Y-118100356D01*
X237143487Y-118024734D01*
X237239734Y-117928487D01*
X237315356Y-117815311D01*
X237367445Y-117689557D01*
X237391625Y-117568000D01*
X237544241Y-117568000D01*
X237598223Y-117633777D01*
X237678968Y-117700043D01*
X237771090Y-117749283D01*
X237871047Y-117779605D01*
X237975000Y-117789843D01*
X239625000Y-117789843D01*
X239728953Y-117779605D01*
X239828910Y-117749283D01*
X239921032Y-117700043D01*
X240001777Y-117633777D01*
X240068043Y-117553032D01*
X240117283Y-117460910D01*
X240147605Y-117360953D01*
X240157843Y-117257000D01*
X240157843Y-116957000D01*
X240147605Y-116853047D01*
X240117283Y-116753090D01*
X240068043Y-116660968D01*
X240001777Y-116580223D01*
X239921032Y-116513957D01*
X239842536Y-116472000D01*
X239921032Y-116430043D01*
X240001777Y-116363777D01*
X240068043Y-116283032D01*
X240117283Y-116190910D01*
X240147605Y-116090953D01*
X240157843Y-115987000D01*
X240157843Y-115687000D01*
X240147605Y-115583047D01*
X240117283Y-115483090D01*
X240068043Y-115390968D01*
X240001777Y-115310223D01*
X239921032Y-115243957D01*
X239842536Y-115202000D01*
X239921032Y-115160043D01*
X240001777Y-115093777D01*
X240068043Y-115013032D01*
X240117283Y-114920910D01*
X240147605Y-114820953D01*
X240157843Y-114717000D01*
X240157843Y-114417000D01*
X240147605Y-114313047D01*
X240117283Y-114213090D01*
X240068043Y-114120968D01*
X240001777Y-114040223D01*
X239921032Y-113973957D01*
X239828910Y-113924717D01*
X239728953Y-113894395D01*
X239625000Y-113884157D01*
X237975000Y-113884157D01*
X237871047Y-113894395D01*
X237771090Y-113924717D01*
X237678968Y-113973957D01*
X237598223Y-114040223D01*
X237544241Y-114106000D01*
X232544753Y-114106000D01*
X218439751Y-100001000D01*
X218651243Y-100001000D01*
X218889069Y-99953693D01*
X219113097Y-99860898D01*
X219314717Y-99726180D01*
X219486180Y-99554717D01*
X219497630Y-99537581D01*
X231027016Y-111066969D01*
X231041447Y-111084553D01*
X231059031Y-111098984D01*
X231059033Y-111098986D01*
X231073563Y-111110910D01*
X231111643Y-111142162D01*
X231191730Y-111184969D01*
X231270950Y-111209000D01*
X231278628Y-111211329D01*
X231369000Y-111220230D01*
X231391641Y-111218000D01*
X236335697Y-111218000D01*
X236247443Y-111235555D01*
X236121689Y-111287644D01*
X236008513Y-111363266D01*
X235912266Y-111459513D01*
X235836644Y-111572689D01*
X235784555Y-111698443D01*
X235758000Y-111831942D01*
X235758000Y-111968058D01*
X235784555Y-112101557D01*
X235836644Y-112227311D01*
X235912266Y-112340487D01*
X236008513Y-112436734D01*
X236121689Y-112512356D01*
X236247443Y-112564445D01*
X236380942Y-112591000D01*
X236517058Y-112591000D01*
X236650557Y-112564445D01*
X236776311Y-112512356D01*
X236812762Y-112488000D01*
X237544241Y-112488000D01*
X237598223Y-112553777D01*
X237678968Y-112620043D01*
X237771090Y-112669283D01*
X237871047Y-112699605D01*
X237975000Y-112709843D01*
X239625000Y-112709843D01*
X239728953Y-112699605D01*
X239828910Y-112669283D01*
X239921032Y-112620043D01*
X240001777Y-112553777D01*
X240068043Y-112473032D01*
X240117283Y-112380910D01*
X240147605Y-112280953D01*
X240157843Y-112177000D01*
X240157843Y-111877000D01*
X242392157Y-111877000D01*
X242392157Y-112177000D01*
X242402395Y-112280953D01*
X242432717Y-112380910D01*
X242481957Y-112473032D01*
X242548223Y-112553777D01*
X242628968Y-112620043D01*
X242707464Y-112662000D01*
X242628968Y-112703957D01*
X242548223Y-112770223D01*
X242481957Y-112850968D01*
X242432717Y-112943090D01*
X242402395Y-113043047D01*
X242392157Y-113147000D01*
X242392157Y-113447000D01*
X242402395Y-113550953D01*
X242432717Y-113650910D01*
X242481957Y-113743032D01*
X242548223Y-113823777D01*
X242628968Y-113890043D01*
X242707464Y-113932000D01*
X242628968Y-113973957D01*
X242548223Y-114040223D01*
X242481957Y-114120968D01*
X242432717Y-114213090D01*
X242402395Y-114313047D01*
X242392157Y-114417000D01*
X242392157Y-114717000D01*
X242402395Y-114820953D01*
X242432717Y-114920910D01*
X242481957Y-115013032D01*
X242548223Y-115093777D01*
X242628968Y-115160043D01*
X242707464Y-115202000D01*
X242628968Y-115243957D01*
X242548223Y-115310223D01*
X242481957Y-115390968D01*
X242432717Y-115483090D01*
X242402395Y-115583047D01*
X242392157Y-115687000D01*
X242392157Y-115987000D01*
X242402395Y-116090953D01*
X242432717Y-116190910D01*
X242481957Y-116283032D01*
X242548223Y-116363777D01*
X242628968Y-116430043D01*
X242707464Y-116472000D01*
X242628968Y-116513957D01*
X242548223Y-116580223D01*
X242481957Y-116660968D01*
X242432717Y-116753090D01*
X242402395Y-116853047D01*
X242392157Y-116957000D01*
X242392157Y-117257000D01*
X242402395Y-117360953D01*
X242432717Y-117460910D01*
X242481957Y-117553032D01*
X242548223Y-117633777D01*
X242628968Y-117700043D01*
X242721090Y-117749283D01*
X242821047Y-117779605D01*
X242925000Y-117789843D01*
X244575000Y-117789843D01*
X244678953Y-117779605D01*
X244778910Y-117749283D01*
X244871032Y-117700043D01*
X244951777Y-117633777D01*
X245018043Y-117553032D01*
X245043392Y-117505606D01*
X249165000Y-117505606D01*
X249165000Y-117728394D01*
X249208464Y-117946900D01*
X249293721Y-118152729D01*
X249417495Y-118337970D01*
X249575030Y-118495505D01*
X249760271Y-118619279D01*
X249966100Y-118704536D01*
X250184606Y-118748000D01*
X250407394Y-118748000D01*
X250625900Y-118704536D01*
X250831729Y-118619279D01*
X251016970Y-118495505D01*
X251174505Y-118337970D01*
X251298279Y-118152729D01*
X251383536Y-117946900D01*
X251427000Y-117728394D01*
X251427000Y-117505606D01*
X251383536Y-117287100D01*
X251298279Y-117081271D01*
X251174505Y-116896030D01*
X251016970Y-116738495D01*
X250831729Y-116614721D01*
X250625900Y-116529464D01*
X250407394Y-116486000D01*
X250184606Y-116486000D01*
X249966100Y-116529464D01*
X249760271Y-116614721D01*
X249575030Y-116738495D01*
X249417495Y-116896030D01*
X249293721Y-117081271D01*
X249208464Y-117287100D01*
X249165000Y-117505606D01*
X245043392Y-117505606D01*
X245067283Y-117460910D01*
X245097605Y-117360953D01*
X245107843Y-117257000D01*
X245107843Y-116957000D01*
X245097605Y-116853047D01*
X245067283Y-116753090D01*
X245018043Y-116660968D01*
X244951777Y-116580223D01*
X244871032Y-116513957D01*
X244792536Y-116472000D01*
X244871032Y-116430043D01*
X244951777Y-116363777D01*
X245005759Y-116298000D01*
X248999367Y-116298000D01*
X249022000Y-116300229D01*
X249044633Y-116298000D01*
X249044641Y-116298000D01*
X249112372Y-116291329D01*
X249199270Y-116264969D01*
X249279357Y-116222162D01*
X249349553Y-116164553D01*
X249363993Y-116146958D01*
X250482952Y-115028000D01*
X254082767Y-115028000D01*
X254113721Y-115102729D01*
X254237495Y-115287970D01*
X254395030Y-115445505D01*
X254580271Y-115569279D01*
X254613396Y-115583000D01*
X254580271Y-115596721D01*
X254395030Y-115720495D01*
X254237495Y-115878030D01*
X254113721Y-116063271D01*
X254028464Y-116269100D01*
X253985000Y-116487606D01*
X253985000Y-116710394D01*
X254028464Y-116928900D01*
X254113721Y-117134729D01*
X254237495Y-117319970D01*
X254395030Y-117477505D01*
X254580271Y-117601279D01*
X254786100Y-117686536D01*
X255004606Y-117730000D01*
X255227394Y-117730000D01*
X255445900Y-117686536D01*
X255651729Y-117601279D01*
X255836970Y-117477505D01*
X255994505Y-117319970D01*
X256118279Y-117134729D01*
X256203536Y-116928900D01*
X256247000Y-116710394D01*
X256247000Y-116509594D01*
X256360271Y-116585279D01*
X256566100Y-116670536D01*
X256784606Y-116714000D01*
X257007394Y-116714000D01*
X257225900Y-116670536D01*
X257431729Y-116585279D01*
X257616970Y-116461505D01*
X257774505Y-116303970D01*
X257898279Y-116118729D01*
X257983536Y-115912900D01*
X258027000Y-115694394D01*
X258027000Y-115471606D01*
X257983536Y-115253100D01*
X257898279Y-115047271D01*
X257774505Y-114862030D01*
X257616970Y-114704495D01*
X257431729Y-114580721D01*
X257398604Y-114567000D01*
X257431729Y-114553279D01*
X257616970Y-114429505D01*
X257774505Y-114271970D01*
X257898279Y-114086729D01*
X257983536Y-113880900D01*
X258027000Y-113662394D01*
X258027000Y-113439606D01*
X257983536Y-113221100D01*
X257898279Y-113015271D01*
X257774505Y-112830030D01*
X257616970Y-112672495D01*
X257431729Y-112548721D01*
X257398604Y-112535000D01*
X257431729Y-112521279D01*
X257616970Y-112397505D01*
X257774505Y-112239970D01*
X257898279Y-112054729D01*
X257983536Y-111848900D01*
X258027000Y-111630394D01*
X258027000Y-111407606D01*
X257983536Y-111189100D01*
X257898279Y-110983271D01*
X257774505Y-110798030D01*
X257616970Y-110640495D01*
X257586062Y-110619843D01*
X257646000Y-110619843D01*
X257720689Y-110612487D01*
X257792508Y-110590701D01*
X257858696Y-110555322D01*
X257916711Y-110507711D01*
X257964322Y-110449696D01*
X257999701Y-110383508D01*
X258021487Y-110311689D01*
X258028843Y-110237000D01*
X258028843Y-108737000D01*
X258021487Y-108662311D01*
X257999701Y-108590492D01*
X257964322Y-108524304D01*
X257916711Y-108466289D01*
X257858696Y-108418678D01*
X257792508Y-108383299D01*
X257720689Y-108361513D01*
X257646000Y-108354157D01*
X256146000Y-108354157D01*
X256071311Y-108361513D01*
X255999492Y-108383299D01*
X255933304Y-108418678D01*
X255875289Y-108466289D01*
X255827678Y-108524304D01*
X255792299Y-108590492D01*
X255770513Y-108662311D01*
X255763157Y-108737000D01*
X255763157Y-109026000D01*
X252092641Y-109026000D01*
X252070000Y-109023770D01*
X252047359Y-109026000D01*
X251979628Y-109032671D01*
X251892730Y-109059031D01*
X251812643Y-109101838D01*
X251774563Y-109133090D01*
X251742447Y-109159447D01*
X251728016Y-109177031D01*
X249465049Y-111440000D01*
X246894189Y-111440000D01*
X246860616Y-111377190D01*
X246788132Y-111288868D01*
X246699810Y-111216384D01*
X246599044Y-111162523D01*
X246489707Y-111129356D01*
X246376000Y-111118157D01*
X245826000Y-111118157D01*
X245712293Y-111129356D01*
X245602956Y-111162523D01*
X245502190Y-111216384D01*
X245413868Y-111288868D01*
X245341384Y-111377190D01*
X245287523Y-111477956D01*
X245260815Y-111566000D01*
X245005759Y-111566000D01*
X244951777Y-111500223D01*
X244871032Y-111433957D01*
X244778910Y-111384717D01*
X244678953Y-111354395D01*
X244575000Y-111344157D01*
X242925000Y-111344157D01*
X242821047Y-111354395D01*
X242721090Y-111384717D01*
X242628968Y-111433957D01*
X242548223Y-111500223D01*
X242481957Y-111580968D01*
X242432717Y-111673090D01*
X242402395Y-111773047D01*
X242392157Y-111877000D01*
X240157843Y-111877000D01*
X240147605Y-111773047D01*
X240117283Y-111673090D01*
X240068043Y-111580968D01*
X240001777Y-111500223D01*
X239921032Y-111433957D01*
X239842536Y-111392000D01*
X239921032Y-111350043D01*
X240001777Y-111283777D01*
X240068043Y-111203032D01*
X240117283Y-111110910D01*
X240147605Y-111010953D01*
X240157843Y-110907000D01*
X240157843Y-110607000D01*
X240147605Y-110503047D01*
X240117283Y-110403090D01*
X240068043Y-110310968D01*
X240001777Y-110230223D01*
X239921032Y-110163957D01*
X239842536Y-110122000D01*
X239921032Y-110080043D01*
X240001777Y-110013777D01*
X240068043Y-109933032D01*
X240117283Y-109840910D01*
X240147605Y-109740953D01*
X240157843Y-109637000D01*
X240157843Y-109337000D01*
X240147605Y-109233047D01*
X240117283Y-109133090D01*
X240068043Y-109040968D01*
X240001777Y-108960223D01*
X239921032Y-108893957D01*
X239828910Y-108844717D01*
X239728953Y-108814395D01*
X239625000Y-108804157D01*
X237975000Y-108804157D01*
X237871047Y-108814395D01*
X237771090Y-108844717D01*
X237678968Y-108893957D01*
X237598223Y-108960223D01*
X237531957Y-109040968D01*
X237482717Y-109133090D01*
X237452395Y-109233047D01*
X237442157Y-109337000D01*
X237442157Y-109637000D01*
X237452395Y-109740953D01*
X237482717Y-109840910D01*
X237531957Y-109933032D01*
X237598223Y-110013777D01*
X237678968Y-110080043D01*
X237757464Y-110122000D01*
X237678968Y-110163957D01*
X237598223Y-110230223D01*
X237544241Y-110296000D01*
X231559953Y-110296000D01*
X229539895Y-108275942D01*
X244394000Y-108275942D01*
X244394000Y-108412058D01*
X244420555Y-108545557D01*
X244472644Y-108671311D01*
X244548266Y-108784487D01*
X244644513Y-108880734D01*
X244757689Y-108956356D01*
X244883443Y-109008445D01*
X245016942Y-109035000D01*
X245153058Y-109035000D01*
X245194308Y-109026795D01*
X245235627Y-109039329D01*
X245244801Y-109040233D01*
X245290564Y-109044740D01*
X245345597Y-109147699D01*
X245421190Y-109239810D01*
X245513301Y-109315403D01*
X245618389Y-109371574D01*
X245732416Y-109406163D01*
X245851000Y-109417843D01*
X246351000Y-109417843D01*
X246469584Y-109406163D01*
X246583611Y-109371574D01*
X246688699Y-109315403D01*
X246780810Y-109239810D01*
X246856403Y-109147699D01*
X246912574Y-109042611D01*
X246947163Y-108928584D01*
X246958843Y-108810000D01*
X246958843Y-108365606D01*
X249165000Y-108365606D01*
X249165000Y-108588394D01*
X249208464Y-108806900D01*
X249293721Y-109012729D01*
X249417495Y-109197970D01*
X249575030Y-109355505D01*
X249760271Y-109479279D01*
X249966100Y-109564536D01*
X250184606Y-109608000D01*
X250407394Y-109608000D01*
X250625900Y-109564536D01*
X250831729Y-109479279D01*
X251016970Y-109355505D01*
X251174505Y-109197970D01*
X251298279Y-109012729D01*
X251383536Y-108806900D01*
X251427000Y-108588394D01*
X251427000Y-108365606D01*
X251383536Y-108147100D01*
X251298279Y-107941271D01*
X251174505Y-107756030D01*
X251016970Y-107598495D01*
X250831729Y-107474721D01*
X250625900Y-107389464D01*
X250407394Y-107346000D01*
X250184606Y-107346000D01*
X249966100Y-107389464D01*
X249760271Y-107474721D01*
X249575030Y-107598495D01*
X249417495Y-107756030D01*
X249293721Y-107941271D01*
X249208464Y-108147100D01*
X249165000Y-108365606D01*
X246958843Y-108365606D01*
X246958843Y-108360000D01*
X246947163Y-108241416D01*
X246912574Y-108127389D01*
X246856403Y-108022301D01*
X246780810Y-107930190D01*
X246688699Y-107854597D01*
X246583611Y-107798426D01*
X246469584Y-107763837D01*
X246351000Y-107752157D01*
X245851000Y-107752157D01*
X245732416Y-107763837D01*
X245618389Y-107798426D01*
X245552087Y-107833866D01*
X245525487Y-107807266D01*
X245412311Y-107731644D01*
X245286557Y-107679555D01*
X245153058Y-107653000D01*
X245016942Y-107653000D01*
X244883443Y-107679555D01*
X244757689Y-107731644D01*
X244644513Y-107807266D01*
X244548266Y-107903513D01*
X244472644Y-108016689D01*
X244420555Y-108142443D01*
X244394000Y-108275942D01*
X229539895Y-108275942D01*
X227339559Y-106075606D01*
X249165000Y-106075606D01*
X249165000Y-106298394D01*
X249208464Y-106516900D01*
X249293721Y-106722729D01*
X249417495Y-106907970D01*
X249575030Y-107065505D01*
X249760271Y-107189279D01*
X249966100Y-107274536D01*
X250184606Y-107318000D01*
X250407394Y-107318000D01*
X250625900Y-107274536D01*
X250831729Y-107189279D01*
X251016970Y-107065505D01*
X251174505Y-106907970D01*
X251298279Y-106722729D01*
X251383536Y-106516900D01*
X251387011Y-106499426D01*
X257430000Y-106499426D01*
X257430000Y-106894574D01*
X257507090Y-107282129D01*
X257658306Y-107647197D01*
X257877838Y-107975750D01*
X258157250Y-108255162D01*
X258485803Y-108474694D01*
X258850871Y-108625910D01*
X259238426Y-108703000D01*
X259633574Y-108703000D01*
X260021129Y-108625910D01*
X260386197Y-108474694D01*
X260714750Y-108255162D01*
X260994162Y-107975750D01*
X261213694Y-107647197D01*
X261364910Y-107282129D01*
X261442000Y-106894574D01*
X261442000Y-106499426D01*
X261364910Y-106111871D01*
X261213694Y-105746803D01*
X260994162Y-105418250D01*
X260714750Y-105138838D01*
X260386197Y-104919306D01*
X260021129Y-104768090D01*
X259633574Y-104691000D01*
X259238426Y-104691000D01*
X258850871Y-104768090D01*
X258485803Y-104919306D01*
X258157250Y-105138838D01*
X257877838Y-105418250D01*
X257658306Y-105746803D01*
X257507090Y-106111871D01*
X257430000Y-106499426D01*
X251387011Y-106499426D01*
X251427000Y-106298394D01*
X251427000Y-106075606D01*
X251383536Y-105857100D01*
X251298279Y-105651271D01*
X251174505Y-105466030D01*
X251016970Y-105308495D01*
X250831729Y-105184721D01*
X250625900Y-105099464D01*
X250407394Y-105056000D01*
X250184606Y-105056000D01*
X249966100Y-105099464D01*
X249760271Y-105184721D01*
X249575030Y-105308495D01*
X249417495Y-105466030D01*
X249293721Y-105651271D01*
X249208464Y-105857100D01*
X249165000Y-106075606D01*
X227339559Y-106075606D01*
X226030163Y-104766210D01*
X254475000Y-104766210D01*
X254475000Y-105067790D01*
X254533835Y-105363576D01*
X254649245Y-105642201D01*
X254816795Y-105892956D01*
X255030044Y-106106205D01*
X255280799Y-106273755D01*
X255559424Y-106389165D01*
X255855210Y-106448000D01*
X256156790Y-106448000D01*
X256452576Y-106389165D01*
X256731201Y-106273755D01*
X256981956Y-106106205D01*
X257195205Y-105892956D01*
X257362755Y-105642201D01*
X257478165Y-105363576D01*
X257537000Y-105067790D01*
X257537000Y-104766210D01*
X257478165Y-104470424D01*
X257362755Y-104191799D01*
X257195205Y-103941044D01*
X256981956Y-103727795D01*
X256731201Y-103560245D01*
X256452576Y-103444835D01*
X256156790Y-103386000D01*
X255855210Y-103386000D01*
X255559424Y-103444835D01*
X255280799Y-103560245D01*
X255030044Y-103727795D01*
X254816795Y-103941044D01*
X254649245Y-104191799D01*
X254533835Y-104470424D01*
X254475000Y-104766210D01*
X226030163Y-104766210D01*
X221252722Y-99988771D01*
X221429069Y-99953693D01*
X221653097Y-99860898D01*
X221854717Y-99726180D01*
X222026180Y-99554717D01*
X222160898Y-99353097D01*
X222253693Y-99129069D01*
X222301000Y-98891243D01*
X222301000Y-98648757D01*
X222379000Y-98648757D01*
X222379000Y-98891243D01*
X222426307Y-99129069D01*
X222519102Y-99353097D01*
X222653820Y-99554717D01*
X222825283Y-99726180D01*
X223026903Y-99860898D01*
X223250931Y-99953693D01*
X223488757Y-100001000D01*
X223731243Y-100001000D01*
X223969069Y-99953693D01*
X224193097Y-99860898D01*
X224394717Y-99726180D01*
X224566180Y-99554717D01*
X224700898Y-99353097D01*
X224793693Y-99129069D01*
X224841000Y-98891243D01*
X224841000Y-98648757D01*
X224919000Y-98648757D01*
X224919000Y-98891243D01*
X224966307Y-99129069D01*
X225059102Y-99353097D01*
X225193820Y-99554717D01*
X225365283Y-99726180D01*
X225566903Y-99860898D01*
X225790931Y-99953693D01*
X226028757Y-100001000D01*
X226271243Y-100001000D01*
X226509069Y-99953693D01*
X226733097Y-99860898D01*
X226934717Y-99726180D01*
X227106180Y-99554717D01*
X227240898Y-99353097D01*
X227288228Y-99238832D01*
X227345843Y-99401252D01*
X227494822Y-99651355D01*
X227689731Y-99867588D01*
X227923080Y-100041641D01*
X228185901Y-100166825D01*
X228333110Y-100211476D01*
X228563000Y-100090155D01*
X228563000Y-98897000D01*
X228543000Y-98897000D01*
X228543000Y-98643000D01*
X228563000Y-98643000D01*
X228563000Y-98623000D01*
X228817000Y-98623000D01*
X228817000Y-98643000D01*
X228837000Y-98643000D01*
X228837000Y-98897000D01*
X228817000Y-98897000D01*
X228817000Y-100090155D01*
X229046890Y-100211476D01*
X229194099Y-100166825D01*
X229456920Y-100041641D01*
X229690269Y-99867588D01*
X229885178Y-99651355D01*
X230034157Y-99401252D01*
X230091772Y-99238832D01*
X230139102Y-99353097D01*
X230273820Y-99554717D01*
X230445283Y-99726180D01*
X230646903Y-99860898D01*
X230870931Y-99953693D01*
X231108757Y-100001000D01*
X231351243Y-100001000D01*
X231589069Y-99953693D01*
X231813097Y-99860898D01*
X232014717Y-99726180D01*
X232186180Y-99554717D01*
X232320898Y-99353097D01*
X232413693Y-99129069D01*
X232461000Y-98891243D01*
X232461000Y-98648757D01*
X232539000Y-98648757D01*
X232539000Y-98891243D01*
X232586307Y-99129069D01*
X232679102Y-99353097D01*
X232813820Y-99554717D01*
X232985283Y-99726180D01*
X233186903Y-99860898D01*
X233410931Y-99953693D01*
X233648757Y-100001000D01*
X233891243Y-100001000D01*
X234129069Y-99953693D01*
X234353097Y-99860898D01*
X234554717Y-99726180D01*
X234726180Y-99554717D01*
X234860898Y-99353097D01*
X234953693Y-99129069D01*
X235001000Y-98891243D01*
X235001000Y-98648757D01*
X235079000Y-98648757D01*
X235079000Y-98891243D01*
X235126307Y-99129069D01*
X235219102Y-99353097D01*
X235353820Y-99554717D01*
X235525283Y-99726180D01*
X235726903Y-99860898D01*
X235950931Y-99953693D01*
X236188757Y-100001000D01*
X236431243Y-100001000D01*
X236669069Y-99953693D01*
X236893097Y-99860898D01*
X237094717Y-99726180D01*
X237266180Y-99554717D01*
X237400898Y-99353097D01*
X237493693Y-99129069D01*
X237541000Y-98891243D01*
X237541000Y-98648757D01*
X237619000Y-98648757D01*
X237619000Y-98891243D01*
X237666307Y-99129069D01*
X237759102Y-99353097D01*
X237893820Y-99554717D01*
X238065283Y-99726180D01*
X238266903Y-99860898D01*
X238490931Y-99953693D01*
X238728757Y-100001000D01*
X238971243Y-100001000D01*
X239209069Y-99953693D01*
X239433097Y-99860898D01*
X239634717Y-99726180D01*
X239806180Y-99554717D01*
X239940898Y-99353097D01*
X240033693Y-99129069D01*
X240081000Y-98891243D01*
X240081000Y-98648757D01*
X240159000Y-98648757D01*
X240159000Y-98891243D01*
X240206307Y-99129069D01*
X240299102Y-99353097D01*
X240433820Y-99554717D01*
X240605283Y-99726180D01*
X240806903Y-99860898D01*
X241030931Y-99953693D01*
X241268757Y-100001000D01*
X241511243Y-100001000D01*
X241749069Y-99953693D01*
X241973097Y-99860898D01*
X242174717Y-99726180D01*
X242346180Y-99554717D01*
X242480898Y-99353097D01*
X242573693Y-99129069D01*
X242621000Y-98891243D01*
X242621000Y-98648757D01*
X242699000Y-98648757D01*
X242699000Y-98891243D01*
X242746307Y-99129069D01*
X242839102Y-99353097D01*
X242973820Y-99554717D01*
X243145283Y-99726180D01*
X243346903Y-99860898D01*
X243570931Y-99953693D01*
X243808757Y-100001000D01*
X244051243Y-100001000D01*
X244289069Y-99953693D01*
X244513097Y-99860898D01*
X244714717Y-99726180D01*
X244886180Y-99554717D01*
X245020898Y-99353097D01*
X245113693Y-99129069D01*
X245161000Y-98891243D01*
X245161000Y-98648757D01*
X245239000Y-98648757D01*
X245239000Y-98891243D01*
X245286307Y-99129069D01*
X245379102Y-99353097D01*
X245513820Y-99554717D01*
X245685283Y-99726180D01*
X245886903Y-99860898D01*
X246110931Y-99953693D01*
X246348757Y-100001000D01*
X246591243Y-100001000D01*
X246829069Y-99953693D01*
X247053097Y-99860898D01*
X247254717Y-99726180D01*
X247426180Y-99554717D01*
X247560898Y-99353097D01*
X247653693Y-99129069D01*
X247701000Y-98891243D01*
X247701000Y-98648757D01*
X247779000Y-98648757D01*
X247779000Y-98891243D01*
X247826307Y-99129069D01*
X247919102Y-99353097D01*
X248053820Y-99554717D01*
X248225283Y-99726180D01*
X248426903Y-99860898D01*
X248650931Y-99953693D01*
X248888757Y-100001000D01*
X249131243Y-100001000D01*
X249369069Y-99953693D01*
X249593097Y-99860898D01*
X249794717Y-99726180D01*
X249966180Y-99554717D01*
X250100898Y-99353097D01*
X250193693Y-99129069D01*
X250241000Y-98891243D01*
X250241000Y-98648757D01*
X250319000Y-98648757D01*
X250319000Y-98891243D01*
X250366307Y-99129069D01*
X250459102Y-99353097D01*
X250593820Y-99554717D01*
X250765283Y-99726180D01*
X250966903Y-99860898D01*
X251190931Y-99953693D01*
X251428757Y-100001000D01*
X251671243Y-100001000D01*
X251909069Y-99953693D01*
X252133097Y-99860898D01*
X252334717Y-99726180D01*
X252506180Y-99554717D01*
X252640898Y-99353097D01*
X252733693Y-99129069D01*
X252781000Y-98891243D01*
X252781000Y-98648757D01*
X252859000Y-98648757D01*
X252859000Y-98891243D01*
X252906307Y-99129069D01*
X252999102Y-99353097D01*
X253133820Y-99554717D01*
X253305283Y-99726180D01*
X253506903Y-99860898D01*
X253730931Y-99953693D01*
X253968757Y-100001000D01*
X254211243Y-100001000D01*
X254449069Y-99953693D01*
X254673097Y-99860898D01*
X254874717Y-99726180D01*
X255046180Y-99554717D01*
X255180898Y-99353097D01*
X255273693Y-99129069D01*
X255321000Y-98891243D01*
X255321000Y-98648757D01*
X255399000Y-98648757D01*
X255399000Y-98891243D01*
X255446307Y-99129069D01*
X255539102Y-99353097D01*
X255673820Y-99554717D01*
X255845283Y-99726180D01*
X256046903Y-99860898D01*
X256270931Y-99953693D01*
X256508757Y-100001000D01*
X256751243Y-100001000D01*
X256989069Y-99953693D01*
X257213097Y-99860898D01*
X257414717Y-99726180D01*
X257586180Y-99554717D01*
X257720898Y-99353097D01*
X257813693Y-99129069D01*
X257861000Y-98891243D01*
X257861000Y-98648757D01*
X257813693Y-98410931D01*
X257720898Y-98186903D01*
X257586180Y-97985283D01*
X257414717Y-97813820D01*
X257213097Y-97679102D01*
X256989069Y-97586307D01*
X256751243Y-97539000D01*
X256508757Y-97539000D01*
X256270931Y-97586307D01*
X256046903Y-97679102D01*
X255845283Y-97813820D01*
X255673820Y-97985283D01*
X255539102Y-98186903D01*
X255446307Y-98410931D01*
X255399000Y-98648757D01*
X255321000Y-98648757D01*
X255273693Y-98410931D01*
X255180898Y-98186903D01*
X255046180Y-97985283D01*
X254874717Y-97813820D01*
X254673097Y-97679102D01*
X254449069Y-97586307D01*
X254211243Y-97539000D01*
X253968757Y-97539000D01*
X253730931Y-97586307D01*
X253506903Y-97679102D01*
X253305283Y-97813820D01*
X253133820Y-97985283D01*
X252999102Y-98186903D01*
X252906307Y-98410931D01*
X252859000Y-98648757D01*
X252781000Y-98648757D01*
X252733693Y-98410931D01*
X252640898Y-98186903D01*
X252506180Y-97985283D01*
X252334717Y-97813820D01*
X252133097Y-97679102D01*
X251909069Y-97586307D01*
X251671243Y-97539000D01*
X251428757Y-97539000D01*
X251190931Y-97586307D01*
X250966903Y-97679102D01*
X250765283Y-97813820D01*
X250593820Y-97985283D01*
X250459102Y-98186903D01*
X250366307Y-98410931D01*
X250319000Y-98648757D01*
X250241000Y-98648757D01*
X250193693Y-98410931D01*
X250100898Y-98186903D01*
X249966180Y-97985283D01*
X249794717Y-97813820D01*
X249593097Y-97679102D01*
X249369069Y-97586307D01*
X249131243Y-97539000D01*
X248888757Y-97539000D01*
X248650931Y-97586307D01*
X248426903Y-97679102D01*
X248225283Y-97813820D01*
X248053820Y-97985283D01*
X247919102Y-98186903D01*
X247826307Y-98410931D01*
X247779000Y-98648757D01*
X247701000Y-98648757D01*
X247653693Y-98410931D01*
X247560898Y-98186903D01*
X247426180Y-97985283D01*
X247254717Y-97813820D01*
X247053097Y-97679102D01*
X246829069Y-97586307D01*
X246591243Y-97539000D01*
X246348757Y-97539000D01*
X246110931Y-97586307D01*
X245886903Y-97679102D01*
X245685283Y-97813820D01*
X245513820Y-97985283D01*
X245379102Y-98186903D01*
X245286307Y-98410931D01*
X245239000Y-98648757D01*
X245161000Y-98648757D01*
X245113693Y-98410931D01*
X245020898Y-98186903D01*
X244886180Y-97985283D01*
X244714717Y-97813820D01*
X244513097Y-97679102D01*
X244289069Y-97586307D01*
X244051243Y-97539000D01*
X243808757Y-97539000D01*
X243570931Y-97586307D01*
X243346903Y-97679102D01*
X243145283Y-97813820D01*
X242973820Y-97985283D01*
X242839102Y-98186903D01*
X242746307Y-98410931D01*
X242699000Y-98648757D01*
X242621000Y-98648757D01*
X242573693Y-98410931D01*
X242480898Y-98186903D01*
X242346180Y-97985283D01*
X242174717Y-97813820D01*
X241973097Y-97679102D01*
X241749069Y-97586307D01*
X241511243Y-97539000D01*
X241268757Y-97539000D01*
X241030931Y-97586307D01*
X240806903Y-97679102D01*
X240605283Y-97813820D01*
X240433820Y-97985283D01*
X240299102Y-98186903D01*
X240206307Y-98410931D01*
X240159000Y-98648757D01*
X240081000Y-98648757D01*
X240033693Y-98410931D01*
X239940898Y-98186903D01*
X239806180Y-97985283D01*
X239634717Y-97813820D01*
X239433097Y-97679102D01*
X239209069Y-97586307D01*
X238971243Y-97539000D01*
X238728757Y-97539000D01*
X238490931Y-97586307D01*
X238266903Y-97679102D01*
X238065283Y-97813820D01*
X237893820Y-97985283D01*
X237759102Y-98186903D01*
X237666307Y-98410931D01*
X237619000Y-98648757D01*
X237541000Y-98648757D01*
X237493693Y-98410931D01*
X237400898Y-98186903D01*
X237266180Y-97985283D01*
X237094717Y-97813820D01*
X236893097Y-97679102D01*
X236669069Y-97586307D01*
X236431243Y-97539000D01*
X236188757Y-97539000D01*
X235950931Y-97586307D01*
X235726903Y-97679102D01*
X235525283Y-97813820D01*
X235353820Y-97985283D01*
X235219102Y-98186903D01*
X235126307Y-98410931D01*
X235079000Y-98648757D01*
X235001000Y-98648757D01*
X234953693Y-98410931D01*
X234860898Y-98186903D01*
X234726180Y-97985283D01*
X234554717Y-97813820D01*
X234353097Y-97679102D01*
X234129069Y-97586307D01*
X233891243Y-97539000D01*
X233648757Y-97539000D01*
X233410931Y-97586307D01*
X233186903Y-97679102D01*
X232985283Y-97813820D01*
X232813820Y-97985283D01*
X232679102Y-98186903D01*
X232586307Y-98410931D01*
X232539000Y-98648757D01*
X232461000Y-98648757D01*
X232413693Y-98410931D01*
X232320898Y-98186903D01*
X232186180Y-97985283D01*
X232014717Y-97813820D01*
X231813097Y-97679102D01*
X231589069Y-97586307D01*
X231351243Y-97539000D01*
X231108757Y-97539000D01*
X230870931Y-97586307D01*
X230646903Y-97679102D01*
X230445283Y-97813820D01*
X230273820Y-97985283D01*
X230139102Y-98186903D01*
X230091772Y-98301168D01*
X230034157Y-98138748D01*
X229885178Y-97888645D01*
X229690269Y-97672412D01*
X229456920Y-97498359D01*
X229194099Y-97373175D01*
X229166846Y-97364909D01*
X229273097Y-97320898D01*
X229474717Y-97186180D01*
X229646180Y-97014717D01*
X229780898Y-96813097D01*
X229873693Y-96589069D01*
X229921000Y-96351243D01*
X229921000Y-96108757D01*
X229999000Y-96108757D01*
X229999000Y-96351243D01*
X230046307Y-96589069D01*
X230139102Y-96813097D01*
X230273820Y-97014717D01*
X230445283Y-97186180D01*
X230646903Y-97320898D01*
X230870931Y-97413693D01*
X231108757Y-97461000D01*
X231351243Y-97461000D01*
X231589069Y-97413693D01*
X231813097Y-97320898D01*
X232014717Y-97186180D01*
X232186180Y-97014717D01*
X232320898Y-96813097D01*
X232413693Y-96589069D01*
X232461000Y-96351243D01*
X232461000Y-96108757D01*
X232539000Y-96108757D01*
X232539000Y-96351243D01*
X232586307Y-96589069D01*
X232679102Y-96813097D01*
X232813820Y-97014717D01*
X232985283Y-97186180D01*
X233186903Y-97320898D01*
X233410931Y-97413693D01*
X233648757Y-97461000D01*
X233891243Y-97461000D01*
X234129069Y-97413693D01*
X234353097Y-97320898D01*
X234554717Y-97186180D01*
X234726180Y-97014717D01*
X234860898Y-96813097D01*
X234953693Y-96589069D01*
X235001000Y-96351243D01*
X235001000Y-96108757D01*
X235079000Y-96108757D01*
X235079000Y-96351243D01*
X235126307Y-96589069D01*
X235219102Y-96813097D01*
X235353820Y-97014717D01*
X235525283Y-97186180D01*
X235726903Y-97320898D01*
X235950931Y-97413693D01*
X236188757Y-97461000D01*
X236431243Y-97461000D01*
X236669069Y-97413693D01*
X236893097Y-97320898D01*
X237094717Y-97186180D01*
X237266180Y-97014717D01*
X237400898Y-96813097D01*
X237493693Y-96589069D01*
X237541000Y-96351243D01*
X237541000Y-96108757D01*
X237619000Y-96108757D01*
X237619000Y-96351243D01*
X237666307Y-96589069D01*
X237759102Y-96813097D01*
X237893820Y-97014717D01*
X238065283Y-97186180D01*
X238266903Y-97320898D01*
X238490931Y-97413693D01*
X238728757Y-97461000D01*
X238971243Y-97461000D01*
X239209069Y-97413693D01*
X239433097Y-97320898D01*
X239634717Y-97186180D01*
X239806180Y-97014717D01*
X239940898Y-96813097D01*
X240033693Y-96589069D01*
X240081000Y-96351243D01*
X240081000Y-96108757D01*
X240159000Y-96108757D01*
X240159000Y-96351243D01*
X240206307Y-96589069D01*
X240299102Y-96813097D01*
X240433820Y-97014717D01*
X240605283Y-97186180D01*
X240806903Y-97320898D01*
X241030931Y-97413693D01*
X241268757Y-97461000D01*
X241511243Y-97461000D01*
X241749069Y-97413693D01*
X241973097Y-97320898D01*
X242174717Y-97186180D01*
X242346180Y-97014717D01*
X242480898Y-96813097D01*
X242573693Y-96589069D01*
X242621000Y-96351243D01*
X242621000Y-96108757D01*
X242699000Y-96108757D01*
X242699000Y-96351243D01*
X242746307Y-96589069D01*
X242839102Y-96813097D01*
X242973820Y-97014717D01*
X243145283Y-97186180D01*
X243346903Y-97320898D01*
X243570931Y-97413693D01*
X243808757Y-97461000D01*
X244051243Y-97461000D01*
X244289069Y-97413693D01*
X244513097Y-97320898D01*
X244714717Y-97186180D01*
X244886180Y-97014717D01*
X245020898Y-96813097D01*
X245113693Y-96589069D01*
X245161000Y-96351243D01*
X245161000Y-96108757D01*
X245239000Y-96108757D01*
X245239000Y-96351243D01*
X245286307Y-96589069D01*
X245379102Y-96813097D01*
X245513820Y-97014717D01*
X245685283Y-97186180D01*
X245886903Y-97320898D01*
X246110931Y-97413693D01*
X246348757Y-97461000D01*
X246591243Y-97461000D01*
X246829069Y-97413693D01*
X247053097Y-97320898D01*
X247254717Y-97186180D01*
X247426180Y-97014717D01*
X247560898Y-96813097D01*
X247653693Y-96589069D01*
X247701000Y-96351243D01*
X247701000Y-96108757D01*
X247779000Y-96108757D01*
X247779000Y-96351243D01*
X247826307Y-96589069D01*
X247919102Y-96813097D01*
X248053820Y-97014717D01*
X248225283Y-97186180D01*
X248426903Y-97320898D01*
X248650931Y-97413693D01*
X248888757Y-97461000D01*
X249131243Y-97461000D01*
X249369069Y-97413693D01*
X249593097Y-97320898D01*
X249794717Y-97186180D01*
X249966180Y-97014717D01*
X250100898Y-96813097D01*
X250193693Y-96589069D01*
X250241000Y-96351243D01*
X250241000Y-96108757D01*
X250319000Y-96108757D01*
X250319000Y-96351243D01*
X250366307Y-96589069D01*
X250459102Y-96813097D01*
X250593820Y-97014717D01*
X250765283Y-97186180D01*
X250966903Y-97320898D01*
X251190931Y-97413693D01*
X251428757Y-97461000D01*
X251671243Y-97461000D01*
X251909069Y-97413693D01*
X252133097Y-97320898D01*
X252334717Y-97186180D01*
X252506180Y-97014717D01*
X252640898Y-96813097D01*
X252733693Y-96589069D01*
X252781000Y-96351243D01*
X252781000Y-96108757D01*
X252859000Y-96108757D01*
X252859000Y-96351243D01*
X252906307Y-96589069D01*
X252999102Y-96813097D01*
X253133820Y-97014717D01*
X253305283Y-97186180D01*
X253506903Y-97320898D01*
X253730931Y-97413693D01*
X253968757Y-97461000D01*
X254211243Y-97461000D01*
X254449069Y-97413693D01*
X254673097Y-97320898D01*
X254874717Y-97186180D01*
X255046180Y-97014717D01*
X255180898Y-96813097D01*
X255273693Y-96589069D01*
X255321000Y-96351243D01*
X255321000Y-96108757D01*
X255399000Y-96108757D01*
X255399000Y-96351243D01*
X255446307Y-96589069D01*
X255539102Y-96813097D01*
X255673820Y-97014717D01*
X255845283Y-97186180D01*
X256046903Y-97320898D01*
X256270931Y-97413693D01*
X256508757Y-97461000D01*
X256751243Y-97461000D01*
X256989069Y-97413693D01*
X257192303Y-97329511D01*
X259769000Y-97329511D01*
X259769000Y-97670489D01*
X259835521Y-98004914D01*
X259966007Y-98319936D01*
X260155444Y-98603448D01*
X260396552Y-98844556D01*
X260680064Y-99033993D01*
X260995086Y-99164479D01*
X261329511Y-99231000D01*
X261670489Y-99231000D01*
X262004914Y-99164479D01*
X262319936Y-99033993D01*
X262603448Y-98844556D01*
X262844556Y-98603448D01*
X263033993Y-98319936D01*
X263164479Y-98004914D01*
X263231000Y-97670489D01*
X263231000Y-97329511D01*
X263164479Y-96995086D01*
X263033993Y-96680064D01*
X262844556Y-96396552D01*
X262603448Y-96155444D01*
X262319936Y-95966007D01*
X262004914Y-95835521D01*
X261670489Y-95769000D01*
X261329511Y-95769000D01*
X260995086Y-95835521D01*
X260680064Y-95966007D01*
X260396552Y-96155444D01*
X260155444Y-96396552D01*
X259966007Y-96680064D01*
X259835521Y-96995086D01*
X259769000Y-97329511D01*
X257192303Y-97329511D01*
X257213097Y-97320898D01*
X257414717Y-97186180D01*
X257586180Y-97014717D01*
X257720898Y-96813097D01*
X257813693Y-96589069D01*
X257861000Y-96351243D01*
X257861000Y-96108757D01*
X257813693Y-95870931D01*
X257720898Y-95646903D01*
X257586180Y-95445283D01*
X257414717Y-95273820D01*
X257213097Y-95139102D01*
X256989069Y-95046307D01*
X256751243Y-94999000D01*
X256508757Y-94999000D01*
X256270931Y-95046307D01*
X256046903Y-95139102D01*
X255845283Y-95273820D01*
X255673820Y-95445283D01*
X255539102Y-95646903D01*
X255446307Y-95870931D01*
X255399000Y-96108757D01*
X255321000Y-96108757D01*
X255273693Y-95870931D01*
X255180898Y-95646903D01*
X255046180Y-95445283D01*
X254874717Y-95273820D01*
X254673097Y-95139102D01*
X254449069Y-95046307D01*
X254211243Y-94999000D01*
X253968757Y-94999000D01*
X253730931Y-95046307D01*
X253506903Y-95139102D01*
X253305283Y-95273820D01*
X253133820Y-95445283D01*
X252999102Y-95646903D01*
X252906307Y-95870931D01*
X252859000Y-96108757D01*
X252781000Y-96108757D01*
X252733693Y-95870931D01*
X252640898Y-95646903D01*
X252506180Y-95445283D01*
X252334717Y-95273820D01*
X252133097Y-95139102D01*
X251909069Y-95046307D01*
X251671243Y-94999000D01*
X251428757Y-94999000D01*
X251190931Y-95046307D01*
X250966903Y-95139102D01*
X250765283Y-95273820D01*
X250593820Y-95445283D01*
X250459102Y-95646903D01*
X250366307Y-95870931D01*
X250319000Y-96108757D01*
X250241000Y-96108757D01*
X250193693Y-95870931D01*
X250100898Y-95646903D01*
X249966180Y-95445283D01*
X249794717Y-95273820D01*
X249593097Y-95139102D01*
X249369069Y-95046307D01*
X249131243Y-94999000D01*
X248888757Y-94999000D01*
X248650931Y-95046307D01*
X248426903Y-95139102D01*
X248225283Y-95273820D01*
X248053820Y-95445283D01*
X247919102Y-95646903D01*
X247826307Y-95870931D01*
X247779000Y-96108757D01*
X247701000Y-96108757D01*
X247653693Y-95870931D01*
X247560898Y-95646903D01*
X247426180Y-95445283D01*
X247254717Y-95273820D01*
X247053097Y-95139102D01*
X246829069Y-95046307D01*
X246591243Y-94999000D01*
X246348757Y-94999000D01*
X246110931Y-95046307D01*
X245886903Y-95139102D01*
X245685283Y-95273820D01*
X245513820Y-95445283D01*
X245379102Y-95646903D01*
X245286307Y-95870931D01*
X245239000Y-96108757D01*
X245161000Y-96108757D01*
X245113693Y-95870931D01*
X245020898Y-95646903D01*
X244886180Y-95445283D01*
X244714717Y-95273820D01*
X244513097Y-95139102D01*
X244289069Y-95046307D01*
X244051243Y-94999000D01*
X243808757Y-94999000D01*
X243570931Y-95046307D01*
X243346903Y-95139102D01*
X243145283Y-95273820D01*
X242973820Y-95445283D01*
X242839102Y-95646903D01*
X242746307Y-95870931D01*
X242699000Y-96108757D01*
X242621000Y-96108757D01*
X242573693Y-95870931D01*
X242480898Y-95646903D01*
X242346180Y-95445283D01*
X242174717Y-95273820D01*
X241973097Y-95139102D01*
X241749069Y-95046307D01*
X241511243Y-94999000D01*
X241268757Y-94999000D01*
X241030931Y-95046307D01*
X240806903Y-95139102D01*
X240605283Y-95273820D01*
X240433820Y-95445283D01*
X240299102Y-95646903D01*
X240206307Y-95870931D01*
X240159000Y-96108757D01*
X240081000Y-96108757D01*
X240033693Y-95870931D01*
X239940898Y-95646903D01*
X239806180Y-95445283D01*
X239634717Y-95273820D01*
X239433097Y-95139102D01*
X239209069Y-95046307D01*
X238971243Y-94999000D01*
X238728757Y-94999000D01*
X238490931Y-95046307D01*
X238266903Y-95139102D01*
X238065283Y-95273820D01*
X237893820Y-95445283D01*
X237759102Y-95646903D01*
X237666307Y-95870931D01*
X237619000Y-96108757D01*
X237541000Y-96108757D01*
X237493693Y-95870931D01*
X237400898Y-95646903D01*
X237266180Y-95445283D01*
X237094717Y-95273820D01*
X236893097Y-95139102D01*
X236669069Y-95046307D01*
X236431243Y-94999000D01*
X236188757Y-94999000D01*
X235950931Y-95046307D01*
X235726903Y-95139102D01*
X235525283Y-95273820D01*
X235353820Y-95445283D01*
X235219102Y-95646903D01*
X235126307Y-95870931D01*
X235079000Y-96108757D01*
X235001000Y-96108757D01*
X234953693Y-95870931D01*
X234860898Y-95646903D01*
X234726180Y-95445283D01*
X234554717Y-95273820D01*
X234353097Y-95139102D01*
X234129069Y-95046307D01*
X233891243Y-94999000D01*
X233648757Y-94999000D01*
X233410931Y-95046307D01*
X233186903Y-95139102D01*
X232985283Y-95273820D01*
X232813820Y-95445283D01*
X232679102Y-95646903D01*
X232586307Y-95870931D01*
X232539000Y-96108757D01*
X232461000Y-96108757D01*
X232413693Y-95870931D01*
X232320898Y-95646903D01*
X232186180Y-95445283D01*
X232014717Y-95273820D01*
X231813097Y-95139102D01*
X231589069Y-95046307D01*
X231351243Y-94999000D01*
X231108757Y-94999000D01*
X230870931Y-95046307D01*
X230646903Y-95139102D01*
X230445283Y-95273820D01*
X230273820Y-95445283D01*
X230139102Y-95646903D01*
X230046307Y-95870931D01*
X229999000Y-96108757D01*
X229921000Y-96108757D01*
X229873693Y-95870931D01*
X229780898Y-95646903D01*
X229646180Y-95445283D01*
X229474717Y-95273820D01*
X229273097Y-95139102D01*
X229049069Y-95046307D01*
X228811243Y-94999000D01*
X228568757Y-94999000D01*
X228330931Y-95046307D01*
X228106903Y-95139102D01*
X227905283Y-95273820D01*
X227733820Y-95445283D01*
X227599102Y-95646903D01*
X227506307Y-95870931D01*
X227459000Y-96108757D01*
X227459000Y-96351243D01*
X227506307Y-96589069D01*
X227599102Y-96813097D01*
X227733820Y-97014717D01*
X227905283Y-97186180D01*
X228106903Y-97320898D01*
X228213154Y-97364909D01*
X228185901Y-97373175D01*
X227923080Y-97498359D01*
X227689731Y-97672412D01*
X227494822Y-97888645D01*
X227345843Y-98138748D01*
X227288228Y-98301168D01*
X227240898Y-98186903D01*
X227106180Y-97985283D01*
X226934717Y-97813820D01*
X226733097Y-97679102D01*
X226509069Y-97586307D01*
X226271243Y-97539000D01*
X226028757Y-97539000D01*
X225790931Y-97586307D01*
X225566903Y-97679102D01*
X225365283Y-97813820D01*
X225193820Y-97985283D01*
X225059102Y-98186903D01*
X224966307Y-98410931D01*
X224919000Y-98648757D01*
X224841000Y-98648757D01*
X224793693Y-98410931D01*
X224700898Y-98186903D01*
X224566180Y-97985283D01*
X224394717Y-97813820D01*
X224193097Y-97679102D01*
X223969069Y-97586307D01*
X223731243Y-97539000D01*
X223488757Y-97539000D01*
X223250931Y-97586307D01*
X223026903Y-97679102D01*
X222825283Y-97813820D01*
X222653820Y-97985283D01*
X222519102Y-98186903D01*
X222426307Y-98410931D01*
X222379000Y-98648757D01*
X222301000Y-98648757D01*
X222253693Y-98410931D01*
X222160898Y-98186903D01*
X222026180Y-97985283D01*
X221854717Y-97813820D01*
X221653097Y-97679102D01*
X221429069Y-97586307D01*
X221191243Y-97539000D01*
X220948757Y-97539000D01*
X220710931Y-97586307D01*
X220486903Y-97679102D01*
X220285283Y-97813820D01*
X220113820Y-97985283D01*
X220081001Y-98034400D01*
X220081001Y-97342634D01*
X220083230Y-97320000D01*
X220081001Y-97297367D01*
X220081001Y-97297360D01*
X220074330Y-97229629D01*
X220047970Y-97142731D01*
X220005163Y-97062644D01*
X219947554Y-96992448D01*
X219929964Y-96978012D01*
X219663119Y-96711167D01*
X219713693Y-96589069D01*
X219761000Y-96351243D01*
X219761000Y-96108757D01*
X219839000Y-96108757D01*
X219839000Y-96351243D01*
X219886307Y-96589069D01*
X219979102Y-96813097D01*
X220113820Y-97014717D01*
X220285283Y-97186180D01*
X220486903Y-97320898D01*
X220710931Y-97413693D01*
X220948757Y-97461000D01*
X221191243Y-97461000D01*
X221429069Y-97413693D01*
X221653097Y-97320898D01*
X221854717Y-97186180D01*
X222026180Y-97014717D01*
X222160898Y-96813097D01*
X222253693Y-96589069D01*
X222301000Y-96351243D01*
X222301000Y-96108757D01*
X222379000Y-96108757D01*
X222379000Y-96351243D01*
X222426307Y-96589069D01*
X222519102Y-96813097D01*
X222653820Y-97014717D01*
X222825283Y-97186180D01*
X223026903Y-97320898D01*
X223250931Y-97413693D01*
X223488757Y-97461000D01*
X223731243Y-97461000D01*
X223969069Y-97413693D01*
X224193097Y-97320898D01*
X224394717Y-97186180D01*
X224566180Y-97014717D01*
X224700898Y-96813097D01*
X224793693Y-96589069D01*
X224841000Y-96351243D01*
X224841000Y-96108757D01*
X224919000Y-96108757D01*
X224919000Y-96351243D01*
X224966307Y-96589069D01*
X225059102Y-96813097D01*
X225193820Y-97014717D01*
X225365283Y-97186180D01*
X225566903Y-97320898D01*
X225790931Y-97413693D01*
X226028757Y-97461000D01*
X226271243Y-97461000D01*
X226509069Y-97413693D01*
X226733097Y-97320898D01*
X226934717Y-97186180D01*
X227106180Y-97014717D01*
X227240898Y-96813097D01*
X227333693Y-96589069D01*
X227381000Y-96351243D01*
X227381000Y-96108757D01*
X227333693Y-95870931D01*
X227240898Y-95646903D01*
X227106180Y-95445283D01*
X226934717Y-95273820D01*
X226733097Y-95139102D01*
X226509069Y-95046307D01*
X226271243Y-94999000D01*
X226028757Y-94999000D01*
X225790931Y-95046307D01*
X225566903Y-95139102D01*
X225365283Y-95273820D01*
X225193820Y-95445283D01*
X225059102Y-95646903D01*
X224966307Y-95870931D01*
X224919000Y-96108757D01*
X224841000Y-96108757D01*
X224793693Y-95870931D01*
X224700898Y-95646903D01*
X224566180Y-95445283D01*
X224394717Y-95273820D01*
X224193097Y-95139102D01*
X223969069Y-95046307D01*
X223731243Y-94999000D01*
X223488757Y-94999000D01*
X223250931Y-95046307D01*
X223026903Y-95139102D01*
X222825283Y-95273820D01*
X222653820Y-95445283D01*
X222519102Y-95646903D01*
X222426307Y-95870931D01*
X222379000Y-96108757D01*
X222301000Y-96108757D01*
X222253693Y-95870931D01*
X222160898Y-95646903D01*
X222026180Y-95445283D01*
X221854717Y-95273820D01*
X221653097Y-95139102D01*
X221429069Y-95046307D01*
X221191243Y-94999000D01*
X220948757Y-94999000D01*
X220710931Y-95046307D01*
X220486903Y-95139102D01*
X220285283Y-95273820D01*
X220113820Y-95445283D01*
X219979102Y-95646903D01*
X219886307Y-95870931D01*
X219839000Y-96108757D01*
X219761000Y-96108757D01*
X219713693Y-95870931D01*
X219620898Y-95646903D01*
X219486180Y-95445283D01*
X219314717Y-95273820D01*
X219113097Y-95139102D01*
X218889069Y-95046307D01*
X218651243Y-94999000D01*
X218408757Y-94999000D01*
X218170931Y-95046307D01*
X217946903Y-95139102D01*
X217745283Y-95273820D01*
X217573820Y-95445283D01*
X217439102Y-95646903D01*
X217346307Y-95870931D01*
X217299000Y-96108757D01*
X217299000Y-96351243D01*
X217346307Y-96589069D01*
X217439102Y-96813097D01*
X217573820Y-97014717D01*
X217745283Y-97186180D01*
X217946903Y-97320898D01*
X218170931Y-97413693D01*
X218408757Y-97461000D01*
X218651243Y-97461000D01*
X218889069Y-97413693D01*
X219011167Y-97363119D01*
X219159002Y-97510954D01*
X219159002Y-97709775D01*
X219113097Y-97679102D01*
X218889069Y-97586307D01*
X218651243Y-97539000D01*
X218408757Y-97539000D01*
X218170931Y-97586307D01*
X217946903Y-97679102D01*
X217745283Y-97813820D01*
X217573820Y-97985283D01*
X217541001Y-98034400D01*
X217541001Y-97342634D01*
X217543230Y-97320000D01*
X217541001Y-97297367D01*
X217541001Y-97297360D01*
X217534330Y-97229629D01*
X217507970Y-97142731D01*
X217465163Y-97062644D01*
X217407554Y-96992448D01*
X217389964Y-96978012D01*
X217123119Y-96711167D01*
X217173693Y-96589069D01*
X217221000Y-96351243D01*
X217221000Y-96108757D01*
X217173693Y-95870931D01*
X217080898Y-95646903D01*
X216946180Y-95445283D01*
X216774717Y-95273820D01*
X216573097Y-95139102D01*
X216349069Y-95046307D01*
X216111243Y-94999000D01*
X215868757Y-94999000D01*
X215630931Y-95046307D01*
X215406903Y-95139102D01*
X215205283Y-95273820D01*
X215033820Y-95445283D01*
X214899102Y-95646903D01*
X214806307Y-95870931D01*
X214759000Y-96108757D01*
X214681000Y-96108757D01*
X214633693Y-95870931D01*
X214540898Y-95646903D01*
X214406180Y-95445283D01*
X214234717Y-95273820D01*
X214033097Y-95139102D01*
X213809069Y-95046307D01*
X213571243Y-94999000D01*
X213328757Y-94999000D01*
X213090931Y-95046307D01*
X212866903Y-95139102D01*
X212665283Y-95273820D01*
X212493820Y-95445283D01*
X212359102Y-95646903D01*
X212266307Y-95870931D01*
X212219000Y-96108757D01*
X212141000Y-96108757D01*
X212093693Y-95870931D01*
X212000898Y-95646903D01*
X211866180Y-95445283D01*
X211694717Y-95273820D01*
X211493097Y-95139102D01*
X211269069Y-95046307D01*
X211031243Y-94999000D01*
X210788757Y-94999000D01*
X210550931Y-95046307D01*
X210326903Y-95139102D01*
X210125283Y-95273820D01*
X209953820Y-95445283D01*
X209819102Y-95646903D01*
X209726307Y-95870931D01*
X209679000Y-96108757D01*
X209601000Y-96108757D01*
X209553693Y-95870931D01*
X209460898Y-95646903D01*
X209326180Y-95445283D01*
X209154717Y-95273820D01*
X208953097Y-95139102D01*
X208729069Y-95046307D01*
X208491243Y-94999000D01*
X208248757Y-94999000D01*
X208010931Y-95046307D01*
X207786903Y-95139102D01*
X207585283Y-95273820D01*
X207413820Y-95445283D01*
X207279102Y-95646903D01*
X207186307Y-95870931D01*
X207139000Y-96108757D01*
X207139000Y-96351243D01*
X207186307Y-96589069D01*
X207279102Y-96813097D01*
X207413820Y-97014717D01*
X207585283Y-97186180D01*
X207730294Y-97283073D01*
X207520000Y-97281928D01*
X207395518Y-97294188D01*
X207275820Y-97330498D01*
X207165506Y-97389463D01*
X207068815Y-97468815D01*
X206989463Y-97565506D01*
X206930498Y-97675820D01*
X206894188Y-97795518D01*
X206881928Y-97920000D01*
X206885000Y-98484250D01*
X207043750Y-98643000D01*
X208243000Y-98643000D01*
X208243000Y-98623000D01*
X208497000Y-98623000D01*
X208497000Y-98643000D01*
X208517000Y-98643000D01*
X208517000Y-98897000D01*
X208497000Y-98897000D01*
X208497000Y-100096250D01*
X208655750Y-100255000D01*
X209220000Y-100258072D01*
X209344482Y-100245812D01*
X209464180Y-100209502D01*
X209574494Y-100150537D01*
X209671185Y-100071185D01*
X209750537Y-99974494D01*
X209809502Y-99864180D01*
X209845812Y-99744482D01*
X209858072Y-99620000D01*
X209856927Y-99409706D01*
X209953820Y-99554717D01*
X210125283Y-99726180D01*
X210326903Y-99860898D01*
X210550931Y-99953693D01*
X210715001Y-99986329D01*
X210715000Y-105486048D01*
X208699049Y-107502000D01*
X207538775Y-107502000D01*
X207531049Y-107476530D01*
X207475456Y-107372523D01*
X207400640Y-107281360D01*
X207309477Y-107206544D01*
X207205470Y-107150951D01*
X207092615Y-107116716D01*
X206975250Y-107105157D01*
X206537750Y-107105157D01*
X206420385Y-107116716D01*
X206307530Y-107150951D01*
X206203523Y-107206544D01*
X206112360Y-107281360D01*
X206037544Y-107372523D01*
X205981951Y-107476530D01*
X205969000Y-107519223D01*
X205956049Y-107476530D01*
X205900456Y-107372523D01*
X205825640Y-107281360D01*
X205734477Y-107206544D01*
X205630470Y-107150951D01*
X205517615Y-107116716D01*
X205400250Y-107105157D01*
X204962750Y-107105157D01*
X204845385Y-107116716D01*
X204732530Y-107150951D01*
X204628523Y-107206544D01*
X204537360Y-107281360D01*
X204462544Y-107372523D01*
X204406951Y-107476530D01*
X204399225Y-107502000D01*
X204168714Y-107502000D01*
X204157477Y-107464956D01*
X204103616Y-107364190D01*
X204031132Y-107275868D01*
X203942810Y-107203384D01*
X203842044Y-107149523D01*
X203732707Y-107116356D01*
X203619000Y-107105157D01*
X203219000Y-107105157D01*
X203105293Y-107116356D01*
X202995956Y-107149523D01*
X202895190Y-107203384D01*
X202806868Y-107275868D01*
X202734384Y-107364190D01*
X202680523Y-107464956D01*
X202647356Y-107574293D01*
X202636157Y-107688000D01*
X202551843Y-107688000D01*
X202540644Y-107574293D01*
X202507477Y-107464956D01*
X202453616Y-107364190D01*
X202381132Y-107275868D01*
X202292810Y-107203384D01*
X202192044Y-107149523D01*
X202098858Y-107121255D01*
X202096553Y-107118447D01*
X202078968Y-107104016D01*
X201961000Y-106986048D01*
X201961000Y-106878942D01*
X201934445Y-106745443D01*
X201882356Y-106619689D01*
X201806734Y-106506513D01*
X201710487Y-106410266D01*
X201597311Y-106334644D01*
X201471557Y-106282555D01*
X201338058Y-106256000D01*
X201201942Y-106256000D01*
X201068443Y-106282555D01*
X200942689Y-106334644D01*
X200829513Y-106410266D01*
X200733266Y-106506513D01*
X200657644Y-106619689D01*
X200605555Y-106745443D01*
X200579000Y-106878942D01*
X200431000Y-106878942D01*
X200431000Y-99620000D01*
X206881928Y-99620000D01*
X206894188Y-99744482D01*
X206930498Y-99864180D01*
X206989463Y-99974494D01*
X207068815Y-100071185D01*
X207165506Y-100150537D01*
X207275820Y-100209502D01*
X207395518Y-100245812D01*
X207520000Y-100258072D01*
X208084250Y-100255000D01*
X208243000Y-100096250D01*
X208243000Y-98897000D01*
X207043750Y-98897000D01*
X206885000Y-99055750D01*
X206881928Y-99620000D01*
X200431000Y-99620000D01*
X200431000Y-97329511D01*
X201769000Y-97329511D01*
X201769000Y-97670489D01*
X201835521Y-98004914D01*
X201966007Y-98319936D01*
X202155444Y-98603448D01*
X202396552Y-98844556D01*
X202680064Y-99033993D01*
X202995086Y-99164479D01*
X203329511Y-99231000D01*
X203670489Y-99231000D01*
X204004914Y-99164479D01*
X204319936Y-99033993D01*
X204603448Y-98844556D01*
X204844556Y-98603448D01*
X205033993Y-98319936D01*
X205164479Y-98004914D01*
X205231000Y-97670489D01*
X205231000Y-97329511D01*
X205164479Y-96995086D01*
X205033993Y-96680064D01*
X204844556Y-96396552D01*
X204603448Y-96155444D01*
X204319936Y-95966007D01*
X204004914Y-95835521D01*
X203670489Y-95769000D01*
X203329511Y-95769000D01*
X202995086Y-95835521D01*
X202680064Y-95966007D01*
X202396552Y-96155444D01*
X202155444Y-96396552D01*
X201966007Y-96680064D01*
X201835521Y-96995086D01*
X201769000Y-97329511D01*
X200431000Y-97329511D01*
X200431000Y-97021080D01*
X200481954Y-96501414D01*
X200626753Y-96021818D01*
X200861948Y-95579480D01*
X201178580Y-95191250D01*
X201564587Y-94871917D01*
X202005274Y-94633639D01*
X202483847Y-94485496D01*
X203002338Y-94431000D01*
X261978920Y-94431000D01*
X262498586Y-94481954D01*
G37*
G04 #@! TD.AperFunction*
M02*
