G04 #@! TF.GenerationSoftware,KiCad,Pcbnew,(5.1.7)-1*
G04 #@! TF.CreationDate,2020-10-30T03:26:27-04:00*
G04 #@! TF.ProjectId,server-hat,73657276-6572-42d6-9861-742e6b696361,rev?*
G04 #@! TF.SameCoordinates,Original*
G04 #@! TF.FileFunction,Legend,Top*
G04 #@! TF.FilePolarity,Positive*
%FSLAX46Y46*%
G04 Gerber Fmt 4.6, Leading zero omitted, Abs format (unit mm)*
G04 Created by KiCad (PCBNEW (5.1.7)-1) date 2020-10-30 03:26:27*
%MOMM*%
%LPD*%
G01*
G04 APERTURE LIST*
%ADD10C,0.010000*%
%ADD11C,0.120000*%
%ADD12C,0.150000*%
%ADD13C,1.500000*%
%ADD14C,2.300000*%
%ADD15C,3.250000*%
%ADD16R,1.500000X1.500000*%
%ADD17R,1.700000X1.700000*%
%ADD18O,1.700000X1.700000*%
%ADD19C,2.700000*%
G04 APERTURE END LIST*
D10*
G36*
X239597702Y-137531432D02*
G01*
X239647152Y-137532888D01*
X239692298Y-137535323D01*
X239731006Y-137538733D01*
X239761144Y-137543117D01*
X239764447Y-137543785D01*
X239858564Y-137566293D01*
X239942972Y-137592183D01*
X240018700Y-137621965D01*
X240086777Y-137656146D01*
X240148231Y-137695234D01*
X240204092Y-137739737D01*
X240248454Y-137782740D01*
X240283137Y-137823057D01*
X240312912Y-137866282D01*
X240339282Y-137915085D01*
X240363751Y-137972136D01*
X240379581Y-138015579D01*
X240388961Y-138041746D01*
X240401353Y-138074869D01*
X240415041Y-138110427D01*
X240426572Y-138139576D01*
X240441220Y-138177676D01*
X240457077Y-138221567D01*
X240471917Y-138264971D01*
X240480596Y-138291982D01*
X240491974Y-138327693D01*
X240504409Y-138364993D01*
X240516287Y-138399125D01*
X240524832Y-138422338D01*
X240535144Y-138450664D01*
X240547175Y-138485966D01*
X240559220Y-138523148D01*
X240567079Y-138548673D01*
X240576664Y-138579785D01*
X240586061Y-138608709D01*
X240594146Y-138632075D01*
X240599487Y-138645829D01*
X240604776Y-138659801D01*
X240612640Y-138683156D01*
X240622214Y-138713208D01*
X240632634Y-138747272D01*
X240638529Y-138767144D01*
X240650230Y-138806396D01*
X240662691Y-138847103D01*
X240674657Y-138885236D01*
X240684876Y-138916763D01*
X240687844Y-138925600D01*
X240698982Y-138959329D01*
X240710697Y-138996435D01*
X240720951Y-139030429D01*
X240723680Y-139039900D01*
X240733264Y-139072358D01*
X240744284Y-139107669D01*
X240754515Y-139138719D01*
X240755472Y-139141500D01*
X240763895Y-139166832D01*
X240775540Y-139203431D01*
X240790166Y-139250505D01*
X240807531Y-139307263D01*
X240827394Y-139372914D01*
X240849512Y-139446667D01*
X240873644Y-139527732D01*
X240880564Y-139551075D01*
X240892117Y-139589485D01*
X240903715Y-139626996D01*
X240914403Y-139660597D01*
X240923230Y-139687279D01*
X240927817Y-139700300D01*
X240934425Y-139719530D01*
X240943583Y-139748109D01*
X240954447Y-139783300D01*
X240966172Y-139822369D01*
X240977812Y-139862225D01*
X240989285Y-139902004D01*
X241000712Y-139941428D01*
X241012398Y-139981510D01*
X241024644Y-140023268D01*
X241037753Y-140067716D01*
X241052027Y-140115870D01*
X241067769Y-140168747D01*
X241085282Y-140227360D01*
X241104867Y-140292727D01*
X241126828Y-140365863D01*
X241151466Y-140447784D01*
X241179085Y-140539505D01*
X241209986Y-140642042D01*
X241215144Y-140659150D01*
X241228978Y-140705199D01*
X241243394Y-140753472D01*
X241257375Y-140800538D01*
X241269900Y-140842966D01*
X241279953Y-140877329D01*
X241281134Y-140881400D01*
X241292321Y-140919661D01*
X241304446Y-140960527D01*
X241316048Y-140999113D01*
X241325669Y-141030536D01*
X241325697Y-141030625D01*
X241333194Y-141055096D01*
X241343416Y-141088961D01*
X241355573Y-141129575D01*
X241368874Y-141174295D01*
X241382531Y-141220476D01*
X241389848Y-141245339D01*
X241403720Y-141292933D01*
X241414200Y-141329901D01*
X241421598Y-141357581D01*
X241426224Y-141377307D01*
X241428386Y-141390419D01*
X241428396Y-141398251D01*
X241426561Y-141402141D01*
X241426235Y-141402404D01*
X241419333Y-141403489D01*
X241402450Y-141404466D01*
X241376630Y-141405335D01*
X241342915Y-141406094D01*
X241302350Y-141406746D01*
X241255976Y-141407289D01*
X241204837Y-141407724D01*
X241149977Y-141408050D01*
X241092438Y-141408269D01*
X241033264Y-141408379D01*
X240973498Y-141408381D01*
X240914183Y-141408276D01*
X240856362Y-141408062D01*
X240801078Y-141407741D01*
X240749375Y-141407311D01*
X240702296Y-141406775D01*
X240660884Y-141406130D01*
X240626182Y-141405378D01*
X240599234Y-141404518D01*
X240581082Y-141403551D01*
X240572769Y-141402477D01*
X240572502Y-141402353D01*
X240568942Y-141399181D01*
X240564900Y-141393337D01*
X240560107Y-141384026D01*
X240554292Y-141370449D01*
X240547184Y-141351810D01*
X240538514Y-141327311D01*
X240528010Y-141296156D01*
X240515403Y-141257548D01*
X240500421Y-141210689D01*
X240482795Y-141154782D01*
X240462254Y-141089031D01*
X240438527Y-141012638D01*
X240420216Y-140953496D01*
X240408123Y-140915311D01*
X240394270Y-140872985D01*
X240380616Y-140832441D01*
X240371925Y-140807446D01*
X240359585Y-140771406D01*
X240346526Y-140731265D01*
X240334726Y-140693181D01*
X240329398Y-140675025D01*
X240319215Y-140641016D01*
X240307506Y-140604543D01*
X240296245Y-140571674D01*
X240292244Y-140560725D01*
X240283207Y-140535242D01*
X240272069Y-140501742D01*
X240260145Y-140464283D01*
X240248750Y-140426924D01*
X240247004Y-140421025D01*
X240236254Y-140385277D01*
X240225226Y-140349900D01*
X240215077Y-140318520D01*
X240206960Y-140294763D01*
X240205536Y-140290850D01*
X240198229Y-140270002D01*
X240188431Y-140240475D01*
X240177224Y-140205607D01*
X240165690Y-140168735D01*
X240160972Y-140153334D01*
X240149741Y-140116918D01*
X240138509Y-140081375D01*
X240128318Y-140049945D01*
X240120210Y-140025866D01*
X240117576Y-140018450D01*
X240110578Y-139998124D01*
X240101184Y-139969196D01*
X240090487Y-139935115D01*
X240079582Y-139899324D01*
X240076581Y-139889266D01*
X240065048Y-139851320D01*
X240052611Y-139811900D01*
X240040642Y-139775270D01*
X240030513Y-139745694D01*
X240029037Y-139741575D01*
X240020447Y-139717009D01*
X240009176Y-139683586D01*
X239996249Y-139644410D01*
X239982691Y-139602585D01*
X239970333Y-139563775D01*
X239955477Y-139516939D01*
X239938783Y-139464776D01*
X239921765Y-139411990D01*
X239905938Y-139363286D01*
X239896720Y-139335175D01*
X239882295Y-139291058D01*
X239866464Y-139242063D01*
X239850784Y-139193045D01*
X239836812Y-139148858D01*
X239831537Y-139131975D01*
X239819511Y-139093459D01*
X239807882Y-139056622D01*
X239795877Y-139019079D01*
X239782726Y-138978443D01*
X239767659Y-138932327D01*
X239749904Y-138878347D01*
X239736157Y-138836700D01*
X239726685Y-138807885D01*
X239714767Y-138771411D01*
X239701787Y-138731525D01*
X239689130Y-138692476D01*
X239686487Y-138684300D01*
X239665293Y-138618681D01*
X239647510Y-138563957D01*
X239632658Y-138519140D01*
X239620258Y-138483242D01*
X239609833Y-138455274D01*
X239600902Y-138434248D01*
X239592986Y-138419176D01*
X239585608Y-138409070D01*
X239578287Y-138402942D01*
X239570545Y-138399802D01*
X239561903Y-138398663D01*
X239551882Y-138398537D01*
X239547998Y-138398550D01*
X239532533Y-138399468D01*
X239519242Y-138403004D01*
X239507445Y-138410332D01*
X239496460Y-138422625D01*
X239485606Y-138441056D01*
X239474204Y-138466799D01*
X239461572Y-138501027D01*
X239447030Y-138544913D01*
X239429897Y-138599630D01*
X239428267Y-138604925D01*
X239404282Y-138682837D01*
X239383631Y-138749800D01*
X239365989Y-138806844D01*
X239351033Y-138855001D01*
X239338437Y-138895300D01*
X239327879Y-138928774D01*
X239319032Y-138956453D01*
X239311574Y-138979367D01*
X239305180Y-138998548D01*
X239299525Y-139015027D01*
X239297148Y-139021800D01*
X239285893Y-139055451D01*
X239274088Y-139093613D01*
X239264057Y-139128735D01*
X239262941Y-139132925D01*
X239254945Y-139161061D01*
X239244040Y-139196407D01*
X239231644Y-139234492D01*
X239219177Y-139270846D01*
X239218884Y-139271675D01*
X239205801Y-139309650D01*
X239190948Y-139354457D01*
X239176028Y-139400873D01*
X239162740Y-139443676D01*
X239160989Y-139449475D01*
X239149923Y-139485714D01*
X239138832Y-139521044D01*
X239128760Y-139552207D01*
X239120750Y-139575944D01*
X239118286Y-139582825D01*
X239111100Y-139603709D01*
X239101745Y-139632924D01*
X239091399Y-139666699D01*
X239081237Y-139701266D01*
X239080604Y-139703475D01*
X239063811Y-139761412D01*
X239045969Y-139821605D01*
X239027835Y-139881594D01*
X239010166Y-139938922D01*
X238993719Y-139991127D01*
X238979251Y-140035752D01*
X238969233Y-140065425D01*
X238957810Y-140099756D01*
X238946013Y-140137528D01*
X238935765Y-140172513D01*
X238932304Y-140185179D01*
X238922877Y-140218332D01*
X238911144Y-140256130D01*
X238899285Y-140291617D01*
X238896496Y-140299479D01*
X238886660Y-140328028D01*
X238874838Y-140364250D01*
X238862437Y-140403736D01*
X238850866Y-140442076D01*
X238849591Y-140446419D01*
X238839673Y-140479616D01*
X238830216Y-140509962D01*
X238822107Y-140534708D01*
X238816230Y-140551101D01*
X238814858Y-140554369D01*
X238810644Y-140565041D01*
X238804087Y-140583905D01*
X238795023Y-140611484D01*
X238783287Y-140648303D01*
X238768714Y-140694884D01*
X238751140Y-140751753D01*
X238730398Y-140819433D01*
X238706326Y-140898447D01*
X238698002Y-140925850D01*
X238685462Y-140966660D01*
X238672941Y-141006529D01*
X238661314Y-141042731D01*
X238651458Y-141072538D01*
X238644249Y-141093223D01*
X238643916Y-141094125D01*
X238636593Y-141115265D01*
X238626856Y-141145391D01*
X238615675Y-141181400D01*
X238604017Y-141220191D01*
X238596120Y-141247235D01*
X238582290Y-141294299D01*
X238570866Y-141330631D01*
X238561213Y-141357710D01*
X238552696Y-141377011D01*
X238544681Y-141390013D01*
X238536532Y-141398190D01*
X238529477Y-141402258D01*
X238521223Y-141403442D01*
X238502422Y-141404517D01*
X238473551Y-141405477D01*
X238435086Y-141406315D01*
X238387505Y-141407025D01*
X238331284Y-141407599D01*
X238266900Y-141408031D01*
X238194830Y-141408315D01*
X238115552Y-141408443D01*
X238091090Y-141408450D01*
X238010433Y-141408416D01*
X237940147Y-141408305D01*
X237879579Y-141408106D01*
X237828078Y-141407804D01*
X237784989Y-141407388D01*
X237749660Y-141406844D01*
X237721439Y-141406160D01*
X237699672Y-141405323D01*
X237683707Y-141404320D01*
X237672891Y-141403137D01*
X237666571Y-141401764D01*
X237664094Y-141400186D01*
X237664051Y-141400075D01*
X237664505Y-141390922D01*
X237667830Y-141371931D01*
X237673480Y-141345341D01*
X237680909Y-141313389D01*
X237689573Y-141278315D01*
X237698925Y-141242356D01*
X237708422Y-141207749D01*
X237717517Y-141176734D01*
X237721766Y-141163201D01*
X237729024Y-141139949D01*
X237738666Y-141107902D01*
X237749718Y-141070362D01*
X237761205Y-141030630D01*
X237768433Y-141005225D01*
X237783973Y-140950751D01*
X237800967Y-140892129D01*
X237818721Y-140831676D01*
X237836542Y-140771709D01*
X237853739Y-140714545D01*
X237869617Y-140662503D01*
X237883484Y-140617898D01*
X237894647Y-140583050D01*
X237894680Y-140582950D01*
X237903673Y-140554748D01*
X237914851Y-140518493D01*
X237926992Y-140478206D01*
X237938877Y-140437911D01*
X237942851Y-140424200D01*
X237967477Y-140339209D01*
X237988902Y-140266197D01*
X238007173Y-140205005D01*
X238022340Y-140155476D01*
X238034449Y-140117451D01*
X238043548Y-140090773D01*
X238044368Y-140088521D01*
X238051022Y-140069070D01*
X238060180Y-140040434D01*
X238070944Y-140005511D01*
X238082420Y-139967197D01*
X238091491Y-139936121D01*
X238104239Y-139892484D01*
X238119426Y-139841437D01*
X238135692Y-139787494D01*
X238151678Y-139735170D01*
X238163471Y-139697125D01*
X238178145Y-139650086D01*
X238195117Y-139595517D01*
X238213009Y-139537863D01*
X238230442Y-139481566D01*
X238246038Y-139431068D01*
X238246236Y-139430425D01*
X238259647Y-139387090D01*
X238272929Y-139344481D01*
X238285274Y-139305166D01*
X238295874Y-139271714D01*
X238303922Y-139246694D01*
X238306145Y-139239925D01*
X238327757Y-139173868D01*
X238351370Y-139100162D01*
X238375583Y-139023240D01*
X238398995Y-138947533D01*
X238411468Y-138906550D01*
X238423831Y-138866212D01*
X238436943Y-138824388D01*
X238449580Y-138784924D01*
X238460515Y-138751664D01*
X238465062Y-138738275D01*
X238476447Y-138704306D01*
X238488305Y-138667302D01*
X238498717Y-138633309D01*
X238502364Y-138620800D01*
X238512329Y-138588279D01*
X238524250Y-138552909D01*
X238535707Y-138521840D01*
X238536752Y-138519200D01*
X238545936Y-138494735D01*
X238557301Y-138462288D01*
X238569468Y-138425898D01*
X238581062Y-138389603D01*
X238582225Y-138385850D01*
X238594528Y-138347375D01*
X238610124Y-138300744D01*
X238628174Y-138248289D01*
X238647838Y-138192340D01*
X238668278Y-138135230D01*
X238688654Y-138079291D01*
X238708129Y-138026853D01*
X238725864Y-137980249D01*
X238741018Y-137941811D01*
X238748410Y-137923906D01*
X238782677Y-137857425D01*
X238826786Y-137796490D01*
X238880633Y-137741170D01*
X238944114Y-137691532D01*
X239017127Y-137647645D01*
X239099567Y-137609576D01*
X239191330Y-137577392D01*
X239292312Y-137551163D01*
X239330052Y-137543356D01*
X239360537Y-137538898D01*
X239399515Y-137535432D01*
X239444854Y-137532954D01*
X239494420Y-137531463D01*
X239546080Y-137530956D01*
X239597702Y-137531432D01*
G37*
X239597702Y-137531432D02*
X239647152Y-137532888D01*
X239692298Y-137535323D01*
X239731006Y-137538733D01*
X239761144Y-137543117D01*
X239764447Y-137543785D01*
X239858564Y-137566293D01*
X239942972Y-137592183D01*
X240018700Y-137621965D01*
X240086777Y-137656146D01*
X240148231Y-137695234D01*
X240204092Y-137739737D01*
X240248454Y-137782740D01*
X240283137Y-137823057D01*
X240312912Y-137866282D01*
X240339282Y-137915085D01*
X240363751Y-137972136D01*
X240379581Y-138015579D01*
X240388961Y-138041746D01*
X240401353Y-138074869D01*
X240415041Y-138110427D01*
X240426572Y-138139576D01*
X240441220Y-138177676D01*
X240457077Y-138221567D01*
X240471917Y-138264971D01*
X240480596Y-138291982D01*
X240491974Y-138327693D01*
X240504409Y-138364993D01*
X240516287Y-138399125D01*
X240524832Y-138422338D01*
X240535144Y-138450664D01*
X240547175Y-138485966D01*
X240559220Y-138523148D01*
X240567079Y-138548673D01*
X240576664Y-138579785D01*
X240586061Y-138608709D01*
X240594146Y-138632075D01*
X240599487Y-138645829D01*
X240604776Y-138659801D01*
X240612640Y-138683156D01*
X240622214Y-138713208D01*
X240632634Y-138747272D01*
X240638529Y-138767144D01*
X240650230Y-138806396D01*
X240662691Y-138847103D01*
X240674657Y-138885236D01*
X240684876Y-138916763D01*
X240687844Y-138925600D01*
X240698982Y-138959329D01*
X240710697Y-138996435D01*
X240720951Y-139030429D01*
X240723680Y-139039900D01*
X240733264Y-139072358D01*
X240744284Y-139107669D01*
X240754515Y-139138719D01*
X240755472Y-139141500D01*
X240763895Y-139166832D01*
X240775540Y-139203431D01*
X240790166Y-139250505D01*
X240807531Y-139307263D01*
X240827394Y-139372914D01*
X240849512Y-139446667D01*
X240873644Y-139527732D01*
X240880564Y-139551075D01*
X240892117Y-139589485D01*
X240903715Y-139626996D01*
X240914403Y-139660597D01*
X240923230Y-139687279D01*
X240927817Y-139700300D01*
X240934425Y-139719530D01*
X240943583Y-139748109D01*
X240954447Y-139783300D01*
X240966172Y-139822369D01*
X240977812Y-139862225D01*
X240989285Y-139902004D01*
X241000712Y-139941428D01*
X241012398Y-139981510D01*
X241024644Y-140023268D01*
X241037753Y-140067716D01*
X241052027Y-140115870D01*
X241067769Y-140168747D01*
X241085282Y-140227360D01*
X241104867Y-140292727D01*
X241126828Y-140365863D01*
X241151466Y-140447784D01*
X241179085Y-140539505D01*
X241209986Y-140642042D01*
X241215144Y-140659150D01*
X241228978Y-140705199D01*
X241243394Y-140753472D01*
X241257375Y-140800538D01*
X241269900Y-140842966D01*
X241279953Y-140877329D01*
X241281134Y-140881400D01*
X241292321Y-140919661D01*
X241304446Y-140960527D01*
X241316048Y-140999113D01*
X241325669Y-141030536D01*
X241325697Y-141030625D01*
X241333194Y-141055096D01*
X241343416Y-141088961D01*
X241355573Y-141129575D01*
X241368874Y-141174295D01*
X241382531Y-141220476D01*
X241389848Y-141245339D01*
X241403720Y-141292933D01*
X241414200Y-141329901D01*
X241421598Y-141357581D01*
X241426224Y-141377307D01*
X241428386Y-141390419D01*
X241428396Y-141398251D01*
X241426561Y-141402141D01*
X241426235Y-141402404D01*
X241419333Y-141403489D01*
X241402450Y-141404466D01*
X241376630Y-141405335D01*
X241342915Y-141406094D01*
X241302350Y-141406746D01*
X241255976Y-141407289D01*
X241204837Y-141407724D01*
X241149977Y-141408050D01*
X241092438Y-141408269D01*
X241033264Y-141408379D01*
X240973498Y-141408381D01*
X240914183Y-141408276D01*
X240856362Y-141408062D01*
X240801078Y-141407741D01*
X240749375Y-141407311D01*
X240702296Y-141406775D01*
X240660884Y-141406130D01*
X240626182Y-141405378D01*
X240599234Y-141404518D01*
X240581082Y-141403551D01*
X240572769Y-141402477D01*
X240572502Y-141402353D01*
X240568942Y-141399181D01*
X240564900Y-141393337D01*
X240560107Y-141384026D01*
X240554292Y-141370449D01*
X240547184Y-141351810D01*
X240538514Y-141327311D01*
X240528010Y-141296156D01*
X240515403Y-141257548D01*
X240500421Y-141210689D01*
X240482795Y-141154782D01*
X240462254Y-141089031D01*
X240438527Y-141012638D01*
X240420216Y-140953496D01*
X240408123Y-140915311D01*
X240394270Y-140872985D01*
X240380616Y-140832441D01*
X240371925Y-140807446D01*
X240359585Y-140771406D01*
X240346526Y-140731265D01*
X240334726Y-140693181D01*
X240329398Y-140675025D01*
X240319215Y-140641016D01*
X240307506Y-140604543D01*
X240296245Y-140571674D01*
X240292244Y-140560725D01*
X240283207Y-140535242D01*
X240272069Y-140501742D01*
X240260145Y-140464283D01*
X240248750Y-140426924D01*
X240247004Y-140421025D01*
X240236254Y-140385277D01*
X240225226Y-140349900D01*
X240215077Y-140318520D01*
X240206960Y-140294763D01*
X240205536Y-140290850D01*
X240198229Y-140270002D01*
X240188431Y-140240475D01*
X240177224Y-140205607D01*
X240165690Y-140168735D01*
X240160972Y-140153334D01*
X240149741Y-140116918D01*
X240138509Y-140081375D01*
X240128318Y-140049945D01*
X240120210Y-140025866D01*
X240117576Y-140018450D01*
X240110578Y-139998124D01*
X240101184Y-139969196D01*
X240090487Y-139935115D01*
X240079582Y-139899324D01*
X240076581Y-139889266D01*
X240065048Y-139851320D01*
X240052611Y-139811900D01*
X240040642Y-139775270D01*
X240030513Y-139745694D01*
X240029037Y-139741575D01*
X240020447Y-139717009D01*
X240009176Y-139683586D01*
X239996249Y-139644410D01*
X239982691Y-139602585D01*
X239970333Y-139563775D01*
X239955477Y-139516939D01*
X239938783Y-139464776D01*
X239921765Y-139411990D01*
X239905938Y-139363286D01*
X239896720Y-139335175D01*
X239882295Y-139291058D01*
X239866464Y-139242063D01*
X239850784Y-139193045D01*
X239836812Y-139148858D01*
X239831537Y-139131975D01*
X239819511Y-139093459D01*
X239807882Y-139056622D01*
X239795877Y-139019079D01*
X239782726Y-138978443D01*
X239767659Y-138932327D01*
X239749904Y-138878347D01*
X239736157Y-138836700D01*
X239726685Y-138807885D01*
X239714767Y-138771411D01*
X239701787Y-138731525D01*
X239689130Y-138692476D01*
X239686487Y-138684300D01*
X239665293Y-138618681D01*
X239647510Y-138563957D01*
X239632658Y-138519140D01*
X239620258Y-138483242D01*
X239609833Y-138455274D01*
X239600902Y-138434248D01*
X239592986Y-138419176D01*
X239585608Y-138409070D01*
X239578287Y-138402942D01*
X239570545Y-138399802D01*
X239561903Y-138398663D01*
X239551882Y-138398537D01*
X239547998Y-138398550D01*
X239532533Y-138399468D01*
X239519242Y-138403004D01*
X239507445Y-138410332D01*
X239496460Y-138422625D01*
X239485606Y-138441056D01*
X239474204Y-138466799D01*
X239461572Y-138501027D01*
X239447030Y-138544913D01*
X239429897Y-138599630D01*
X239428267Y-138604925D01*
X239404282Y-138682837D01*
X239383631Y-138749800D01*
X239365989Y-138806844D01*
X239351033Y-138855001D01*
X239338437Y-138895300D01*
X239327879Y-138928774D01*
X239319032Y-138956453D01*
X239311574Y-138979367D01*
X239305180Y-138998548D01*
X239299525Y-139015027D01*
X239297148Y-139021800D01*
X239285893Y-139055451D01*
X239274088Y-139093613D01*
X239264057Y-139128735D01*
X239262941Y-139132925D01*
X239254945Y-139161061D01*
X239244040Y-139196407D01*
X239231644Y-139234492D01*
X239219177Y-139270846D01*
X239218884Y-139271675D01*
X239205801Y-139309650D01*
X239190948Y-139354457D01*
X239176028Y-139400873D01*
X239162740Y-139443676D01*
X239160989Y-139449475D01*
X239149923Y-139485714D01*
X239138832Y-139521044D01*
X239128760Y-139552207D01*
X239120750Y-139575944D01*
X239118286Y-139582825D01*
X239111100Y-139603709D01*
X239101745Y-139632924D01*
X239091399Y-139666699D01*
X239081237Y-139701266D01*
X239080604Y-139703475D01*
X239063811Y-139761412D01*
X239045969Y-139821605D01*
X239027835Y-139881594D01*
X239010166Y-139938922D01*
X238993719Y-139991127D01*
X238979251Y-140035752D01*
X238969233Y-140065425D01*
X238957810Y-140099756D01*
X238946013Y-140137528D01*
X238935765Y-140172513D01*
X238932304Y-140185179D01*
X238922877Y-140218332D01*
X238911144Y-140256130D01*
X238899285Y-140291617D01*
X238896496Y-140299479D01*
X238886660Y-140328028D01*
X238874838Y-140364250D01*
X238862437Y-140403736D01*
X238850866Y-140442076D01*
X238849591Y-140446419D01*
X238839673Y-140479616D01*
X238830216Y-140509962D01*
X238822107Y-140534708D01*
X238816230Y-140551101D01*
X238814858Y-140554369D01*
X238810644Y-140565041D01*
X238804087Y-140583905D01*
X238795023Y-140611484D01*
X238783287Y-140648303D01*
X238768714Y-140694884D01*
X238751140Y-140751753D01*
X238730398Y-140819433D01*
X238706326Y-140898447D01*
X238698002Y-140925850D01*
X238685462Y-140966660D01*
X238672941Y-141006529D01*
X238661314Y-141042731D01*
X238651458Y-141072538D01*
X238644249Y-141093223D01*
X238643916Y-141094125D01*
X238636593Y-141115265D01*
X238626856Y-141145391D01*
X238615675Y-141181400D01*
X238604017Y-141220191D01*
X238596120Y-141247235D01*
X238582290Y-141294299D01*
X238570866Y-141330631D01*
X238561213Y-141357710D01*
X238552696Y-141377011D01*
X238544681Y-141390013D01*
X238536532Y-141398190D01*
X238529477Y-141402258D01*
X238521223Y-141403442D01*
X238502422Y-141404517D01*
X238473551Y-141405477D01*
X238435086Y-141406315D01*
X238387505Y-141407025D01*
X238331284Y-141407599D01*
X238266900Y-141408031D01*
X238194830Y-141408315D01*
X238115552Y-141408443D01*
X238091090Y-141408450D01*
X238010433Y-141408416D01*
X237940147Y-141408305D01*
X237879579Y-141408106D01*
X237828078Y-141407804D01*
X237784989Y-141407388D01*
X237749660Y-141406844D01*
X237721439Y-141406160D01*
X237699672Y-141405323D01*
X237683707Y-141404320D01*
X237672891Y-141403137D01*
X237666571Y-141401764D01*
X237664094Y-141400186D01*
X237664051Y-141400075D01*
X237664505Y-141390922D01*
X237667830Y-141371931D01*
X237673480Y-141345341D01*
X237680909Y-141313389D01*
X237689573Y-141278315D01*
X237698925Y-141242356D01*
X237708422Y-141207749D01*
X237717517Y-141176734D01*
X237721766Y-141163201D01*
X237729024Y-141139949D01*
X237738666Y-141107902D01*
X237749718Y-141070362D01*
X237761205Y-141030630D01*
X237768433Y-141005225D01*
X237783973Y-140950751D01*
X237800967Y-140892129D01*
X237818721Y-140831676D01*
X237836542Y-140771709D01*
X237853739Y-140714545D01*
X237869617Y-140662503D01*
X237883484Y-140617898D01*
X237894647Y-140583050D01*
X237894680Y-140582950D01*
X237903673Y-140554748D01*
X237914851Y-140518493D01*
X237926992Y-140478206D01*
X237938877Y-140437911D01*
X237942851Y-140424200D01*
X237967477Y-140339209D01*
X237988902Y-140266197D01*
X238007173Y-140205005D01*
X238022340Y-140155476D01*
X238034449Y-140117451D01*
X238043548Y-140090773D01*
X238044368Y-140088521D01*
X238051022Y-140069070D01*
X238060180Y-140040434D01*
X238070944Y-140005511D01*
X238082420Y-139967197D01*
X238091491Y-139936121D01*
X238104239Y-139892484D01*
X238119426Y-139841437D01*
X238135692Y-139787494D01*
X238151678Y-139735170D01*
X238163471Y-139697125D01*
X238178145Y-139650086D01*
X238195117Y-139595517D01*
X238213009Y-139537863D01*
X238230442Y-139481566D01*
X238246038Y-139431068D01*
X238246236Y-139430425D01*
X238259647Y-139387090D01*
X238272929Y-139344481D01*
X238285274Y-139305166D01*
X238295874Y-139271714D01*
X238303922Y-139246694D01*
X238306145Y-139239925D01*
X238327757Y-139173868D01*
X238351370Y-139100162D01*
X238375583Y-139023240D01*
X238398995Y-138947533D01*
X238411468Y-138906550D01*
X238423831Y-138866212D01*
X238436943Y-138824388D01*
X238449580Y-138784924D01*
X238460515Y-138751664D01*
X238465062Y-138738275D01*
X238476447Y-138704306D01*
X238488305Y-138667302D01*
X238498717Y-138633309D01*
X238502364Y-138620800D01*
X238512329Y-138588279D01*
X238524250Y-138552909D01*
X238535707Y-138521840D01*
X238536752Y-138519200D01*
X238545936Y-138494735D01*
X238557301Y-138462288D01*
X238569468Y-138425898D01*
X238581062Y-138389603D01*
X238582225Y-138385850D01*
X238594528Y-138347375D01*
X238610124Y-138300744D01*
X238628174Y-138248289D01*
X238647838Y-138192340D01*
X238668278Y-138135230D01*
X238688654Y-138079291D01*
X238708129Y-138026853D01*
X238725864Y-137980249D01*
X238741018Y-137941811D01*
X238748410Y-137923906D01*
X238782677Y-137857425D01*
X238826786Y-137796490D01*
X238880633Y-137741170D01*
X238944114Y-137691532D01*
X239017127Y-137647645D01*
X239099567Y-137609576D01*
X239191330Y-137577392D01*
X239292312Y-137551163D01*
X239330052Y-137543356D01*
X239360537Y-137538898D01*
X239399515Y-137535432D01*
X239444854Y-137532954D01*
X239494420Y-137531463D01*
X239546080Y-137530956D01*
X239597702Y-137531432D01*
G36*
X236527138Y-137546855D02*
G01*
X236624822Y-137546957D01*
X236720314Y-137547116D01*
X236813002Y-137547331D01*
X236902273Y-137547600D01*
X236987516Y-137547922D01*
X237068119Y-137548296D01*
X237143470Y-137548719D01*
X237212958Y-137549191D01*
X237275969Y-137549709D01*
X237331894Y-137550273D01*
X237380119Y-137550881D01*
X237420034Y-137551530D01*
X237451025Y-137552221D01*
X237472482Y-137552951D01*
X237483792Y-137553719D01*
X237485389Y-137554064D01*
X237487615Y-137555720D01*
X237489516Y-137558365D01*
X237491118Y-137562941D01*
X237492446Y-137570395D01*
X237493526Y-137581670D01*
X237494383Y-137597711D01*
X237495043Y-137619462D01*
X237495533Y-137647869D01*
X237495877Y-137683876D01*
X237496100Y-137728427D01*
X237496230Y-137782467D01*
X237496291Y-137846941D01*
X237496309Y-137922794D01*
X237496309Y-137956464D01*
X237496298Y-138037220D01*
X237496248Y-138106231D01*
X237496134Y-138164447D01*
X237495932Y-138212825D01*
X237495618Y-138252315D01*
X237495167Y-138283873D01*
X237494555Y-138308450D01*
X237493758Y-138327002D01*
X237492751Y-138340481D01*
X237491510Y-138349840D01*
X237490010Y-138356032D01*
X237488228Y-138360012D01*
X237486137Y-138362733D01*
X237485909Y-138362974D01*
X237484128Y-138364324D01*
X237481171Y-138365556D01*
X237476561Y-138366675D01*
X237469817Y-138367686D01*
X237460463Y-138368594D01*
X237448019Y-138369403D01*
X237432007Y-138370119D01*
X237411949Y-138370746D01*
X237387366Y-138371288D01*
X237357780Y-138371751D01*
X237322713Y-138372140D01*
X237281685Y-138372458D01*
X237234219Y-138372712D01*
X237179836Y-138372906D01*
X237118058Y-138373044D01*
X237048406Y-138373131D01*
X236970402Y-138373173D01*
X236883567Y-138373173D01*
X236787424Y-138373137D01*
X236681492Y-138373070D01*
X236565295Y-138372976D01*
X236492344Y-138372910D01*
X236388600Y-138372840D01*
X236287556Y-138372823D01*
X236189787Y-138372856D01*
X236095870Y-138372938D01*
X236006379Y-138373065D01*
X235921890Y-138373237D01*
X235842979Y-138373451D01*
X235770221Y-138373704D01*
X235704191Y-138373995D01*
X235645465Y-138374322D01*
X235594619Y-138374682D01*
X235552228Y-138375073D01*
X235518868Y-138375494D01*
X235495114Y-138375942D01*
X235481541Y-138376414D01*
X235478862Y-138376642D01*
X235447807Y-138385485D01*
X235413563Y-138401950D01*
X235379963Y-138423869D01*
X235351122Y-138448790D01*
X235330223Y-138474856D01*
X235309714Y-138508783D01*
X235292086Y-138545963D01*
X235280435Y-138579525D01*
X235273820Y-138598775D01*
X235266183Y-138614343D01*
X235264569Y-138616704D01*
X235260778Y-138623908D01*
X235258221Y-138635209D01*
X235256698Y-138652802D01*
X235256010Y-138678885D01*
X235255944Y-138711954D01*
X235256390Y-138749201D01*
X235257616Y-138776996D01*
X235259956Y-138798576D01*
X235263746Y-138817177D01*
X235268505Y-138833525D01*
X235293005Y-138893035D01*
X235325317Y-138943789D01*
X235365084Y-138985373D01*
X235411948Y-139017372D01*
X235437470Y-139029458D01*
X235445168Y-139030643D01*
X235462468Y-139031769D01*
X235489503Y-139032839D01*
X235526409Y-139033855D01*
X235573321Y-139034818D01*
X235630373Y-139035730D01*
X235697701Y-139036595D01*
X235775439Y-139037413D01*
X235863723Y-139038187D01*
X235962686Y-139038919D01*
X236072465Y-139039610D01*
X236137564Y-139039975D01*
X236238474Y-139040519D01*
X236328989Y-139041019D01*
X236409739Y-139041491D01*
X236481352Y-139041950D01*
X236544458Y-139042410D01*
X236599687Y-139042889D01*
X236647666Y-139043399D01*
X236689026Y-139043958D01*
X236724396Y-139044581D01*
X236754405Y-139045281D01*
X236779682Y-139046076D01*
X236800857Y-139046980D01*
X236818559Y-139048008D01*
X236833417Y-139049176D01*
X236846061Y-139050500D01*
X236857119Y-139051993D01*
X236867220Y-139053672D01*
X236876995Y-139055552D01*
X236887073Y-139057649D01*
X236889973Y-139058264D01*
X236955147Y-139074879D01*
X237020896Y-139096784D01*
X237083360Y-139122543D01*
X237138490Y-139150615D01*
X237222357Y-139205639D01*
X237300569Y-139271167D01*
X237372559Y-139346437D01*
X237437763Y-139430688D01*
X237495615Y-139523157D01*
X237545548Y-139623083D01*
X237586997Y-139729705D01*
X237600743Y-139772946D01*
X237618839Y-139835959D01*
X237633191Y-139892307D01*
X237644262Y-139945071D01*
X237652515Y-139997326D01*
X237658415Y-140052151D01*
X237662424Y-140112624D01*
X237665007Y-140181824D01*
X237665537Y-140203134D01*
X237666547Y-140253754D01*
X237666874Y-140295906D01*
X237666264Y-140332236D01*
X237664461Y-140365394D01*
X237661211Y-140398028D01*
X237656260Y-140432787D01*
X237649354Y-140472319D01*
X237640236Y-140519272D01*
X237630570Y-140566941D01*
X237617912Y-140626276D01*
X237606016Y-140675844D01*
X237594005Y-140718435D01*
X237581001Y-140756842D01*
X237566128Y-140793856D01*
X237548509Y-140832267D01*
X237544836Y-140839838D01*
X237488540Y-140944841D01*
X237427743Y-141038401D01*
X237362053Y-141120855D01*
X237291082Y-141192543D01*
X237214439Y-141253806D01*
X237131733Y-141304981D01*
X237042575Y-141346408D01*
X236946574Y-141378427D01*
X236916607Y-141386194D01*
X236849267Y-141402573D01*
X235719634Y-141403924D01*
X235568681Y-141404073D01*
X235428428Y-141404148D01*
X235298898Y-141404148D01*
X235180117Y-141404073D01*
X235072109Y-141403924D01*
X234974897Y-141403701D01*
X234888506Y-141403404D01*
X234812961Y-141403032D01*
X234748285Y-141402586D01*
X234694502Y-141402067D01*
X234651638Y-141401474D01*
X234619716Y-141400806D01*
X234598760Y-141400066D01*
X234588796Y-141399252D01*
X234587896Y-141398925D01*
X234587549Y-141391619D01*
X234587265Y-141372707D01*
X234587044Y-141343283D01*
X234586890Y-141304441D01*
X234586803Y-141257275D01*
X234586786Y-141202877D01*
X234586840Y-141142344D01*
X234586967Y-141076767D01*
X234587169Y-141007241D01*
X234587220Y-140992525D01*
X234588649Y-140592475D01*
X236600585Y-140586125D01*
X236632837Y-140571958D01*
X236663739Y-140556811D01*
X236688157Y-140540411D01*
X236710480Y-140519396D01*
X236728199Y-140498936D01*
X236759800Y-140454516D01*
X236783191Y-140407420D01*
X236799172Y-140355302D01*
X236808546Y-140295816D01*
X236811331Y-140255650D01*
X236811841Y-140195095D01*
X236807442Y-140143001D01*
X236797684Y-140096215D01*
X236782312Y-140052043D01*
X236754603Y-139998935D01*
X236719829Y-139955542D01*
X236678268Y-139922111D01*
X236630203Y-139898890D01*
X236597829Y-139889847D01*
X236588175Y-139888575D01*
X236571417Y-139887380D01*
X236547211Y-139886258D01*
X236515213Y-139885203D01*
X236475082Y-139884208D01*
X236426473Y-139883270D01*
X236369044Y-139882381D01*
X236302451Y-139881536D01*
X236226350Y-139880729D01*
X236140399Y-139879955D01*
X236044254Y-139879209D01*
X235937573Y-139878484D01*
X235889517Y-139878184D01*
X235789450Y-139877573D01*
X235699784Y-139877012D01*
X235619896Y-139876485D01*
X235549162Y-139875978D01*
X235486960Y-139875474D01*
X235432666Y-139874958D01*
X235385657Y-139874414D01*
X235345309Y-139873826D01*
X235311000Y-139873179D01*
X235282107Y-139872457D01*
X235258006Y-139871645D01*
X235238073Y-139870727D01*
X235221687Y-139869687D01*
X235208222Y-139868509D01*
X235197058Y-139867179D01*
X235187569Y-139865679D01*
X235179133Y-139863995D01*
X235171127Y-139862112D01*
X235162928Y-139860012D01*
X235162633Y-139859936D01*
X235061839Y-139828205D01*
X234968317Y-139787208D01*
X234881656Y-139736600D01*
X234801447Y-139676040D01*
X234727277Y-139605182D01*
X234658735Y-139523685D01*
X234595411Y-139431205D01*
X234546225Y-139345305D01*
X234524687Y-139301068D01*
X234504230Y-139251375D01*
X234484131Y-139194232D01*
X234463666Y-139127646D01*
X234451463Y-139084350D01*
X234443208Y-139054926D01*
X234435681Y-139029300D01*
X234429728Y-139010284D01*
X234426270Y-139000834D01*
X234422310Y-138986512D01*
X234418613Y-138961127D01*
X234415286Y-138926315D01*
X234412435Y-138883710D01*
X234410167Y-138834949D01*
X234408587Y-138781667D01*
X234407802Y-138725500D01*
X234407757Y-138716071D01*
X234408397Y-138639679D01*
X234411152Y-138572834D01*
X234416402Y-138512537D01*
X234424529Y-138455794D01*
X234435913Y-138399606D01*
X234450934Y-138340979D01*
X234459036Y-138312825D01*
X234493020Y-138209916D01*
X234530894Y-138118037D01*
X234573114Y-138036149D01*
X234598135Y-137995325D01*
X234634573Y-137943078D01*
X234676313Y-137889437D01*
X234720712Y-137837488D01*
X234765126Y-137790317D01*
X234806912Y-137751011D01*
X234808593Y-137749559D01*
X234875727Y-137698603D01*
X234951808Y-137653297D01*
X235035680Y-137614214D01*
X235126187Y-137581926D01*
X235175693Y-137567958D01*
X235239083Y-137551622D01*
X235564300Y-137549325D01*
X235650260Y-137548770D01*
X235740146Y-137548288D01*
X235833345Y-137547876D01*
X235929247Y-137547534D01*
X236027239Y-137547260D01*
X236126709Y-137547052D01*
X236227046Y-137546909D01*
X236327638Y-137546830D01*
X236427872Y-137546812D01*
X236527138Y-137546855D01*
G37*
X236527138Y-137546855D02*
X236624822Y-137546957D01*
X236720314Y-137547116D01*
X236813002Y-137547331D01*
X236902273Y-137547600D01*
X236987516Y-137547922D01*
X237068119Y-137548296D01*
X237143470Y-137548719D01*
X237212958Y-137549191D01*
X237275969Y-137549709D01*
X237331894Y-137550273D01*
X237380119Y-137550881D01*
X237420034Y-137551530D01*
X237451025Y-137552221D01*
X237472482Y-137552951D01*
X237483792Y-137553719D01*
X237485389Y-137554064D01*
X237487615Y-137555720D01*
X237489516Y-137558365D01*
X237491118Y-137562941D01*
X237492446Y-137570395D01*
X237493526Y-137581670D01*
X237494383Y-137597711D01*
X237495043Y-137619462D01*
X237495533Y-137647869D01*
X237495877Y-137683876D01*
X237496100Y-137728427D01*
X237496230Y-137782467D01*
X237496291Y-137846941D01*
X237496309Y-137922794D01*
X237496309Y-137956464D01*
X237496298Y-138037220D01*
X237496248Y-138106231D01*
X237496134Y-138164447D01*
X237495932Y-138212825D01*
X237495618Y-138252315D01*
X237495167Y-138283873D01*
X237494555Y-138308450D01*
X237493758Y-138327002D01*
X237492751Y-138340481D01*
X237491510Y-138349840D01*
X237490010Y-138356032D01*
X237488228Y-138360012D01*
X237486137Y-138362733D01*
X237485909Y-138362974D01*
X237484128Y-138364324D01*
X237481171Y-138365556D01*
X237476561Y-138366675D01*
X237469817Y-138367686D01*
X237460463Y-138368594D01*
X237448019Y-138369403D01*
X237432007Y-138370119D01*
X237411949Y-138370746D01*
X237387366Y-138371288D01*
X237357780Y-138371751D01*
X237322713Y-138372140D01*
X237281685Y-138372458D01*
X237234219Y-138372712D01*
X237179836Y-138372906D01*
X237118058Y-138373044D01*
X237048406Y-138373131D01*
X236970402Y-138373173D01*
X236883567Y-138373173D01*
X236787424Y-138373137D01*
X236681492Y-138373070D01*
X236565295Y-138372976D01*
X236492344Y-138372910D01*
X236388600Y-138372840D01*
X236287556Y-138372823D01*
X236189787Y-138372856D01*
X236095870Y-138372938D01*
X236006379Y-138373065D01*
X235921890Y-138373237D01*
X235842979Y-138373451D01*
X235770221Y-138373704D01*
X235704191Y-138373995D01*
X235645465Y-138374322D01*
X235594619Y-138374682D01*
X235552228Y-138375073D01*
X235518868Y-138375494D01*
X235495114Y-138375942D01*
X235481541Y-138376414D01*
X235478862Y-138376642D01*
X235447807Y-138385485D01*
X235413563Y-138401950D01*
X235379963Y-138423869D01*
X235351122Y-138448790D01*
X235330223Y-138474856D01*
X235309714Y-138508783D01*
X235292086Y-138545963D01*
X235280435Y-138579525D01*
X235273820Y-138598775D01*
X235266183Y-138614343D01*
X235264569Y-138616704D01*
X235260778Y-138623908D01*
X235258221Y-138635209D01*
X235256698Y-138652802D01*
X235256010Y-138678885D01*
X235255944Y-138711954D01*
X235256390Y-138749201D01*
X235257616Y-138776996D01*
X235259956Y-138798576D01*
X235263746Y-138817177D01*
X235268505Y-138833525D01*
X235293005Y-138893035D01*
X235325317Y-138943789D01*
X235365084Y-138985373D01*
X235411948Y-139017372D01*
X235437470Y-139029458D01*
X235445168Y-139030643D01*
X235462468Y-139031769D01*
X235489503Y-139032839D01*
X235526409Y-139033855D01*
X235573321Y-139034818D01*
X235630373Y-139035730D01*
X235697701Y-139036595D01*
X235775439Y-139037413D01*
X235863723Y-139038187D01*
X235962686Y-139038919D01*
X236072465Y-139039610D01*
X236137564Y-139039975D01*
X236238474Y-139040519D01*
X236328989Y-139041019D01*
X236409739Y-139041491D01*
X236481352Y-139041950D01*
X236544458Y-139042410D01*
X236599687Y-139042889D01*
X236647666Y-139043399D01*
X236689026Y-139043958D01*
X236724396Y-139044581D01*
X236754405Y-139045281D01*
X236779682Y-139046076D01*
X236800857Y-139046980D01*
X236818559Y-139048008D01*
X236833417Y-139049176D01*
X236846061Y-139050500D01*
X236857119Y-139051993D01*
X236867220Y-139053672D01*
X236876995Y-139055552D01*
X236887073Y-139057649D01*
X236889973Y-139058264D01*
X236955147Y-139074879D01*
X237020896Y-139096784D01*
X237083360Y-139122543D01*
X237138490Y-139150615D01*
X237222357Y-139205639D01*
X237300569Y-139271167D01*
X237372559Y-139346437D01*
X237437763Y-139430688D01*
X237495615Y-139523157D01*
X237545548Y-139623083D01*
X237586997Y-139729705D01*
X237600743Y-139772946D01*
X237618839Y-139835959D01*
X237633191Y-139892307D01*
X237644262Y-139945071D01*
X237652515Y-139997326D01*
X237658415Y-140052151D01*
X237662424Y-140112624D01*
X237665007Y-140181824D01*
X237665537Y-140203134D01*
X237666547Y-140253754D01*
X237666874Y-140295906D01*
X237666264Y-140332236D01*
X237664461Y-140365394D01*
X237661211Y-140398028D01*
X237656260Y-140432787D01*
X237649354Y-140472319D01*
X237640236Y-140519272D01*
X237630570Y-140566941D01*
X237617912Y-140626276D01*
X237606016Y-140675844D01*
X237594005Y-140718435D01*
X237581001Y-140756842D01*
X237566128Y-140793856D01*
X237548509Y-140832267D01*
X237544836Y-140839838D01*
X237488540Y-140944841D01*
X237427743Y-141038401D01*
X237362053Y-141120855D01*
X237291082Y-141192543D01*
X237214439Y-141253806D01*
X237131733Y-141304981D01*
X237042575Y-141346408D01*
X236946574Y-141378427D01*
X236916607Y-141386194D01*
X236849267Y-141402573D01*
X235719634Y-141403924D01*
X235568681Y-141404073D01*
X235428428Y-141404148D01*
X235298898Y-141404148D01*
X235180117Y-141404073D01*
X235072109Y-141403924D01*
X234974897Y-141403701D01*
X234888506Y-141403404D01*
X234812961Y-141403032D01*
X234748285Y-141402586D01*
X234694502Y-141402067D01*
X234651638Y-141401474D01*
X234619716Y-141400806D01*
X234598760Y-141400066D01*
X234588796Y-141399252D01*
X234587896Y-141398925D01*
X234587549Y-141391619D01*
X234587265Y-141372707D01*
X234587044Y-141343283D01*
X234586890Y-141304441D01*
X234586803Y-141257275D01*
X234586786Y-141202877D01*
X234586840Y-141142344D01*
X234586967Y-141076767D01*
X234587169Y-141007241D01*
X234587220Y-140992525D01*
X234588649Y-140592475D01*
X236600585Y-140586125D01*
X236632837Y-140571958D01*
X236663739Y-140556811D01*
X236688157Y-140540411D01*
X236710480Y-140519396D01*
X236728199Y-140498936D01*
X236759800Y-140454516D01*
X236783191Y-140407420D01*
X236799172Y-140355302D01*
X236808546Y-140295816D01*
X236811331Y-140255650D01*
X236811841Y-140195095D01*
X236807442Y-140143001D01*
X236797684Y-140096215D01*
X236782312Y-140052043D01*
X236754603Y-139998935D01*
X236719829Y-139955542D01*
X236678268Y-139922111D01*
X236630203Y-139898890D01*
X236597829Y-139889847D01*
X236588175Y-139888575D01*
X236571417Y-139887380D01*
X236547211Y-139886258D01*
X236515213Y-139885203D01*
X236475082Y-139884208D01*
X236426473Y-139883270D01*
X236369044Y-139882381D01*
X236302451Y-139881536D01*
X236226350Y-139880729D01*
X236140399Y-139879955D01*
X236044254Y-139879209D01*
X235937573Y-139878484D01*
X235889517Y-139878184D01*
X235789450Y-139877573D01*
X235699784Y-139877012D01*
X235619896Y-139876485D01*
X235549162Y-139875978D01*
X235486960Y-139875474D01*
X235432666Y-139874958D01*
X235385657Y-139874414D01*
X235345309Y-139873826D01*
X235311000Y-139873179D01*
X235282107Y-139872457D01*
X235258006Y-139871645D01*
X235238073Y-139870727D01*
X235221687Y-139869687D01*
X235208222Y-139868509D01*
X235197058Y-139867179D01*
X235187569Y-139865679D01*
X235179133Y-139863995D01*
X235171127Y-139862112D01*
X235162928Y-139860012D01*
X235162633Y-139859936D01*
X235061839Y-139828205D01*
X234968317Y-139787208D01*
X234881656Y-139736600D01*
X234801447Y-139676040D01*
X234727277Y-139605182D01*
X234658735Y-139523685D01*
X234595411Y-139431205D01*
X234546225Y-139345305D01*
X234524687Y-139301068D01*
X234504230Y-139251375D01*
X234484131Y-139194232D01*
X234463666Y-139127646D01*
X234451463Y-139084350D01*
X234443208Y-139054926D01*
X234435681Y-139029300D01*
X234429728Y-139010284D01*
X234426270Y-139000834D01*
X234422310Y-138986512D01*
X234418613Y-138961127D01*
X234415286Y-138926315D01*
X234412435Y-138883710D01*
X234410167Y-138834949D01*
X234408587Y-138781667D01*
X234407802Y-138725500D01*
X234407757Y-138716071D01*
X234408397Y-138639679D01*
X234411152Y-138572834D01*
X234416402Y-138512537D01*
X234424529Y-138455794D01*
X234435913Y-138399606D01*
X234450934Y-138340979D01*
X234459036Y-138312825D01*
X234493020Y-138209916D01*
X234530894Y-138118037D01*
X234573114Y-138036149D01*
X234598135Y-137995325D01*
X234634573Y-137943078D01*
X234676313Y-137889437D01*
X234720712Y-137837488D01*
X234765126Y-137790317D01*
X234806912Y-137751011D01*
X234808593Y-137749559D01*
X234875727Y-137698603D01*
X234951808Y-137653297D01*
X235035680Y-137614214D01*
X235126187Y-137581926D01*
X235175693Y-137567958D01*
X235239083Y-137551622D01*
X235564300Y-137549325D01*
X235650260Y-137548770D01*
X235740146Y-137548288D01*
X235833345Y-137547876D01*
X235929247Y-137547534D01*
X236027239Y-137547260D01*
X236126709Y-137547052D01*
X236227046Y-137546909D01*
X236327638Y-137546830D01*
X236427872Y-137546812D01*
X236527138Y-137546855D01*
G36*
X226209455Y-137479339D02*
G01*
X226295747Y-137492850D01*
X226376571Y-137513923D01*
X226453281Y-137542950D01*
X226527230Y-137580324D01*
X226599773Y-137626439D01*
X226637362Y-137653982D01*
X226674680Y-137685335D01*
X226715973Y-137724842D01*
X226759089Y-137770097D01*
X226801875Y-137818695D01*
X226842181Y-137868232D01*
X226877854Y-137916301D01*
X226895607Y-137942614D01*
X226955572Y-138043133D01*
X227013363Y-138155428D01*
X227068666Y-138278757D01*
X227121162Y-138412378D01*
X227170536Y-138555548D01*
X227205233Y-138668425D01*
X227217096Y-138708702D01*
X227228542Y-138747014D01*
X227238837Y-138780948D01*
X227247248Y-138808091D01*
X227253042Y-138826031D01*
X227253749Y-138828094D01*
X227259210Y-138845837D01*
X227266608Y-138872779D01*
X227275132Y-138905819D01*
X227283971Y-138941859D01*
X227287843Y-138958269D01*
X227297521Y-138998891D01*
X227308158Y-139042003D01*
X227318608Y-139083054D01*
X227327729Y-139117494D01*
X227329662Y-139124520D01*
X227337495Y-139154349D01*
X227346905Y-139192766D01*
X227357001Y-139235984D01*
X227366892Y-139280214D01*
X227372990Y-139308670D01*
X227382039Y-139350554D01*
X227391693Y-139393130D01*
X227401124Y-139432883D01*
X227409502Y-139466297D01*
X227414402Y-139484400D01*
X227421532Y-139511136D01*
X227430315Y-139546719D01*
X227439918Y-139587622D01*
X227449507Y-139630317D01*
X227455840Y-139659739D01*
X227465406Y-139703566D01*
X227476096Y-139749989D01*
X227486920Y-139794860D01*
X227496887Y-139834033D01*
X227502137Y-139853414D01*
X227512301Y-139890441D01*
X227522845Y-139930160D01*
X227532402Y-139967351D01*
X227538567Y-139992400D01*
X227545902Y-140021570D01*
X227555857Y-140058818D01*
X227567823Y-140102073D01*
X227581194Y-140149263D01*
X227595361Y-140198316D01*
X227609718Y-140247163D01*
X227623656Y-140293731D01*
X227636569Y-140335950D01*
X227647849Y-140371748D01*
X227656889Y-140399055D01*
X227661834Y-140412718D01*
X227690075Y-140475600D01*
X227720997Y-140526293D01*
X227754719Y-140564958D01*
X227791358Y-140591759D01*
X227791753Y-140591975D01*
X227824206Y-140606007D01*
X227858434Y-140614613D01*
X227890676Y-140617121D01*
X227914013Y-140613869D01*
X227932790Y-140604713D01*
X227951777Y-140589570D01*
X227967840Y-140571583D01*
X227977841Y-140553898D01*
X227979330Y-140548361D01*
X227981637Y-140536007D01*
X227985713Y-140515472D01*
X227990731Y-140490920D01*
X227991399Y-140487700D01*
X227992629Y-140481267D01*
X227993753Y-140473947D01*
X227994779Y-140465169D01*
X227995709Y-140454366D01*
X227996551Y-140440967D01*
X227997308Y-140424405D01*
X227997986Y-140404110D01*
X227998590Y-140379514D01*
X227999126Y-140350048D01*
X227999598Y-140315142D01*
X228000012Y-140274228D01*
X228000372Y-140226737D01*
X228000685Y-140172101D01*
X228000954Y-140109750D01*
X228001186Y-140039115D01*
X228001385Y-139959628D01*
X228001556Y-139870720D01*
X228001706Y-139771821D01*
X228001838Y-139662364D01*
X228001958Y-139541778D01*
X228002071Y-139409496D01*
X228002156Y-139300250D01*
X228002295Y-139145260D01*
X228002472Y-139002646D01*
X228002687Y-138872084D01*
X228002943Y-138753249D01*
X228003242Y-138645816D01*
X228003586Y-138549463D01*
X228003976Y-138463863D01*
X228004415Y-138388694D01*
X228004904Y-138323631D01*
X228005447Y-138268350D01*
X228006043Y-138222526D01*
X228006697Y-138185835D01*
X228007409Y-138157953D01*
X228008181Y-138138556D01*
X228009016Y-138127319D01*
X228009277Y-138125500D01*
X228018645Y-138079359D01*
X228029718Y-138038506D01*
X228044161Y-137997509D01*
X228060676Y-137957698D01*
X228082647Y-137909534D01*
X228103254Y-137870001D01*
X228124601Y-137835674D01*
X228148790Y-137803130D01*
X228173487Y-137773933D01*
X228239163Y-137708229D01*
X228313512Y-137649753D01*
X228395967Y-137598796D01*
X228485966Y-137555654D01*
X228582942Y-137520620D01*
X228686331Y-137493987D01*
X228726474Y-137486255D01*
X228750331Y-137482575D01*
X228776018Y-137479740D01*
X228805280Y-137477661D01*
X228839865Y-137476250D01*
X228881518Y-137475416D01*
X228931984Y-137475073D01*
X228946961Y-137475053D01*
X229000745Y-137475253D01*
X229045505Y-137476111D01*
X229083235Y-137477939D01*
X229115930Y-137481046D01*
X229145586Y-137485743D01*
X229174197Y-137492340D01*
X229203759Y-137501149D01*
X229236267Y-137512480D01*
X229270561Y-137525425D01*
X229361321Y-137567063D01*
X229447630Y-137620171D01*
X229529233Y-137684475D01*
X229605874Y-137759699D01*
X229677298Y-137845569D01*
X229743250Y-137941812D01*
X229803473Y-138048152D01*
X229851525Y-138149857D01*
X229866183Y-138183516D01*
X229879689Y-138214205D01*
X229891053Y-138239695D01*
X229899280Y-138257755D01*
X229902856Y-138265200D01*
X229909846Y-138281715D01*
X229918799Y-138307175D01*
X229928743Y-138338281D01*
X229938703Y-138371736D01*
X229947707Y-138404243D01*
X229954781Y-138432505D01*
X229958951Y-138453224D01*
X229959417Y-138456761D01*
X229963763Y-138478890D01*
X229970707Y-138488779D01*
X229971557Y-138489103D01*
X229977593Y-138496362D01*
X229984801Y-138515118D01*
X229993348Y-138545835D01*
X229996304Y-138557891D01*
X230004201Y-138589905D01*
X230014242Y-138629182D01*
X230025180Y-138670904D01*
X230035763Y-138710251D01*
X230036481Y-138712875D01*
X230047822Y-138755054D01*
X230060477Y-138803399D01*
X230072868Y-138851818D01*
X230083026Y-138892612D01*
X230092761Y-138931217D01*
X230103450Y-138971544D01*
X230113878Y-139009129D01*
X230122832Y-139039507D01*
X230123854Y-139042787D01*
X230130968Y-139066529D01*
X230139753Y-139097549D01*
X230149694Y-139133851D01*
X230160276Y-139173440D01*
X230170986Y-139214318D01*
X230181308Y-139254489D01*
X230190728Y-139291956D01*
X230198733Y-139324724D01*
X230204806Y-139350795D01*
X230208434Y-139368173D01*
X230209244Y-139374144D01*
X230213320Y-139386650D01*
X230217451Y-139391624D01*
X230221303Y-139399509D01*
X230227414Y-139417264D01*
X230235143Y-139442504D01*
X230243850Y-139472845D01*
X230252894Y-139505905D01*
X230261636Y-139539298D01*
X230269434Y-139570643D01*
X230275649Y-139597554D01*
X230279640Y-139617648D01*
X230280805Y-139627467D01*
X230282918Y-139639051D01*
X230288462Y-139658636D01*
X230296382Y-139682622D01*
X230299366Y-139690967D01*
X230307867Y-139716697D01*
X230317809Y-139750582D01*
X230328022Y-139788442D01*
X230337338Y-139826093D01*
X230338357Y-139830475D01*
X230349878Y-139879776D01*
X230359232Y-139918297D01*
X230366851Y-139947598D01*
X230373165Y-139969239D01*
X230378608Y-139984781D01*
X230383609Y-139995786D01*
X230384504Y-139997421D01*
X230391295Y-140013729D01*
X230396778Y-140033834D01*
X230397107Y-140035521D01*
X230401358Y-140056044D01*
X230407632Y-140082625D01*
X230416222Y-140116372D01*
X230427418Y-140158395D01*
X230441513Y-140209802D01*
X230458798Y-140271702D01*
X230465980Y-140297200D01*
X230478531Y-140342368D01*
X230490850Y-140387961D01*
X230502189Y-140431115D01*
X230511800Y-140468970D01*
X230518936Y-140498662D01*
X230520744Y-140506750D01*
X230528185Y-140538303D01*
X230536455Y-140568961D01*
X230544314Y-140594305D01*
X230548340Y-140605175D01*
X230556002Y-140626878D01*
X230564336Y-140655478D01*
X230571753Y-140685442D01*
X230572941Y-140690900D01*
X230582272Y-140731263D01*
X230594295Y-140778067D01*
X230607596Y-140826137D01*
X230620762Y-140870304D01*
X230628455Y-140894100D01*
X230634565Y-140914207D01*
X230641932Y-140941336D01*
X230649129Y-140970189D01*
X230650289Y-140975128D01*
X230656216Y-140999208D01*
X230661492Y-141018121D01*
X230665255Y-141028856D01*
X230666095Y-141030157D01*
X230668762Y-141025169D01*
X230674310Y-141009933D01*
X230682191Y-140986274D01*
X230691856Y-140956012D01*
X230702756Y-140920971D01*
X230714343Y-140882974D01*
X230726069Y-140843842D01*
X230737384Y-140805399D01*
X230747739Y-140769468D01*
X230756588Y-140737870D01*
X230763380Y-140712428D01*
X230767568Y-140694966D01*
X230768491Y-140689956D01*
X230773839Y-140669372D01*
X230782265Y-140651433D01*
X230782652Y-140650855D01*
X230790572Y-140633707D01*
X230793532Y-140617373D01*
X230796261Y-140600499D01*
X230801281Y-140589800D01*
X230805848Y-140580078D01*
X230812633Y-140560902D01*
X230820739Y-140535000D01*
X230829267Y-140505098D01*
X230829681Y-140503575D01*
X230839676Y-140468378D01*
X230850763Y-140432033D01*
X230861453Y-140399295D01*
X230868763Y-140378776D01*
X230877506Y-140353475D01*
X230887813Y-140320164D01*
X230898418Y-140283111D01*
X230908054Y-140246581D01*
X230908354Y-140245385D01*
X230916592Y-140213227D01*
X230924348Y-140184491D01*
X230930863Y-140161892D01*
X230935373Y-140148148D01*
X230936084Y-140146443D01*
X230940297Y-140135249D01*
X230946981Y-140115067D01*
X230955412Y-140088324D01*
X230964871Y-140057444D01*
X230974634Y-140024853D01*
X230983981Y-139992974D01*
X230992189Y-139964234D01*
X230998538Y-139941057D01*
X231002305Y-139925869D01*
X231003027Y-139921495D01*
X231005466Y-139910123D01*
X231011090Y-139895294D01*
X231017887Y-139876016D01*
X231022744Y-139855295D01*
X231027492Y-139837412D01*
X231034111Y-139824141D01*
X231034609Y-139823535D01*
X231041825Y-139810723D01*
X231047415Y-139793684D01*
X231053563Y-139768596D01*
X231062198Y-139737400D01*
X231073823Y-139698375D01*
X231088939Y-139649800D01*
X231094065Y-139633625D01*
X231103809Y-139602530D01*
X231115987Y-139562979D01*
X231129511Y-139518546D01*
X231143292Y-139472809D01*
X231154979Y-139433600D01*
X231166359Y-139395939D01*
X231176954Y-139362268D01*
X231186132Y-139334490D01*
X231193258Y-139314509D01*
X231197700Y-139304229D01*
X231198288Y-139303425D01*
X231202132Y-139295435D01*
X231208336Y-139277819D01*
X231216170Y-139253139D01*
X231224903Y-139223958D01*
X231233805Y-139192841D01*
X231242145Y-139162350D01*
X231249193Y-139135048D01*
X231254219Y-139113501D01*
X231256492Y-139100269D01*
X231256553Y-139098945D01*
X231258867Y-139088042D01*
X231265057Y-139069144D01*
X231273991Y-139045571D01*
X231278509Y-139034549D01*
X231290191Y-139004236D01*
X231302700Y-138967796D01*
X231313977Y-138931357D01*
X231317882Y-138917410D01*
X231327881Y-138882557D01*
X231339720Y-138844808D01*
X231351404Y-138810424D01*
X231355745Y-138798600D01*
X231366948Y-138767675D01*
X231378165Y-138734494D01*
X231387304Y-138705288D01*
X231388783Y-138700175D01*
X231396515Y-138674278D01*
X231406754Y-138641872D01*
X231417827Y-138608200D01*
X231423257Y-138592225D01*
X231433795Y-138560931D01*
X231446375Y-138522483D01*
X231459432Y-138481725D01*
X231471395Y-138443501D01*
X231471549Y-138443000D01*
X231483846Y-138403915D01*
X231497653Y-138361351D01*
X231511259Y-138320518D01*
X231522668Y-138287425D01*
X231533197Y-138257135D01*
X231542804Y-138228560D01*
X231550325Y-138205218D01*
X231554193Y-138192175D01*
X231559171Y-138176447D01*
X231567656Y-138152512D01*
X231578449Y-138123648D01*
X231590110Y-138093750D01*
X231603679Y-138059340D01*
X231617812Y-138022905D01*
X231630639Y-137989296D01*
X231638631Y-137967902D01*
X231658382Y-137918302D01*
X231678531Y-137877283D01*
X231701309Y-137840903D01*
X231728948Y-137805219D01*
X231734316Y-137798909D01*
X231788236Y-137744460D01*
X231851678Y-137695074D01*
X231923923Y-137651112D01*
X232004253Y-137612933D01*
X232091949Y-137580898D01*
X232186291Y-137555367D01*
X232243228Y-137543779D01*
X232273965Y-137539470D01*
X232313025Y-137535865D01*
X232357862Y-137533029D01*
X232405931Y-137531031D01*
X232454684Y-137529937D01*
X232501577Y-137529815D01*
X232544063Y-137530732D01*
X232579597Y-137532755D01*
X232596006Y-137534461D01*
X232627314Y-137538500D01*
X232661339Y-137542833D01*
X232692395Y-137546737D01*
X232702807Y-137548028D01*
X232730208Y-137553278D01*
X232765763Y-137562966D01*
X232807549Y-137576391D01*
X232853638Y-137592853D01*
X232902105Y-137611651D01*
X232951024Y-137632084D01*
X232998468Y-137653450D01*
X233017685Y-137662628D01*
X233051435Y-137683061D01*
X233088593Y-137712405D01*
X233127121Y-137748529D01*
X233164982Y-137789299D01*
X233200139Y-137832586D01*
X233230554Y-137876256D01*
X233244930Y-137900398D01*
X233252344Y-137915720D01*
X233263083Y-137940549D01*
X233276243Y-137972663D01*
X233290921Y-138009840D01*
X233306214Y-138049857D01*
X233312053Y-138065495D01*
X233326948Y-138105431D01*
X233341076Y-138142899D01*
X233353639Y-138175813D01*
X233363838Y-138202087D01*
X233370874Y-138219634D01*
X233372705Y-138223925D01*
X233380663Y-138246072D01*
X233387499Y-138272212D01*
X233389462Y-138282430D01*
X233395171Y-138306850D01*
X233404133Y-138334812D01*
X233411191Y-138352699D01*
X233420286Y-138375430D01*
X233431070Y-138405329D01*
X233441809Y-138437495D01*
X233446634Y-138452943D01*
X233454025Y-138476810D01*
X233464515Y-138510039D01*
X233477300Y-138550115D01*
X233491575Y-138594521D01*
X233506535Y-138640743D01*
X233516582Y-138671600D01*
X233533344Y-138723291D01*
X233551572Y-138780097D01*
X233570031Y-138838127D01*
X233587486Y-138893493D01*
X233602702Y-138942305D01*
X233607467Y-138957765D01*
X233621009Y-139001374D01*
X233635052Y-139045735D01*
X233648595Y-139087742D01*
X233660635Y-139124290D01*
X233670170Y-139152275D01*
X233670994Y-139154615D01*
X233682310Y-139187908D01*
X233695245Y-139227999D01*
X233708116Y-139269570D01*
X233718129Y-139303425D01*
X233736773Y-139367818D01*
X233754701Y-139428720D01*
X233771531Y-139484895D01*
X233786882Y-139535104D01*
X233800370Y-139578114D01*
X233811614Y-139612686D01*
X233820231Y-139637586D01*
X233825660Y-139651206D01*
X233831128Y-139665627D01*
X233838648Y-139689527D01*
X233847409Y-139720125D01*
X233856597Y-139754636D01*
X233861197Y-139772894D01*
X233871514Y-139813106D01*
X233883023Y-139855414D01*
X233894494Y-139895435D01*
X233904693Y-139928788D01*
X233907137Y-139936288D01*
X233917093Y-139967087D01*
X233929113Y-140005550D01*
X233941841Y-140047267D01*
X233953920Y-140087829D01*
X233956651Y-140097175D01*
X233969947Y-140142628D01*
X233986265Y-140197997D01*
X234004987Y-140261210D01*
X234025496Y-140330194D01*
X234047175Y-140402877D01*
X234069407Y-140477186D01*
X234091574Y-140551050D01*
X234113060Y-140622395D01*
X234114570Y-140627400D01*
X234128259Y-140672816D01*
X234144261Y-140726001D01*
X234161301Y-140782715D01*
X234178105Y-140838717D01*
X234193400Y-140889768D01*
X234194697Y-140894100D01*
X234220643Y-140980755D01*
X234243269Y-141056194D01*
X234262820Y-141121217D01*
X234279540Y-141176626D01*
X234293673Y-141223222D01*
X234305466Y-141261805D01*
X234315163Y-141293177D01*
X234323008Y-141318138D01*
X234329247Y-141337490D01*
X234334125Y-141352034D01*
X234337886Y-141362570D01*
X234338032Y-141362961D01*
X234344908Y-141382717D01*
X234347122Y-141394246D01*
X234345054Y-141400614D01*
X234342913Y-141402551D01*
X234336190Y-141403504D01*
X234319217Y-141404401D01*
X234292768Y-141405233D01*
X234257617Y-141405990D01*
X234214539Y-141406660D01*
X234164306Y-141407233D01*
X234107694Y-141407700D01*
X234045476Y-141408049D01*
X233978427Y-141408270D01*
X233910330Y-141408352D01*
X233828015Y-141408328D01*
X233756115Y-141408210D01*
X233694022Y-141407984D01*
X233641126Y-141407642D01*
X233596819Y-141407172D01*
X233560492Y-141406563D01*
X233531535Y-141405803D01*
X233509341Y-141404882D01*
X233493300Y-141403789D01*
X233482804Y-141402514D01*
X233477243Y-141401043D01*
X233476385Y-141400512D01*
X233472047Y-141392528D01*
X233464701Y-141374274D01*
X233454961Y-141347477D01*
X233443437Y-141313861D01*
X233430741Y-141275154D01*
X233420672Y-141243350D01*
X233406858Y-141199121D01*
X233394192Y-141158765D01*
X233382042Y-141120306D01*
X233369773Y-141081766D01*
X233356751Y-141041169D01*
X233342342Y-140996537D01*
X233325911Y-140945894D01*
X233306826Y-140887263D01*
X233285237Y-140821075D01*
X233273099Y-140783497D01*
X233258742Y-140738432D01*
X233243586Y-140690378D01*
X233229054Y-140643834D01*
X233222009Y-140621050D01*
X233210573Y-140584374D01*
X233199787Y-140550647D01*
X233190413Y-140522185D01*
X233183213Y-140501305D01*
X233179205Y-140490875D01*
X233173809Y-140477057D01*
X233165967Y-140454661D01*
X233156849Y-140427108D01*
X233149905Y-140405206D01*
X233140847Y-140376893D01*
X233132422Y-140352032D01*
X233125697Y-140333688D01*
X233122293Y-140325831D01*
X233117149Y-140312478D01*
X233111504Y-140292193D01*
X233108477Y-140278636D01*
X233102181Y-140253300D01*
X233093238Y-140224297D01*
X233086518Y-140205611D01*
X233079296Y-140185712D01*
X233069603Y-140157061D01*
X233058514Y-140122933D01*
X233047104Y-140086601D01*
X233042566Y-140071775D01*
X233032969Y-140040732D01*
X233020225Y-140000387D01*
X233005155Y-139953287D01*
X232988578Y-139901979D01*
X232971314Y-139849011D01*
X232954184Y-139796930D01*
X232951626Y-139789200D01*
X232935486Y-139740212D01*
X232919885Y-139692398D01*
X232905467Y-139647763D01*
X232892875Y-139608315D01*
X232882753Y-139576061D01*
X232875745Y-139553008D01*
X232874264Y-139547900D01*
X232868042Y-139526944D01*
X232858617Y-139496441D01*
X232846723Y-139458702D01*
X232833093Y-139416043D01*
X232818460Y-139370778D01*
X232806830Y-139335175D01*
X232791018Y-139286658D01*
X232774824Y-139236347D01*
X232759183Y-139187200D01*
X232745034Y-139142172D01*
X232733314Y-139104222D01*
X232727703Y-139085625D01*
X232717217Y-139051293D01*
X232706872Y-139019015D01*
X232697656Y-138991769D01*
X232690558Y-138972534D01*
X232688713Y-138968150D01*
X232682581Y-138952646D01*
X232673822Y-138928068D01*
X232663437Y-138897337D01*
X232652425Y-138863372D01*
X232648027Y-138849400D01*
X232636305Y-138812201D01*
X232624174Y-138774364D01*
X232612883Y-138739748D01*
X232603684Y-138712211D01*
X232601733Y-138706525D01*
X232593619Y-138682133D01*
X232583163Y-138649323D01*
X232571500Y-138611728D01*
X232559766Y-138572980D01*
X232555108Y-138557300D01*
X232544616Y-138522397D01*
X232534604Y-138490259D01*
X232525904Y-138463477D01*
X232519349Y-138444643D01*
X232516843Y-138438344D01*
X232501369Y-138416605D01*
X232479834Y-138403096D01*
X232455051Y-138398514D01*
X232429834Y-138403557D01*
X232413878Y-138412837D01*
X232407220Y-138419401D01*
X232400311Y-138429447D01*
X232392757Y-138444032D01*
X232384167Y-138464217D01*
X232374147Y-138491060D01*
X232362305Y-138525619D01*
X232348246Y-138568953D01*
X232331578Y-138622122D01*
X232311908Y-138686184D01*
X232309580Y-138693825D01*
X232296672Y-138735928D01*
X232282788Y-138780742D01*
X232269230Y-138824095D01*
X232257299Y-138861814D01*
X232252119Y-138877975D01*
X232238557Y-138920250D01*
X232222143Y-138971804D01*
X232203644Y-139030196D01*
X232183827Y-139092984D01*
X232163459Y-139157728D01*
X232143309Y-139221985D01*
X232124142Y-139283314D01*
X232106726Y-139339274D01*
X232091829Y-139387424D01*
X232083501Y-139414550D01*
X232071020Y-139454859D01*
X232057802Y-139496656D01*
X232045078Y-139536102D01*
X232034081Y-139569359D01*
X232029491Y-139582825D01*
X232020571Y-139609855D01*
X232010010Y-139643851D01*
X231998560Y-139682168D01*
X231986975Y-139722161D01*
X231976009Y-139761185D01*
X231966413Y-139796595D01*
X231958942Y-139825746D01*
X231954348Y-139845994D01*
X231953954Y-139848099D01*
X231947559Y-139866254D01*
X231939934Y-139878244D01*
X231934347Y-139888541D01*
X231926300Y-139908433D01*
X231916708Y-139935425D01*
X231906485Y-139967022D01*
X231902163Y-139981270D01*
X231878784Y-140059513D01*
X231856962Y-140131732D01*
X231837021Y-140196879D01*
X231819286Y-140253911D01*
X231804081Y-140301782D01*
X231791731Y-140339447D01*
X231784274Y-140361110D01*
X231772983Y-140394217D01*
X231761009Y-140431561D01*
X231750764Y-140465595D01*
X231749893Y-140468650D01*
X231740769Y-140499369D01*
X231729331Y-140535775D01*
X231717496Y-140571825D01*
X231712620Y-140586125D01*
X231702756Y-140615568D01*
X231690726Y-140652922D01*
X231677839Y-140694044D01*
X231665404Y-140734791D01*
X231661445Y-140748050D01*
X231642833Y-140810278D01*
X231623625Y-140873559D01*
X231604400Y-140936051D01*
X231585736Y-140995910D01*
X231568213Y-141051296D01*
X231552410Y-141100364D01*
X231538906Y-141141274D01*
X231528278Y-141172181D01*
X231527359Y-141174756D01*
X231516732Y-141205997D01*
X231504559Y-141244349D01*
X231492411Y-141284743D01*
X231482711Y-141318963D01*
X231474107Y-141349458D01*
X231466247Y-141375421D01*
X231459878Y-141394514D01*
X231455747Y-141404399D01*
X231455127Y-141405177D01*
X231449354Y-141405457D01*
X231433323Y-141405742D01*
X231407801Y-141406031D01*
X231373554Y-141406321D01*
X231331349Y-141406610D01*
X231281953Y-141406898D01*
X231226131Y-141407181D01*
X231164652Y-141407458D01*
X231098281Y-141407728D01*
X231027784Y-141407988D01*
X230953929Y-141408237D01*
X230877482Y-141408472D01*
X230799210Y-141408693D01*
X230719879Y-141408896D01*
X230640255Y-141409081D01*
X230561106Y-141409245D01*
X230483198Y-141409387D01*
X230407297Y-141409505D01*
X230334170Y-141409596D01*
X230264583Y-141409660D01*
X230199304Y-141409694D01*
X230139098Y-141409696D01*
X230084733Y-141409665D01*
X230036975Y-141409599D01*
X229996590Y-141409496D01*
X229964345Y-141409353D01*
X229941006Y-141409170D01*
X229927341Y-141408945D01*
X229924707Y-141408839D01*
X229920526Y-141402912D01*
X229915745Y-141387842D01*
X229911841Y-141369262D01*
X229907034Y-141345832D01*
X229899669Y-141315367D01*
X229890964Y-141282763D01*
X229886160Y-141266074D01*
X229877373Y-141234528D01*
X229867350Y-141195487D01*
X229857305Y-141153836D01*
X229848452Y-141114462D01*
X229848177Y-141113175D01*
X229838873Y-141071711D01*
X229827472Y-141024028D01*
X229815401Y-140975941D01*
X229804086Y-140933264D01*
X229803793Y-140932200D01*
X229790061Y-140881261D01*
X229779119Y-140837696D01*
X229769914Y-140796976D01*
X229761389Y-140754571D01*
X229757209Y-140732175D01*
X229751898Y-140704593D01*
X229746044Y-140677583D01*
X229738914Y-140648142D01*
X229729775Y-140613267D01*
X229717892Y-140569955D01*
X229715319Y-140560725D01*
X229704288Y-140519754D01*
X229692090Y-140472074D01*
X229680134Y-140423324D01*
X229669831Y-140379145D01*
X229668905Y-140375016D01*
X229660886Y-140340221D01*
X229653097Y-140308498D01*
X229646223Y-140282487D01*
X229640948Y-140264832D01*
X229639105Y-140259923D01*
X229634837Y-140248978D01*
X229629894Y-140233262D01*
X229623933Y-140211419D01*
X229616609Y-140182093D01*
X229607578Y-140143925D01*
X229596497Y-140095559D01*
X229588983Y-140062250D01*
X229581099Y-140028866D01*
X229573123Y-139998050D01*
X229565893Y-139972853D01*
X229560246Y-139956327D01*
X229559365Y-139954300D01*
X229554552Y-139940921D01*
X229547693Y-139917750D01*
X229539473Y-139887297D01*
X229530575Y-139852074D01*
X229523452Y-139822262D01*
X229513624Y-139781382D01*
X229503073Y-139739782D01*
X229492751Y-139701074D01*
X229483612Y-139668867D01*
X229479035Y-139653987D01*
X229470532Y-139626374D01*
X229460096Y-139590569D01*
X229448866Y-139550579D01*
X229437980Y-139510411D01*
X229434474Y-139497100D01*
X229423808Y-139457561D01*
X229412166Y-139416590D01*
X229400747Y-139378278D01*
X229390753Y-139346714D01*
X229387927Y-139338350D01*
X229378433Y-139309542D01*
X229367015Y-139272832D01*
X229354960Y-139232470D01*
X229343555Y-139192701D01*
X229340995Y-139183489D01*
X229331001Y-139148879D01*
X229320945Y-139116872D01*
X229311755Y-139090234D01*
X229304358Y-139071732D01*
X229301823Y-139066730D01*
X229291569Y-139045002D01*
X229283755Y-139021166D01*
X229283115Y-139018391D01*
X229277504Y-138996817D01*
X229268032Y-138965506D01*
X229255354Y-138926301D01*
X229240127Y-138881048D01*
X229223008Y-138831594D01*
X229204653Y-138779783D01*
X229185719Y-138727461D01*
X229166863Y-138676474D01*
X229148742Y-138628667D01*
X229132011Y-138585886D01*
X229117328Y-138549977D01*
X229112159Y-138537911D01*
X229097385Y-138506416D01*
X229079295Y-138471466D01*
X229059578Y-138435997D01*
X229039919Y-138402945D01*
X229022007Y-138375244D01*
X229007528Y-138355830D01*
X229007454Y-138355744D01*
X228983336Y-138335802D01*
X228955650Y-138326282D01*
X228926347Y-138326616D01*
X228897378Y-138336233D01*
X228870695Y-138354561D01*
X228848250Y-138381033D01*
X228835309Y-138406039D01*
X228831826Y-138414495D01*
X228828641Y-138422180D01*
X228825741Y-138429667D01*
X228823111Y-138437530D01*
X228820738Y-138446343D01*
X228818609Y-138456679D01*
X228816710Y-138469112D01*
X228815028Y-138484215D01*
X228813549Y-138502563D01*
X228812260Y-138524729D01*
X228811147Y-138551286D01*
X228810196Y-138582808D01*
X228809395Y-138619869D01*
X228808729Y-138663043D01*
X228808185Y-138712903D01*
X228807749Y-138770022D01*
X228807409Y-138834975D01*
X228807150Y-138908335D01*
X228806958Y-138990676D01*
X228806822Y-139082571D01*
X228806726Y-139184595D01*
X228806657Y-139297319D01*
X228806602Y-139421320D01*
X228806548Y-139557169D01*
X228806518Y-139627275D01*
X228806010Y-140751225D01*
X228791115Y-140814271D01*
X228765202Y-140900129D01*
X228729370Y-140981713D01*
X228684224Y-141058523D01*
X228630371Y-141130059D01*
X228568418Y-141195820D01*
X228498970Y-141255306D01*
X228422636Y-141308016D01*
X228340021Y-141353450D01*
X228251731Y-141391107D01*
X228158374Y-141420487D01*
X228060556Y-141441090D01*
X228025270Y-141446148D01*
X227997638Y-141448644D01*
X227961767Y-141450429D01*
X227920424Y-141451503D01*
X227876376Y-141451863D01*
X227832391Y-141451506D01*
X227791238Y-141450430D01*
X227755682Y-141448634D01*
X227730715Y-141446394D01*
X227636915Y-141429346D01*
X227541599Y-141401120D01*
X227446989Y-141362486D01*
X227363081Y-141318762D01*
X227273029Y-141259743D01*
X227190302Y-141191306D01*
X227115101Y-141113725D01*
X227047626Y-141027272D01*
X226988077Y-140932221D01*
X226936655Y-140828844D01*
X226893558Y-140717415D01*
X226872576Y-140649625D01*
X226860879Y-140607635D01*
X226846924Y-140556446D01*
X226831370Y-140498561D01*
X226814872Y-140436482D01*
X226798089Y-140372711D01*
X226781675Y-140309750D01*
X226766290Y-140250102D01*
X226752589Y-140196268D01*
X226741230Y-140150752D01*
X226736520Y-140131421D01*
X226727234Y-140094112D01*
X226715639Y-140049401D01*
X226702962Y-140001917D01*
X226690428Y-139956285D01*
X226685206Y-139937746D01*
X226674468Y-139899437D01*
X226664254Y-139862012D01*
X226655371Y-139828495D01*
X226648624Y-139801912D01*
X226645637Y-139789200D01*
X226640809Y-139768967D01*
X226633336Y-139739774D01*
X226624036Y-139704716D01*
X226613724Y-139666890D01*
X226607110Y-139643150D01*
X226595178Y-139600464D01*
X226582344Y-139554130D01*
X226569881Y-139508773D01*
X226559065Y-139469023D01*
X226555511Y-139455825D01*
X226546111Y-139421567D01*
X226534489Y-139380454D01*
X226521286Y-139334634D01*
X226507140Y-139286256D01*
X226492692Y-139237470D01*
X226478581Y-139190425D01*
X226465448Y-139147270D01*
X226453931Y-139110155D01*
X226444671Y-139081229D01*
X226439271Y-139065300D01*
X226432667Y-139045828D01*
X226423641Y-139017921D01*
X226413332Y-138985159D01*
X226402882Y-138951125D01*
X226401884Y-138947825D01*
X226391809Y-138915248D01*
X226382020Y-138884961D01*
X226373540Y-138860042D01*
X226367390Y-138843569D01*
X226366667Y-138841868D01*
X226360901Y-138827553D01*
X226352113Y-138804281D01*
X226341354Y-138774898D01*
X226329674Y-138742247D01*
X226325622Y-138730743D01*
X226304280Y-138673463D01*
X226280442Y-138615685D01*
X226255022Y-138559211D01*
X226228937Y-138505845D01*
X226203099Y-138457388D01*
X226178424Y-138415643D01*
X226155827Y-138382412D01*
X226138218Y-138361471D01*
X226108058Y-138338060D01*
X226076655Y-138326558D01*
X226045302Y-138326517D01*
X226015292Y-138337488D01*
X225987917Y-138359020D01*
X225964470Y-138390664D01*
X225947691Y-138427716D01*
X225934569Y-138465225D01*
X225931813Y-139927824D01*
X225931509Y-140088508D01*
X225931223Y-140236977D01*
X225930950Y-140373719D01*
X225930686Y-140499218D01*
X225930427Y-140613962D01*
X225930168Y-140718435D01*
X225929904Y-140813125D01*
X225929632Y-140898516D01*
X225929347Y-140975095D01*
X225929044Y-141043347D01*
X225928719Y-141103760D01*
X225928368Y-141156818D01*
X225927985Y-141203008D01*
X225927567Y-141242816D01*
X225927110Y-141276728D01*
X225926607Y-141305229D01*
X225926057Y-141328806D01*
X225925453Y-141347945D01*
X225924791Y-141363131D01*
X225924067Y-141374851D01*
X225923277Y-141383590D01*
X225922416Y-141389835D01*
X225921480Y-141394071D01*
X225920463Y-141396785D01*
X225919362Y-141398463D01*
X225918357Y-141399437D01*
X225914820Y-141401225D01*
X225908266Y-141402768D01*
X225897958Y-141404082D01*
X225883160Y-141405186D01*
X225863135Y-141406096D01*
X225837145Y-141406829D01*
X225804455Y-141407401D01*
X225764326Y-141407830D01*
X225716022Y-141408132D01*
X225658807Y-141408325D01*
X225591943Y-141408425D01*
X225525616Y-141408450D01*
X225451485Y-141408442D01*
X225387590Y-141408403D01*
X225333146Y-141408307D01*
X225287365Y-141408127D01*
X225249459Y-141407839D01*
X225218643Y-141407416D01*
X225194129Y-141406833D01*
X225175129Y-141406064D01*
X225160858Y-141405083D01*
X225150526Y-141403866D01*
X225143349Y-141402385D01*
X225138538Y-141400616D01*
X225135306Y-141398533D01*
X225132867Y-141396109D01*
X225132437Y-141395619D01*
X225131273Y-141394195D01*
X225130193Y-141392396D01*
X225129196Y-141389759D01*
X225128277Y-141385823D01*
X225127436Y-141380125D01*
X225126668Y-141372201D01*
X225125972Y-141361589D01*
X225125344Y-141347827D01*
X225124783Y-141330453D01*
X225124284Y-141309002D01*
X225123847Y-141283014D01*
X225123468Y-141252025D01*
X225123144Y-141215572D01*
X225122873Y-141173194D01*
X225122652Y-141124427D01*
X225122479Y-141068809D01*
X225122350Y-141005877D01*
X225122264Y-140935169D01*
X225122217Y-140856222D01*
X225122207Y-140768573D01*
X225122231Y-140671760D01*
X225122287Y-140565321D01*
X225122372Y-140448792D01*
X225122483Y-140321711D01*
X225122618Y-140183616D01*
X225122773Y-140034044D01*
X225122947Y-139872532D01*
X225123067Y-139762081D01*
X225123247Y-139591342D01*
X225123407Y-139432826D01*
X225123556Y-139286056D01*
X225123701Y-139150556D01*
X225123852Y-139025848D01*
X225124017Y-138911455D01*
X225124204Y-138806900D01*
X225124423Y-138711708D01*
X225124682Y-138625400D01*
X225124989Y-138547499D01*
X225125353Y-138477530D01*
X225125783Y-138415015D01*
X225126287Y-138359476D01*
X225126873Y-138310438D01*
X225127551Y-138267423D01*
X225128329Y-138229955D01*
X225129215Y-138197556D01*
X225130219Y-138169749D01*
X225131347Y-138146058D01*
X225132611Y-138126006D01*
X225134016Y-138109116D01*
X225135573Y-138094910D01*
X225137291Y-138082913D01*
X225139176Y-138072647D01*
X225141239Y-138063635D01*
X225143487Y-138055400D01*
X225145929Y-138047465D01*
X225148574Y-138039354D01*
X225151431Y-138030590D01*
X225154373Y-138021141D01*
X225181803Y-137948633D01*
X225219414Y-137878236D01*
X225266408Y-137810895D01*
X225321989Y-137747551D01*
X225385360Y-137689147D01*
X225455725Y-137636627D01*
X225505549Y-137605678D01*
X225587598Y-137563671D01*
X225673568Y-137529989D01*
X225764657Y-137504322D01*
X225862061Y-137486359D01*
X225966978Y-137475790D01*
X226015050Y-137473429D01*
X226116341Y-137472996D01*
X226209455Y-137479339D01*
G37*
X226209455Y-137479339D02*
X226295747Y-137492850D01*
X226376571Y-137513923D01*
X226453281Y-137542950D01*
X226527230Y-137580324D01*
X226599773Y-137626439D01*
X226637362Y-137653982D01*
X226674680Y-137685335D01*
X226715973Y-137724842D01*
X226759089Y-137770097D01*
X226801875Y-137818695D01*
X226842181Y-137868232D01*
X226877854Y-137916301D01*
X226895607Y-137942614D01*
X226955572Y-138043133D01*
X227013363Y-138155428D01*
X227068666Y-138278757D01*
X227121162Y-138412378D01*
X227170536Y-138555548D01*
X227205233Y-138668425D01*
X227217096Y-138708702D01*
X227228542Y-138747014D01*
X227238837Y-138780948D01*
X227247248Y-138808091D01*
X227253042Y-138826031D01*
X227253749Y-138828094D01*
X227259210Y-138845837D01*
X227266608Y-138872779D01*
X227275132Y-138905819D01*
X227283971Y-138941859D01*
X227287843Y-138958269D01*
X227297521Y-138998891D01*
X227308158Y-139042003D01*
X227318608Y-139083054D01*
X227327729Y-139117494D01*
X227329662Y-139124520D01*
X227337495Y-139154349D01*
X227346905Y-139192766D01*
X227357001Y-139235984D01*
X227366892Y-139280214D01*
X227372990Y-139308670D01*
X227382039Y-139350554D01*
X227391693Y-139393130D01*
X227401124Y-139432883D01*
X227409502Y-139466297D01*
X227414402Y-139484400D01*
X227421532Y-139511136D01*
X227430315Y-139546719D01*
X227439918Y-139587622D01*
X227449507Y-139630317D01*
X227455840Y-139659739D01*
X227465406Y-139703566D01*
X227476096Y-139749989D01*
X227486920Y-139794860D01*
X227496887Y-139834033D01*
X227502137Y-139853414D01*
X227512301Y-139890441D01*
X227522845Y-139930160D01*
X227532402Y-139967351D01*
X227538567Y-139992400D01*
X227545902Y-140021570D01*
X227555857Y-140058818D01*
X227567823Y-140102073D01*
X227581194Y-140149263D01*
X227595361Y-140198316D01*
X227609718Y-140247163D01*
X227623656Y-140293731D01*
X227636569Y-140335950D01*
X227647849Y-140371748D01*
X227656889Y-140399055D01*
X227661834Y-140412718D01*
X227690075Y-140475600D01*
X227720997Y-140526293D01*
X227754719Y-140564958D01*
X227791358Y-140591759D01*
X227791753Y-140591975D01*
X227824206Y-140606007D01*
X227858434Y-140614613D01*
X227890676Y-140617121D01*
X227914013Y-140613869D01*
X227932790Y-140604713D01*
X227951777Y-140589570D01*
X227967840Y-140571583D01*
X227977841Y-140553898D01*
X227979330Y-140548361D01*
X227981637Y-140536007D01*
X227985713Y-140515472D01*
X227990731Y-140490920D01*
X227991399Y-140487700D01*
X227992629Y-140481267D01*
X227993753Y-140473947D01*
X227994779Y-140465169D01*
X227995709Y-140454366D01*
X227996551Y-140440967D01*
X227997308Y-140424405D01*
X227997986Y-140404110D01*
X227998590Y-140379514D01*
X227999126Y-140350048D01*
X227999598Y-140315142D01*
X228000012Y-140274228D01*
X228000372Y-140226737D01*
X228000685Y-140172101D01*
X228000954Y-140109750D01*
X228001186Y-140039115D01*
X228001385Y-139959628D01*
X228001556Y-139870720D01*
X228001706Y-139771821D01*
X228001838Y-139662364D01*
X228001958Y-139541778D01*
X228002071Y-139409496D01*
X228002156Y-139300250D01*
X228002295Y-139145260D01*
X228002472Y-139002646D01*
X228002687Y-138872084D01*
X228002943Y-138753249D01*
X228003242Y-138645816D01*
X228003586Y-138549463D01*
X228003976Y-138463863D01*
X228004415Y-138388694D01*
X228004904Y-138323631D01*
X228005447Y-138268350D01*
X228006043Y-138222526D01*
X228006697Y-138185835D01*
X228007409Y-138157953D01*
X228008181Y-138138556D01*
X228009016Y-138127319D01*
X228009277Y-138125500D01*
X228018645Y-138079359D01*
X228029718Y-138038506D01*
X228044161Y-137997509D01*
X228060676Y-137957698D01*
X228082647Y-137909534D01*
X228103254Y-137870001D01*
X228124601Y-137835674D01*
X228148790Y-137803130D01*
X228173487Y-137773933D01*
X228239163Y-137708229D01*
X228313512Y-137649753D01*
X228395967Y-137598796D01*
X228485966Y-137555654D01*
X228582942Y-137520620D01*
X228686331Y-137493987D01*
X228726474Y-137486255D01*
X228750331Y-137482575D01*
X228776018Y-137479740D01*
X228805280Y-137477661D01*
X228839865Y-137476250D01*
X228881518Y-137475416D01*
X228931984Y-137475073D01*
X228946961Y-137475053D01*
X229000745Y-137475253D01*
X229045505Y-137476111D01*
X229083235Y-137477939D01*
X229115930Y-137481046D01*
X229145586Y-137485743D01*
X229174197Y-137492340D01*
X229203759Y-137501149D01*
X229236267Y-137512480D01*
X229270561Y-137525425D01*
X229361321Y-137567063D01*
X229447630Y-137620171D01*
X229529233Y-137684475D01*
X229605874Y-137759699D01*
X229677298Y-137845569D01*
X229743250Y-137941812D01*
X229803473Y-138048152D01*
X229851525Y-138149857D01*
X229866183Y-138183516D01*
X229879689Y-138214205D01*
X229891053Y-138239695D01*
X229899280Y-138257755D01*
X229902856Y-138265200D01*
X229909846Y-138281715D01*
X229918799Y-138307175D01*
X229928743Y-138338281D01*
X229938703Y-138371736D01*
X229947707Y-138404243D01*
X229954781Y-138432505D01*
X229958951Y-138453224D01*
X229959417Y-138456761D01*
X229963763Y-138478890D01*
X229970707Y-138488779D01*
X229971557Y-138489103D01*
X229977593Y-138496362D01*
X229984801Y-138515118D01*
X229993348Y-138545835D01*
X229996304Y-138557891D01*
X230004201Y-138589905D01*
X230014242Y-138629182D01*
X230025180Y-138670904D01*
X230035763Y-138710251D01*
X230036481Y-138712875D01*
X230047822Y-138755054D01*
X230060477Y-138803399D01*
X230072868Y-138851818D01*
X230083026Y-138892612D01*
X230092761Y-138931217D01*
X230103450Y-138971544D01*
X230113878Y-139009129D01*
X230122832Y-139039507D01*
X230123854Y-139042787D01*
X230130968Y-139066529D01*
X230139753Y-139097549D01*
X230149694Y-139133851D01*
X230160276Y-139173440D01*
X230170986Y-139214318D01*
X230181308Y-139254489D01*
X230190728Y-139291956D01*
X230198733Y-139324724D01*
X230204806Y-139350795D01*
X230208434Y-139368173D01*
X230209244Y-139374144D01*
X230213320Y-139386650D01*
X230217451Y-139391624D01*
X230221303Y-139399509D01*
X230227414Y-139417264D01*
X230235143Y-139442504D01*
X230243850Y-139472845D01*
X230252894Y-139505905D01*
X230261636Y-139539298D01*
X230269434Y-139570643D01*
X230275649Y-139597554D01*
X230279640Y-139617648D01*
X230280805Y-139627467D01*
X230282918Y-139639051D01*
X230288462Y-139658636D01*
X230296382Y-139682622D01*
X230299366Y-139690967D01*
X230307867Y-139716697D01*
X230317809Y-139750582D01*
X230328022Y-139788442D01*
X230337338Y-139826093D01*
X230338357Y-139830475D01*
X230349878Y-139879776D01*
X230359232Y-139918297D01*
X230366851Y-139947598D01*
X230373165Y-139969239D01*
X230378608Y-139984781D01*
X230383609Y-139995786D01*
X230384504Y-139997421D01*
X230391295Y-140013729D01*
X230396778Y-140033834D01*
X230397107Y-140035521D01*
X230401358Y-140056044D01*
X230407632Y-140082625D01*
X230416222Y-140116372D01*
X230427418Y-140158395D01*
X230441513Y-140209802D01*
X230458798Y-140271702D01*
X230465980Y-140297200D01*
X230478531Y-140342368D01*
X230490850Y-140387961D01*
X230502189Y-140431115D01*
X230511800Y-140468970D01*
X230518936Y-140498662D01*
X230520744Y-140506750D01*
X230528185Y-140538303D01*
X230536455Y-140568961D01*
X230544314Y-140594305D01*
X230548340Y-140605175D01*
X230556002Y-140626878D01*
X230564336Y-140655478D01*
X230571753Y-140685442D01*
X230572941Y-140690900D01*
X230582272Y-140731263D01*
X230594295Y-140778067D01*
X230607596Y-140826137D01*
X230620762Y-140870304D01*
X230628455Y-140894100D01*
X230634565Y-140914207D01*
X230641932Y-140941336D01*
X230649129Y-140970189D01*
X230650289Y-140975128D01*
X230656216Y-140999208D01*
X230661492Y-141018121D01*
X230665255Y-141028856D01*
X230666095Y-141030157D01*
X230668762Y-141025169D01*
X230674310Y-141009933D01*
X230682191Y-140986274D01*
X230691856Y-140956012D01*
X230702756Y-140920971D01*
X230714343Y-140882974D01*
X230726069Y-140843842D01*
X230737384Y-140805399D01*
X230747739Y-140769468D01*
X230756588Y-140737870D01*
X230763380Y-140712428D01*
X230767568Y-140694966D01*
X230768491Y-140689956D01*
X230773839Y-140669372D01*
X230782265Y-140651433D01*
X230782652Y-140650855D01*
X230790572Y-140633707D01*
X230793532Y-140617373D01*
X230796261Y-140600499D01*
X230801281Y-140589800D01*
X230805848Y-140580078D01*
X230812633Y-140560902D01*
X230820739Y-140535000D01*
X230829267Y-140505098D01*
X230829681Y-140503575D01*
X230839676Y-140468378D01*
X230850763Y-140432033D01*
X230861453Y-140399295D01*
X230868763Y-140378776D01*
X230877506Y-140353475D01*
X230887813Y-140320164D01*
X230898418Y-140283111D01*
X230908054Y-140246581D01*
X230908354Y-140245385D01*
X230916592Y-140213227D01*
X230924348Y-140184491D01*
X230930863Y-140161892D01*
X230935373Y-140148148D01*
X230936084Y-140146443D01*
X230940297Y-140135249D01*
X230946981Y-140115067D01*
X230955412Y-140088324D01*
X230964871Y-140057444D01*
X230974634Y-140024853D01*
X230983981Y-139992974D01*
X230992189Y-139964234D01*
X230998538Y-139941057D01*
X231002305Y-139925869D01*
X231003027Y-139921495D01*
X231005466Y-139910123D01*
X231011090Y-139895294D01*
X231017887Y-139876016D01*
X231022744Y-139855295D01*
X231027492Y-139837412D01*
X231034111Y-139824141D01*
X231034609Y-139823535D01*
X231041825Y-139810723D01*
X231047415Y-139793684D01*
X231053563Y-139768596D01*
X231062198Y-139737400D01*
X231073823Y-139698375D01*
X231088939Y-139649800D01*
X231094065Y-139633625D01*
X231103809Y-139602530D01*
X231115987Y-139562979D01*
X231129511Y-139518546D01*
X231143292Y-139472809D01*
X231154979Y-139433600D01*
X231166359Y-139395939D01*
X231176954Y-139362268D01*
X231186132Y-139334490D01*
X231193258Y-139314509D01*
X231197700Y-139304229D01*
X231198288Y-139303425D01*
X231202132Y-139295435D01*
X231208336Y-139277819D01*
X231216170Y-139253139D01*
X231224903Y-139223958D01*
X231233805Y-139192841D01*
X231242145Y-139162350D01*
X231249193Y-139135048D01*
X231254219Y-139113501D01*
X231256492Y-139100269D01*
X231256553Y-139098945D01*
X231258867Y-139088042D01*
X231265057Y-139069144D01*
X231273991Y-139045571D01*
X231278509Y-139034549D01*
X231290191Y-139004236D01*
X231302700Y-138967796D01*
X231313977Y-138931357D01*
X231317882Y-138917410D01*
X231327881Y-138882557D01*
X231339720Y-138844808D01*
X231351404Y-138810424D01*
X231355745Y-138798600D01*
X231366948Y-138767675D01*
X231378165Y-138734494D01*
X231387304Y-138705288D01*
X231388783Y-138700175D01*
X231396515Y-138674278D01*
X231406754Y-138641872D01*
X231417827Y-138608200D01*
X231423257Y-138592225D01*
X231433795Y-138560931D01*
X231446375Y-138522483D01*
X231459432Y-138481725D01*
X231471395Y-138443501D01*
X231471549Y-138443000D01*
X231483846Y-138403915D01*
X231497653Y-138361351D01*
X231511259Y-138320518D01*
X231522668Y-138287425D01*
X231533197Y-138257135D01*
X231542804Y-138228560D01*
X231550325Y-138205218D01*
X231554193Y-138192175D01*
X231559171Y-138176447D01*
X231567656Y-138152512D01*
X231578449Y-138123648D01*
X231590110Y-138093750D01*
X231603679Y-138059340D01*
X231617812Y-138022905D01*
X231630639Y-137989296D01*
X231638631Y-137967902D01*
X231658382Y-137918302D01*
X231678531Y-137877283D01*
X231701309Y-137840903D01*
X231728948Y-137805219D01*
X231734316Y-137798909D01*
X231788236Y-137744460D01*
X231851678Y-137695074D01*
X231923923Y-137651112D01*
X232004253Y-137612933D01*
X232091949Y-137580898D01*
X232186291Y-137555367D01*
X232243228Y-137543779D01*
X232273965Y-137539470D01*
X232313025Y-137535865D01*
X232357862Y-137533029D01*
X232405931Y-137531031D01*
X232454684Y-137529937D01*
X232501577Y-137529815D01*
X232544063Y-137530732D01*
X232579597Y-137532755D01*
X232596006Y-137534461D01*
X232627314Y-137538500D01*
X232661339Y-137542833D01*
X232692395Y-137546737D01*
X232702807Y-137548028D01*
X232730208Y-137553278D01*
X232765763Y-137562966D01*
X232807549Y-137576391D01*
X232853638Y-137592853D01*
X232902105Y-137611651D01*
X232951024Y-137632084D01*
X232998468Y-137653450D01*
X233017685Y-137662628D01*
X233051435Y-137683061D01*
X233088593Y-137712405D01*
X233127121Y-137748529D01*
X233164982Y-137789299D01*
X233200139Y-137832586D01*
X233230554Y-137876256D01*
X233244930Y-137900398D01*
X233252344Y-137915720D01*
X233263083Y-137940549D01*
X233276243Y-137972663D01*
X233290921Y-138009840D01*
X233306214Y-138049857D01*
X233312053Y-138065495D01*
X233326948Y-138105431D01*
X233341076Y-138142899D01*
X233353639Y-138175813D01*
X233363838Y-138202087D01*
X233370874Y-138219634D01*
X233372705Y-138223925D01*
X233380663Y-138246072D01*
X233387499Y-138272212D01*
X233389462Y-138282430D01*
X233395171Y-138306850D01*
X233404133Y-138334812D01*
X233411191Y-138352699D01*
X233420286Y-138375430D01*
X233431070Y-138405329D01*
X233441809Y-138437495D01*
X233446634Y-138452943D01*
X233454025Y-138476810D01*
X233464515Y-138510039D01*
X233477300Y-138550115D01*
X233491575Y-138594521D01*
X233506535Y-138640743D01*
X233516582Y-138671600D01*
X233533344Y-138723291D01*
X233551572Y-138780097D01*
X233570031Y-138838127D01*
X233587486Y-138893493D01*
X233602702Y-138942305D01*
X233607467Y-138957765D01*
X233621009Y-139001374D01*
X233635052Y-139045735D01*
X233648595Y-139087742D01*
X233660635Y-139124290D01*
X233670170Y-139152275D01*
X233670994Y-139154615D01*
X233682310Y-139187908D01*
X233695245Y-139227999D01*
X233708116Y-139269570D01*
X233718129Y-139303425D01*
X233736773Y-139367818D01*
X233754701Y-139428720D01*
X233771531Y-139484895D01*
X233786882Y-139535104D01*
X233800370Y-139578114D01*
X233811614Y-139612686D01*
X233820231Y-139637586D01*
X233825660Y-139651206D01*
X233831128Y-139665627D01*
X233838648Y-139689527D01*
X233847409Y-139720125D01*
X233856597Y-139754636D01*
X233861197Y-139772894D01*
X233871514Y-139813106D01*
X233883023Y-139855414D01*
X233894494Y-139895435D01*
X233904693Y-139928788D01*
X233907137Y-139936288D01*
X233917093Y-139967087D01*
X233929113Y-140005550D01*
X233941841Y-140047267D01*
X233953920Y-140087829D01*
X233956651Y-140097175D01*
X233969947Y-140142628D01*
X233986265Y-140197997D01*
X234004987Y-140261210D01*
X234025496Y-140330194D01*
X234047175Y-140402877D01*
X234069407Y-140477186D01*
X234091574Y-140551050D01*
X234113060Y-140622395D01*
X234114570Y-140627400D01*
X234128259Y-140672816D01*
X234144261Y-140726001D01*
X234161301Y-140782715D01*
X234178105Y-140838717D01*
X234193400Y-140889768D01*
X234194697Y-140894100D01*
X234220643Y-140980755D01*
X234243269Y-141056194D01*
X234262820Y-141121217D01*
X234279540Y-141176626D01*
X234293673Y-141223222D01*
X234305466Y-141261805D01*
X234315163Y-141293177D01*
X234323008Y-141318138D01*
X234329247Y-141337490D01*
X234334125Y-141352034D01*
X234337886Y-141362570D01*
X234338032Y-141362961D01*
X234344908Y-141382717D01*
X234347122Y-141394246D01*
X234345054Y-141400614D01*
X234342913Y-141402551D01*
X234336190Y-141403504D01*
X234319217Y-141404401D01*
X234292768Y-141405233D01*
X234257617Y-141405990D01*
X234214539Y-141406660D01*
X234164306Y-141407233D01*
X234107694Y-141407700D01*
X234045476Y-141408049D01*
X233978427Y-141408270D01*
X233910330Y-141408352D01*
X233828015Y-141408328D01*
X233756115Y-141408210D01*
X233694022Y-141407984D01*
X233641126Y-141407642D01*
X233596819Y-141407172D01*
X233560492Y-141406563D01*
X233531535Y-141405803D01*
X233509341Y-141404882D01*
X233493300Y-141403789D01*
X233482804Y-141402514D01*
X233477243Y-141401043D01*
X233476385Y-141400512D01*
X233472047Y-141392528D01*
X233464701Y-141374274D01*
X233454961Y-141347477D01*
X233443437Y-141313861D01*
X233430741Y-141275154D01*
X233420672Y-141243350D01*
X233406858Y-141199121D01*
X233394192Y-141158765D01*
X233382042Y-141120306D01*
X233369773Y-141081766D01*
X233356751Y-141041169D01*
X233342342Y-140996537D01*
X233325911Y-140945894D01*
X233306826Y-140887263D01*
X233285237Y-140821075D01*
X233273099Y-140783497D01*
X233258742Y-140738432D01*
X233243586Y-140690378D01*
X233229054Y-140643834D01*
X233222009Y-140621050D01*
X233210573Y-140584374D01*
X233199787Y-140550647D01*
X233190413Y-140522185D01*
X233183213Y-140501305D01*
X233179205Y-140490875D01*
X233173809Y-140477057D01*
X233165967Y-140454661D01*
X233156849Y-140427108D01*
X233149905Y-140405206D01*
X233140847Y-140376893D01*
X233132422Y-140352032D01*
X233125697Y-140333688D01*
X233122293Y-140325831D01*
X233117149Y-140312478D01*
X233111504Y-140292193D01*
X233108477Y-140278636D01*
X233102181Y-140253300D01*
X233093238Y-140224297D01*
X233086518Y-140205611D01*
X233079296Y-140185712D01*
X233069603Y-140157061D01*
X233058514Y-140122933D01*
X233047104Y-140086601D01*
X233042566Y-140071775D01*
X233032969Y-140040732D01*
X233020225Y-140000387D01*
X233005155Y-139953287D01*
X232988578Y-139901979D01*
X232971314Y-139849011D01*
X232954184Y-139796930D01*
X232951626Y-139789200D01*
X232935486Y-139740212D01*
X232919885Y-139692398D01*
X232905467Y-139647763D01*
X232892875Y-139608315D01*
X232882753Y-139576061D01*
X232875745Y-139553008D01*
X232874264Y-139547900D01*
X232868042Y-139526944D01*
X232858617Y-139496441D01*
X232846723Y-139458702D01*
X232833093Y-139416043D01*
X232818460Y-139370778D01*
X232806830Y-139335175D01*
X232791018Y-139286658D01*
X232774824Y-139236347D01*
X232759183Y-139187200D01*
X232745034Y-139142172D01*
X232733314Y-139104222D01*
X232727703Y-139085625D01*
X232717217Y-139051293D01*
X232706872Y-139019015D01*
X232697656Y-138991769D01*
X232690558Y-138972534D01*
X232688713Y-138968150D01*
X232682581Y-138952646D01*
X232673822Y-138928068D01*
X232663437Y-138897337D01*
X232652425Y-138863372D01*
X232648027Y-138849400D01*
X232636305Y-138812201D01*
X232624174Y-138774364D01*
X232612883Y-138739748D01*
X232603684Y-138712211D01*
X232601733Y-138706525D01*
X232593619Y-138682133D01*
X232583163Y-138649323D01*
X232571500Y-138611728D01*
X232559766Y-138572980D01*
X232555108Y-138557300D01*
X232544616Y-138522397D01*
X232534604Y-138490259D01*
X232525904Y-138463477D01*
X232519349Y-138444643D01*
X232516843Y-138438344D01*
X232501369Y-138416605D01*
X232479834Y-138403096D01*
X232455051Y-138398514D01*
X232429834Y-138403557D01*
X232413878Y-138412837D01*
X232407220Y-138419401D01*
X232400311Y-138429447D01*
X232392757Y-138444032D01*
X232384167Y-138464217D01*
X232374147Y-138491060D01*
X232362305Y-138525619D01*
X232348246Y-138568953D01*
X232331578Y-138622122D01*
X232311908Y-138686184D01*
X232309580Y-138693825D01*
X232296672Y-138735928D01*
X232282788Y-138780742D01*
X232269230Y-138824095D01*
X232257299Y-138861814D01*
X232252119Y-138877975D01*
X232238557Y-138920250D01*
X232222143Y-138971804D01*
X232203644Y-139030196D01*
X232183827Y-139092984D01*
X232163459Y-139157728D01*
X232143309Y-139221985D01*
X232124142Y-139283314D01*
X232106726Y-139339274D01*
X232091829Y-139387424D01*
X232083501Y-139414550D01*
X232071020Y-139454859D01*
X232057802Y-139496656D01*
X232045078Y-139536102D01*
X232034081Y-139569359D01*
X232029491Y-139582825D01*
X232020571Y-139609855D01*
X232010010Y-139643851D01*
X231998560Y-139682168D01*
X231986975Y-139722161D01*
X231976009Y-139761185D01*
X231966413Y-139796595D01*
X231958942Y-139825746D01*
X231954348Y-139845994D01*
X231953954Y-139848099D01*
X231947559Y-139866254D01*
X231939934Y-139878244D01*
X231934347Y-139888541D01*
X231926300Y-139908433D01*
X231916708Y-139935425D01*
X231906485Y-139967022D01*
X231902163Y-139981270D01*
X231878784Y-140059513D01*
X231856962Y-140131732D01*
X231837021Y-140196879D01*
X231819286Y-140253911D01*
X231804081Y-140301782D01*
X231791731Y-140339447D01*
X231784274Y-140361110D01*
X231772983Y-140394217D01*
X231761009Y-140431561D01*
X231750764Y-140465595D01*
X231749893Y-140468650D01*
X231740769Y-140499369D01*
X231729331Y-140535775D01*
X231717496Y-140571825D01*
X231712620Y-140586125D01*
X231702756Y-140615568D01*
X231690726Y-140652922D01*
X231677839Y-140694044D01*
X231665404Y-140734791D01*
X231661445Y-140748050D01*
X231642833Y-140810278D01*
X231623625Y-140873559D01*
X231604400Y-140936051D01*
X231585736Y-140995910D01*
X231568213Y-141051296D01*
X231552410Y-141100364D01*
X231538906Y-141141274D01*
X231528278Y-141172181D01*
X231527359Y-141174756D01*
X231516732Y-141205997D01*
X231504559Y-141244349D01*
X231492411Y-141284743D01*
X231482711Y-141318963D01*
X231474107Y-141349458D01*
X231466247Y-141375421D01*
X231459878Y-141394514D01*
X231455747Y-141404399D01*
X231455127Y-141405177D01*
X231449354Y-141405457D01*
X231433323Y-141405742D01*
X231407801Y-141406031D01*
X231373554Y-141406321D01*
X231331349Y-141406610D01*
X231281953Y-141406898D01*
X231226131Y-141407181D01*
X231164652Y-141407458D01*
X231098281Y-141407728D01*
X231027784Y-141407988D01*
X230953929Y-141408237D01*
X230877482Y-141408472D01*
X230799210Y-141408693D01*
X230719879Y-141408896D01*
X230640255Y-141409081D01*
X230561106Y-141409245D01*
X230483198Y-141409387D01*
X230407297Y-141409505D01*
X230334170Y-141409596D01*
X230264583Y-141409660D01*
X230199304Y-141409694D01*
X230139098Y-141409696D01*
X230084733Y-141409665D01*
X230036975Y-141409599D01*
X229996590Y-141409496D01*
X229964345Y-141409353D01*
X229941006Y-141409170D01*
X229927341Y-141408945D01*
X229924707Y-141408839D01*
X229920526Y-141402912D01*
X229915745Y-141387842D01*
X229911841Y-141369262D01*
X229907034Y-141345832D01*
X229899669Y-141315367D01*
X229890964Y-141282763D01*
X229886160Y-141266074D01*
X229877373Y-141234528D01*
X229867350Y-141195487D01*
X229857305Y-141153836D01*
X229848452Y-141114462D01*
X229848177Y-141113175D01*
X229838873Y-141071711D01*
X229827472Y-141024028D01*
X229815401Y-140975941D01*
X229804086Y-140933264D01*
X229803793Y-140932200D01*
X229790061Y-140881261D01*
X229779119Y-140837696D01*
X229769914Y-140796976D01*
X229761389Y-140754571D01*
X229757209Y-140732175D01*
X229751898Y-140704593D01*
X229746044Y-140677583D01*
X229738914Y-140648142D01*
X229729775Y-140613267D01*
X229717892Y-140569955D01*
X229715319Y-140560725D01*
X229704288Y-140519754D01*
X229692090Y-140472074D01*
X229680134Y-140423324D01*
X229669831Y-140379145D01*
X229668905Y-140375016D01*
X229660886Y-140340221D01*
X229653097Y-140308498D01*
X229646223Y-140282487D01*
X229640948Y-140264832D01*
X229639105Y-140259923D01*
X229634837Y-140248978D01*
X229629894Y-140233262D01*
X229623933Y-140211419D01*
X229616609Y-140182093D01*
X229607578Y-140143925D01*
X229596497Y-140095559D01*
X229588983Y-140062250D01*
X229581099Y-140028866D01*
X229573123Y-139998050D01*
X229565893Y-139972853D01*
X229560246Y-139956327D01*
X229559365Y-139954300D01*
X229554552Y-139940921D01*
X229547693Y-139917750D01*
X229539473Y-139887297D01*
X229530575Y-139852074D01*
X229523452Y-139822262D01*
X229513624Y-139781382D01*
X229503073Y-139739782D01*
X229492751Y-139701074D01*
X229483612Y-139668867D01*
X229479035Y-139653987D01*
X229470532Y-139626374D01*
X229460096Y-139590569D01*
X229448866Y-139550579D01*
X229437980Y-139510411D01*
X229434474Y-139497100D01*
X229423808Y-139457561D01*
X229412166Y-139416590D01*
X229400747Y-139378278D01*
X229390753Y-139346714D01*
X229387927Y-139338350D01*
X229378433Y-139309542D01*
X229367015Y-139272832D01*
X229354960Y-139232470D01*
X229343555Y-139192701D01*
X229340995Y-139183489D01*
X229331001Y-139148879D01*
X229320945Y-139116872D01*
X229311755Y-139090234D01*
X229304358Y-139071732D01*
X229301823Y-139066730D01*
X229291569Y-139045002D01*
X229283755Y-139021166D01*
X229283115Y-139018391D01*
X229277504Y-138996817D01*
X229268032Y-138965506D01*
X229255354Y-138926301D01*
X229240127Y-138881048D01*
X229223008Y-138831594D01*
X229204653Y-138779783D01*
X229185719Y-138727461D01*
X229166863Y-138676474D01*
X229148742Y-138628667D01*
X229132011Y-138585886D01*
X229117328Y-138549977D01*
X229112159Y-138537911D01*
X229097385Y-138506416D01*
X229079295Y-138471466D01*
X229059578Y-138435997D01*
X229039919Y-138402945D01*
X229022007Y-138375244D01*
X229007528Y-138355830D01*
X229007454Y-138355744D01*
X228983336Y-138335802D01*
X228955650Y-138326282D01*
X228926347Y-138326616D01*
X228897378Y-138336233D01*
X228870695Y-138354561D01*
X228848250Y-138381033D01*
X228835309Y-138406039D01*
X228831826Y-138414495D01*
X228828641Y-138422180D01*
X228825741Y-138429667D01*
X228823111Y-138437530D01*
X228820738Y-138446343D01*
X228818609Y-138456679D01*
X228816710Y-138469112D01*
X228815028Y-138484215D01*
X228813549Y-138502563D01*
X228812260Y-138524729D01*
X228811147Y-138551286D01*
X228810196Y-138582808D01*
X228809395Y-138619869D01*
X228808729Y-138663043D01*
X228808185Y-138712903D01*
X228807749Y-138770022D01*
X228807409Y-138834975D01*
X228807150Y-138908335D01*
X228806958Y-138990676D01*
X228806822Y-139082571D01*
X228806726Y-139184595D01*
X228806657Y-139297319D01*
X228806602Y-139421320D01*
X228806548Y-139557169D01*
X228806518Y-139627275D01*
X228806010Y-140751225D01*
X228791115Y-140814271D01*
X228765202Y-140900129D01*
X228729370Y-140981713D01*
X228684224Y-141058523D01*
X228630371Y-141130059D01*
X228568418Y-141195820D01*
X228498970Y-141255306D01*
X228422636Y-141308016D01*
X228340021Y-141353450D01*
X228251731Y-141391107D01*
X228158374Y-141420487D01*
X228060556Y-141441090D01*
X228025270Y-141446148D01*
X227997638Y-141448644D01*
X227961767Y-141450429D01*
X227920424Y-141451503D01*
X227876376Y-141451863D01*
X227832391Y-141451506D01*
X227791238Y-141450430D01*
X227755682Y-141448634D01*
X227730715Y-141446394D01*
X227636915Y-141429346D01*
X227541599Y-141401120D01*
X227446989Y-141362486D01*
X227363081Y-141318762D01*
X227273029Y-141259743D01*
X227190302Y-141191306D01*
X227115101Y-141113725D01*
X227047626Y-141027272D01*
X226988077Y-140932221D01*
X226936655Y-140828844D01*
X226893558Y-140717415D01*
X226872576Y-140649625D01*
X226860879Y-140607635D01*
X226846924Y-140556446D01*
X226831370Y-140498561D01*
X226814872Y-140436482D01*
X226798089Y-140372711D01*
X226781675Y-140309750D01*
X226766290Y-140250102D01*
X226752589Y-140196268D01*
X226741230Y-140150752D01*
X226736520Y-140131421D01*
X226727234Y-140094112D01*
X226715639Y-140049401D01*
X226702962Y-140001917D01*
X226690428Y-139956285D01*
X226685206Y-139937746D01*
X226674468Y-139899437D01*
X226664254Y-139862012D01*
X226655371Y-139828495D01*
X226648624Y-139801912D01*
X226645637Y-139789200D01*
X226640809Y-139768967D01*
X226633336Y-139739774D01*
X226624036Y-139704716D01*
X226613724Y-139666890D01*
X226607110Y-139643150D01*
X226595178Y-139600464D01*
X226582344Y-139554130D01*
X226569881Y-139508773D01*
X226559065Y-139469023D01*
X226555511Y-139455825D01*
X226546111Y-139421567D01*
X226534489Y-139380454D01*
X226521286Y-139334634D01*
X226507140Y-139286256D01*
X226492692Y-139237470D01*
X226478581Y-139190425D01*
X226465448Y-139147270D01*
X226453931Y-139110155D01*
X226444671Y-139081229D01*
X226439271Y-139065300D01*
X226432667Y-139045828D01*
X226423641Y-139017921D01*
X226413332Y-138985159D01*
X226402882Y-138951125D01*
X226401884Y-138947825D01*
X226391809Y-138915248D01*
X226382020Y-138884961D01*
X226373540Y-138860042D01*
X226367390Y-138843569D01*
X226366667Y-138841868D01*
X226360901Y-138827553D01*
X226352113Y-138804281D01*
X226341354Y-138774898D01*
X226329674Y-138742247D01*
X226325622Y-138730743D01*
X226304280Y-138673463D01*
X226280442Y-138615685D01*
X226255022Y-138559211D01*
X226228937Y-138505845D01*
X226203099Y-138457388D01*
X226178424Y-138415643D01*
X226155827Y-138382412D01*
X226138218Y-138361471D01*
X226108058Y-138338060D01*
X226076655Y-138326558D01*
X226045302Y-138326517D01*
X226015292Y-138337488D01*
X225987917Y-138359020D01*
X225964470Y-138390664D01*
X225947691Y-138427716D01*
X225934569Y-138465225D01*
X225931813Y-139927824D01*
X225931509Y-140088508D01*
X225931223Y-140236977D01*
X225930950Y-140373719D01*
X225930686Y-140499218D01*
X225930427Y-140613962D01*
X225930168Y-140718435D01*
X225929904Y-140813125D01*
X225929632Y-140898516D01*
X225929347Y-140975095D01*
X225929044Y-141043347D01*
X225928719Y-141103760D01*
X225928368Y-141156818D01*
X225927985Y-141203008D01*
X225927567Y-141242816D01*
X225927110Y-141276728D01*
X225926607Y-141305229D01*
X225926057Y-141328806D01*
X225925453Y-141347945D01*
X225924791Y-141363131D01*
X225924067Y-141374851D01*
X225923277Y-141383590D01*
X225922416Y-141389835D01*
X225921480Y-141394071D01*
X225920463Y-141396785D01*
X225919362Y-141398463D01*
X225918357Y-141399437D01*
X225914820Y-141401225D01*
X225908266Y-141402768D01*
X225897958Y-141404082D01*
X225883160Y-141405186D01*
X225863135Y-141406096D01*
X225837145Y-141406829D01*
X225804455Y-141407401D01*
X225764326Y-141407830D01*
X225716022Y-141408132D01*
X225658807Y-141408325D01*
X225591943Y-141408425D01*
X225525616Y-141408450D01*
X225451485Y-141408442D01*
X225387590Y-141408403D01*
X225333146Y-141408307D01*
X225287365Y-141408127D01*
X225249459Y-141407839D01*
X225218643Y-141407416D01*
X225194129Y-141406833D01*
X225175129Y-141406064D01*
X225160858Y-141405083D01*
X225150526Y-141403866D01*
X225143349Y-141402385D01*
X225138538Y-141400616D01*
X225135306Y-141398533D01*
X225132867Y-141396109D01*
X225132437Y-141395619D01*
X225131273Y-141394195D01*
X225130193Y-141392396D01*
X225129196Y-141389759D01*
X225128277Y-141385823D01*
X225127436Y-141380125D01*
X225126668Y-141372201D01*
X225125972Y-141361589D01*
X225125344Y-141347827D01*
X225124783Y-141330453D01*
X225124284Y-141309002D01*
X225123847Y-141283014D01*
X225123468Y-141252025D01*
X225123144Y-141215572D01*
X225122873Y-141173194D01*
X225122652Y-141124427D01*
X225122479Y-141068809D01*
X225122350Y-141005877D01*
X225122264Y-140935169D01*
X225122217Y-140856222D01*
X225122207Y-140768573D01*
X225122231Y-140671760D01*
X225122287Y-140565321D01*
X225122372Y-140448792D01*
X225122483Y-140321711D01*
X225122618Y-140183616D01*
X225122773Y-140034044D01*
X225122947Y-139872532D01*
X225123067Y-139762081D01*
X225123247Y-139591342D01*
X225123407Y-139432826D01*
X225123556Y-139286056D01*
X225123701Y-139150556D01*
X225123852Y-139025848D01*
X225124017Y-138911455D01*
X225124204Y-138806900D01*
X225124423Y-138711708D01*
X225124682Y-138625400D01*
X225124989Y-138547499D01*
X225125353Y-138477530D01*
X225125783Y-138415015D01*
X225126287Y-138359476D01*
X225126873Y-138310438D01*
X225127551Y-138267423D01*
X225128329Y-138229955D01*
X225129215Y-138197556D01*
X225130219Y-138169749D01*
X225131347Y-138146058D01*
X225132611Y-138126006D01*
X225134016Y-138109116D01*
X225135573Y-138094910D01*
X225137291Y-138082913D01*
X225139176Y-138072647D01*
X225141239Y-138063635D01*
X225143487Y-138055400D01*
X225145929Y-138047465D01*
X225148574Y-138039354D01*
X225151431Y-138030590D01*
X225154373Y-138021141D01*
X225181803Y-137948633D01*
X225219414Y-137878236D01*
X225266408Y-137810895D01*
X225321989Y-137747551D01*
X225385360Y-137689147D01*
X225455725Y-137636627D01*
X225505549Y-137605678D01*
X225587598Y-137563671D01*
X225673568Y-137529989D01*
X225764657Y-137504322D01*
X225862061Y-137486359D01*
X225966978Y-137475790D01*
X226015050Y-137473429D01*
X226116341Y-137472996D01*
X226209455Y-137479339D01*
D11*
X202356742Y-111025500D02*
X202831258Y-111025500D01*
X202356742Y-109980500D02*
X202831258Y-109980500D01*
X202356742Y-108485500D02*
X202831258Y-108485500D01*
X202356742Y-107440500D02*
X202831258Y-107440500D01*
X204611000Y-111238000D02*
X206896000Y-111238000D01*
X204611000Y-109768000D02*
X204611000Y-111238000D01*
X206896000Y-109768000D02*
X204611000Y-109768000D01*
X204484000Y-108698000D02*
X206769000Y-108698000D01*
X204484000Y-107228000D02*
X204484000Y-108698000D01*
X206769000Y-107228000D02*
X204484000Y-107228000D01*
X241275000Y-108862000D02*
X237825000Y-108862000D01*
X241275000Y-108862000D02*
X243225000Y-108862000D01*
X241275000Y-117732000D02*
X239325000Y-117732000D01*
X241275000Y-117732000D02*
X243225000Y-117732000D01*
X245578500Y-112488742D02*
X245578500Y-112963258D01*
X246623500Y-112488742D02*
X246623500Y-112963258D01*
X258096000Y-103987000D02*
X257596000Y-104487000D01*
X257096000Y-103987000D02*
X258096000Y-103987000D01*
X257596000Y-104487000D02*
X257096000Y-103987000D01*
X249036000Y-121412000D02*
X254596000Y-121412000D01*
X249036000Y-104682000D02*
X254596000Y-104682000D01*
X249036000Y-104682000D02*
X249036000Y-121412000D01*
X265006000Y-121412000D02*
X257396000Y-121412000D01*
X265006000Y-104682000D02*
X257396000Y-104682000D01*
X265006000Y-104682000D02*
X265006000Y-121412000D01*
X246611000Y-109500580D02*
X246611000Y-109219420D01*
X245591000Y-109500580D02*
X245591000Y-109219420D01*
D12*
X228297809Y-143467380D02*
X227964476Y-142991190D01*
X227726380Y-143467380D02*
X227726380Y-142467380D01*
X228107333Y-142467380D01*
X228202571Y-142515000D01*
X228250190Y-142562619D01*
X228297809Y-142657857D01*
X228297809Y-142800714D01*
X228250190Y-142895952D01*
X228202571Y-142943571D01*
X228107333Y-142991190D01*
X227726380Y-142991190D01*
X228678761Y-143419761D02*
X228821619Y-143467380D01*
X229059714Y-143467380D01*
X229154952Y-143419761D01*
X229202571Y-143372142D01*
X229250190Y-143276904D01*
X229250190Y-143181666D01*
X229202571Y-143086428D01*
X229154952Y-143038809D01*
X229059714Y-142991190D01*
X228869238Y-142943571D01*
X228774000Y-142895952D01*
X228726380Y-142848333D01*
X228678761Y-142753095D01*
X228678761Y-142657857D01*
X228726380Y-142562619D01*
X228774000Y-142515000D01*
X228869238Y-142467380D01*
X229107333Y-142467380D01*
X229250190Y-142515000D01*
X229678761Y-143086428D02*
X230440666Y-143086428D01*
X231345428Y-142800714D02*
X231345428Y-143467380D01*
X231107333Y-142419761D02*
X230869238Y-143134047D01*
X231488285Y-143134047D01*
X231821619Y-142562619D02*
X231869238Y-142515000D01*
X231964476Y-142467380D01*
X232202571Y-142467380D01*
X232297809Y-142515000D01*
X232345428Y-142562619D01*
X232393047Y-142657857D01*
X232393047Y-142753095D01*
X232345428Y-142895952D01*
X231774000Y-143467380D01*
X232393047Y-143467380D01*
X232774000Y-142562619D02*
X232821619Y-142515000D01*
X232916857Y-142467380D01*
X233154952Y-142467380D01*
X233250190Y-142515000D01*
X233297809Y-142562619D01*
X233345428Y-142657857D01*
X233345428Y-142753095D01*
X233297809Y-142895952D01*
X232726380Y-143467380D01*
X233345428Y-143467380D01*
X234535904Y-143467380D02*
X234535904Y-142467380D01*
X234916857Y-142467380D01*
X235012095Y-142515000D01*
X235059714Y-142562619D01*
X235107333Y-142657857D01*
X235107333Y-142800714D01*
X235059714Y-142895952D01*
X235012095Y-142943571D01*
X234916857Y-142991190D01*
X234535904Y-142991190D01*
X235535904Y-143467380D02*
X235535904Y-142800714D01*
X235535904Y-142467380D02*
X235488285Y-142515000D01*
X235535904Y-142562619D01*
X235583523Y-142515000D01*
X235535904Y-142467380D01*
X235535904Y-142562619D01*
X236774000Y-143467380D02*
X236774000Y-142467380D01*
X236774000Y-142943571D02*
X237345428Y-142943571D01*
X237345428Y-143467380D02*
X237345428Y-142467380D01*
X238250190Y-143467380D02*
X238250190Y-142943571D01*
X238202571Y-142848333D01*
X238107333Y-142800714D01*
X237916857Y-142800714D01*
X237821619Y-142848333D01*
X238250190Y-143419761D02*
X238154952Y-143467380D01*
X237916857Y-143467380D01*
X237821619Y-143419761D01*
X237774000Y-143324523D01*
X237774000Y-143229285D01*
X237821619Y-143134047D01*
X237916857Y-143086428D01*
X238154952Y-143086428D01*
X238250190Y-143038809D01*
X238583523Y-142800714D02*
X238964476Y-142800714D01*
X238726380Y-142467380D02*
X238726380Y-143324523D01*
X238774000Y-143419761D01*
X238869238Y-143467380D01*
X238964476Y-143467380D01*
X227845428Y-144959666D02*
X228321619Y-144959666D01*
X227750190Y-145245380D02*
X228083523Y-144245380D01*
X228416857Y-145245380D01*
X228893047Y-145245380D02*
X228797809Y-145197761D01*
X228750190Y-145102523D01*
X228750190Y-144245380D01*
X229654952Y-145197761D02*
X229559714Y-145245380D01*
X229369238Y-145245380D01*
X229274000Y-145197761D01*
X229226380Y-145102523D01*
X229226380Y-144721571D01*
X229274000Y-144626333D01*
X229369238Y-144578714D01*
X229559714Y-144578714D01*
X229654952Y-144626333D01*
X229702571Y-144721571D01*
X229702571Y-144816809D01*
X229226380Y-144912047D01*
X230035904Y-145245380D02*
X230559714Y-144578714D01*
X230035904Y-144578714D02*
X230559714Y-145245380D01*
X231702571Y-145245380D02*
X231702571Y-144245380D01*
X231940666Y-144245380D01*
X232083523Y-144293000D01*
X232178761Y-144388238D01*
X232226380Y-144483476D01*
X232274000Y-144673952D01*
X232274000Y-144816809D01*
X232226380Y-145007285D01*
X232178761Y-145102523D01*
X232083523Y-145197761D01*
X231940666Y-145245380D01*
X231702571Y-145245380D01*
X233131142Y-145245380D02*
X233131142Y-144721571D01*
X233083523Y-144626333D01*
X232988285Y-144578714D01*
X232797809Y-144578714D01*
X232702571Y-144626333D01*
X233131142Y-145197761D02*
X233035904Y-145245380D01*
X232797809Y-145245380D01*
X232702571Y-145197761D01*
X232654952Y-145102523D01*
X232654952Y-145007285D01*
X232702571Y-144912047D01*
X232797809Y-144864428D01*
X233035904Y-144864428D01*
X233131142Y-144816809D01*
X233512095Y-144578714D02*
X233750190Y-145245380D01*
X233988285Y-144578714D01*
X234750190Y-145197761D02*
X234654952Y-145245380D01*
X234464476Y-145245380D01*
X234369238Y-145197761D01*
X234321619Y-145102523D01*
X234321619Y-144721571D01*
X234369238Y-144626333D01*
X234464476Y-144578714D01*
X234654952Y-144578714D01*
X234750190Y-144626333D01*
X234797809Y-144721571D01*
X234797809Y-144816809D01*
X234321619Y-144912047D01*
X235226380Y-144578714D02*
X235226380Y-145245380D01*
X235226380Y-144673952D02*
X235274000Y-144626333D01*
X235369238Y-144578714D01*
X235512095Y-144578714D01*
X235607333Y-144626333D01*
X235654952Y-144721571D01*
X235654952Y-145245380D01*
X236131142Y-144578714D02*
X236131142Y-145578714D01*
X236131142Y-144626333D02*
X236226380Y-144578714D01*
X236416857Y-144578714D01*
X236512095Y-144626333D01*
X236559714Y-144673952D01*
X236607333Y-144769190D01*
X236607333Y-145054904D01*
X236559714Y-145150142D01*
X236512095Y-145197761D01*
X236416857Y-145245380D01*
X236226380Y-145245380D01*
X236131142Y-145197761D01*
X237178761Y-145245380D02*
X237083523Y-145197761D01*
X237035904Y-145150142D01*
X236988285Y-145054904D01*
X236988285Y-144769190D01*
X237035904Y-144673952D01*
X237083523Y-144626333D01*
X237178761Y-144578714D01*
X237321619Y-144578714D01*
X237416857Y-144626333D01*
X237464476Y-144673952D01*
X237512095Y-144769190D01*
X237512095Y-145054904D01*
X237464476Y-145150142D01*
X237416857Y-145197761D01*
X237321619Y-145245380D01*
X237178761Y-145245380D01*
X237940666Y-145245380D02*
X237940666Y-144578714D01*
X237940666Y-144769190D02*
X237988285Y-144673952D01*
X238035904Y-144626333D01*
X238131142Y-144578714D01*
X238226380Y-144578714D01*
X238416857Y-144578714D02*
X238797809Y-144578714D01*
X238559714Y-144245380D02*
X238559714Y-145102523D01*
X238607333Y-145197761D01*
X238702571Y-145245380D01*
X238797809Y-145245380D01*
X228988285Y-147277380D02*
X228416857Y-147277380D01*
X228702571Y-147277380D02*
X228702571Y-146277380D01*
X228607333Y-146420238D01*
X228512095Y-146515476D01*
X228416857Y-146563095D01*
X229607333Y-146277380D02*
X229702571Y-146277380D01*
X229797809Y-146325000D01*
X229845428Y-146372619D01*
X229893047Y-146467857D01*
X229940666Y-146658333D01*
X229940666Y-146896428D01*
X229893047Y-147086904D01*
X229845428Y-147182142D01*
X229797809Y-147229761D01*
X229702571Y-147277380D01*
X229607333Y-147277380D01*
X229512095Y-147229761D01*
X229464476Y-147182142D01*
X229416857Y-147086904D01*
X229369238Y-146896428D01*
X229369238Y-146658333D01*
X229416857Y-146467857D01*
X229464476Y-146372619D01*
X229512095Y-146325000D01*
X229607333Y-146277380D01*
X230369238Y-146896428D02*
X231131142Y-146896428D01*
X231512095Y-146277380D02*
X232131142Y-146277380D01*
X231797809Y-146658333D01*
X231940666Y-146658333D01*
X232035904Y-146705952D01*
X232083523Y-146753571D01*
X232131142Y-146848809D01*
X232131142Y-147086904D01*
X232083523Y-147182142D01*
X232035904Y-147229761D01*
X231940666Y-147277380D01*
X231654952Y-147277380D01*
X231559714Y-147229761D01*
X231512095Y-147182142D01*
X232750190Y-146277380D02*
X232845428Y-146277380D01*
X232940666Y-146325000D01*
X232988285Y-146372619D01*
X233035904Y-146467857D01*
X233083523Y-146658333D01*
X233083523Y-146896428D01*
X233035904Y-147086904D01*
X232988285Y-147182142D01*
X232940666Y-147229761D01*
X232845428Y-147277380D01*
X232750190Y-147277380D01*
X232654952Y-147229761D01*
X232607333Y-147182142D01*
X232559714Y-147086904D01*
X232512095Y-146896428D01*
X232512095Y-146658333D01*
X232559714Y-146467857D01*
X232607333Y-146372619D01*
X232654952Y-146325000D01*
X232750190Y-146277380D01*
X233512095Y-146896428D02*
X234274000Y-146896428D01*
X234702571Y-146372619D02*
X234750190Y-146325000D01*
X234845428Y-146277380D01*
X235083523Y-146277380D01*
X235178761Y-146325000D01*
X235226380Y-146372619D01*
X235274000Y-146467857D01*
X235274000Y-146563095D01*
X235226380Y-146705952D01*
X234654952Y-147277380D01*
X235274000Y-147277380D01*
X235893047Y-146277380D02*
X235988285Y-146277380D01*
X236083523Y-146325000D01*
X236131142Y-146372619D01*
X236178761Y-146467857D01*
X236226380Y-146658333D01*
X236226380Y-146896428D01*
X236178761Y-147086904D01*
X236131142Y-147182142D01*
X236083523Y-147229761D01*
X235988285Y-147277380D01*
X235893047Y-147277380D01*
X235797809Y-147229761D01*
X235750190Y-147182142D01*
X235702571Y-147086904D01*
X235654952Y-146896428D01*
X235654952Y-146658333D01*
X235702571Y-146467857D01*
X235750190Y-146372619D01*
X235797809Y-146325000D01*
X235893047Y-146277380D01*
X236607333Y-146372619D02*
X236654952Y-146325000D01*
X236750190Y-146277380D01*
X236988285Y-146277380D01*
X237083523Y-146325000D01*
X237131142Y-146372619D01*
X237178761Y-146467857D01*
X237178761Y-146563095D01*
X237131142Y-146705952D01*
X236559714Y-147277380D01*
X237178761Y-147277380D01*
X237797809Y-146277380D02*
X237893047Y-146277380D01*
X237988285Y-146325000D01*
X238035904Y-146372619D01*
X238083523Y-146467857D01*
X238131142Y-146658333D01*
X238131142Y-146896428D01*
X238083523Y-147086904D01*
X238035904Y-147182142D01*
X237988285Y-147229761D01*
X237893047Y-147277380D01*
X237797809Y-147277380D01*
X237702571Y-147229761D01*
X237654952Y-147182142D01*
X237607333Y-147086904D01*
X237559714Y-146896428D01*
X237559714Y-146658333D01*
X237607333Y-146467857D01*
X237654952Y-146372619D01*
X237702571Y-146325000D01*
X237797809Y-146277380D01*
X202427333Y-112536380D02*
X202094000Y-112060190D01*
X201855904Y-112536380D02*
X201855904Y-111536380D01*
X202236857Y-111536380D01*
X202332095Y-111584000D01*
X202379714Y-111631619D01*
X202427333Y-111726857D01*
X202427333Y-111869714D01*
X202379714Y-111964952D01*
X202332095Y-112012571D01*
X202236857Y-112060190D01*
X201855904Y-112060190D01*
X202760666Y-111536380D02*
X203379714Y-111536380D01*
X203046380Y-111917333D01*
X203189238Y-111917333D01*
X203284476Y-111964952D01*
X203332095Y-112012571D01*
X203379714Y-112107809D01*
X203379714Y-112345904D01*
X203332095Y-112441142D01*
X203284476Y-112488761D01*
X203189238Y-112536380D01*
X202903523Y-112536380D01*
X202808285Y-112488761D01*
X202760666Y-112441142D01*
X202427333Y-106985380D02*
X202094000Y-106509190D01*
X201855904Y-106985380D02*
X201855904Y-105985380D01*
X202236857Y-105985380D01*
X202332095Y-106033000D01*
X202379714Y-106080619D01*
X202427333Y-106175857D01*
X202427333Y-106318714D01*
X202379714Y-106413952D01*
X202332095Y-106461571D01*
X202236857Y-106509190D01*
X201855904Y-106509190D01*
X202808285Y-106080619D02*
X202855904Y-106033000D01*
X202951142Y-105985380D01*
X203189238Y-105985380D01*
X203284476Y-106033000D01*
X203332095Y-106080619D01*
X203379714Y-106175857D01*
X203379714Y-106271095D01*
X203332095Y-106413952D01*
X202760666Y-106985380D01*
X203379714Y-106985380D01*
X205357904Y-112529380D02*
X205357904Y-111529380D01*
X205596000Y-111529380D01*
X205738857Y-111577000D01*
X205834095Y-111672238D01*
X205881714Y-111767476D01*
X205929333Y-111957952D01*
X205929333Y-112100809D01*
X205881714Y-112291285D01*
X205834095Y-112386523D01*
X205738857Y-112481761D01*
X205596000Y-112529380D01*
X205357904Y-112529380D01*
X206310285Y-111624619D02*
X206357904Y-111577000D01*
X206453142Y-111529380D01*
X206691238Y-111529380D01*
X206786476Y-111577000D01*
X206834095Y-111624619D01*
X206881714Y-111719857D01*
X206881714Y-111815095D01*
X206834095Y-111957952D01*
X206262666Y-112529380D01*
X206881714Y-112529380D01*
X205230904Y-106891380D02*
X205230904Y-105891380D01*
X205469000Y-105891380D01*
X205611857Y-105939000D01*
X205707095Y-106034238D01*
X205754714Y-106129476D01*
X205802333Y-106319952D01*
X205802333Y-106462809D01*
X205754714Y-106653285D01*
X205707095Y-106748523D01*
X205611857Y-106843761D01*
X205469000Y-106891380D01*
X205230904Y-106891380D01*
X206754714Y-106891380D02*
X206183285Y-106891380D01*
X206469000Y-106891380D02*
X206469000Y-105891380D01*
X206373761Y-106034238D01*
X206278523Y-106129476D01*
X206183285Y-106177095D01*
X240513095Y-107469380D02*
X240513095Y-108278904D01*
X240560714Y-108374142D01*
X240608333Y-108421761D01*
X240703571Y-108469380D01*
X240894047Y-108469380D01*
X240989285Y-108421761D01*
X241036904Y-108374142D01*
X241084523Y-108278904D01*
X241084523Y-107469380D01*
X242084523Y-108469380D02*
X241513095Y-108469380D01*
X241798809Y-108469380D02*
X241798809Y-107469380D01*
X241703571Y-107612238D01*
X241608333Y-107707476D01*
X241513095Y-107755095D01*
X247983380Y-112892666D02*
X247507190Y-113226000D01*
X247983380Y-113464095D02*
X246983380Y-113464095D01*
X246983380Y-113083142D01*
X247031000Y-112987904D01*
X247078619Y-112940285D01*
X247173857Y-112892666D01*
X247316714Y-112892666D01*
X247411952Y-112940285D01*
X247459571Y-112987904D01*
X247507190Y-113083142D01*
X247507190Y-113464095D01*
X247983380Y-111940285D02*
X247983380Y-112511714D01*
X247983380Y-112226000D02*
X246983380Y-112226000D01*
X247126238Y-112321238D01*
X247221476Y-112416476D01*
X247269095Y-112511714D01*
X265848380Y-113380333D02*
X266562666Y-113380333D01*
X266705523Y-113427952D01*
X266800761Y-113523190D01*
X266848380Y-113666047D01*
X266848380Y-113761285D01*
X266848380Y-112380333D02*
X266848380Y-112951761D01*
X266848380Y-112666047D02*
X265848380Y-112666047D01*
X265991238Y-112761285D01*
X266086476Y-112856523D01*
X266134095Y-112951761D01*
X248109142Y-109907666D02*
X248156761Y-109955285D01*
X248204380Y-110098142D01*
X248204380Y-110193380D01*
X248156761Y-110336238D01*
X248061523Y-110431476D01*
X247966285Y-110479095D01*
X247775809Y-110526714D01*
X247632952Y-110526714D01*
X247442476Y-110479095D01*
X247347238Y-110431476D01*
X247252000Y-110336238D01*
X247204380Y-110193380D01*
X247204380Y-110098142D01*
X247252000Y-109955285D01*
X247299619Y-109907666D01*
X248204380Y-108955285D02*
X248204380Y-109526714D01*
X248204380Y-109241000D02*
X247204380Y-109241000D01*
X247347238Y-109336238D01*
X247442476Y-109431476D01*
X247490095Y-109526714D01*
%LPC*%
G36*
G01*
X203019000Y-110778000D02*
X203019000Y-110228000D01*
G75*
G02*
X203219000Y-110028000I200000J0D01*
G01*
X203619000Y-110028000D01*
G75*
G02*
X203819000Y-110228000I0J-200000D01*
G01*
X203819000Y-110778000D01*
G75*
G02*
X203619000Y-110978000I-200000J0D01*
G01*
X203219000Y-110978000D01*
G75*
G02*
X203019000Y-110778000I0J200000D01*
G01*
G37*
G36*
G01*
X201369000Y-110778000D02*
X201369000Y-110228000D01*
G75*
G02*
X201569000Y-110028000I200000J0D01*
G01*
X201969000Y-110028000D01*
G75*
G02*
X202169000Y-110228000I0J-200000D01*
G01*
X202169000Y-110778000D01*
G75*
G02*
X201969000Y-110978000I-200000J0D01*
G01*
X201569000Y-110978000D01*
G75*
G02*
X201369000Y-110778000I0J200000D01*
G01*
G37*
G36*
G01*
X203019000Y-108238000D02*
X203019000Y-107688000D01*
G75*
G02*
X203219000Y-107488000I200000J0D01*
G01*
X203619000Y-107488000D01*
G75*
G02*
X203819000Y-107688000I0J-200000D01*
G01*
X203819000Y-108238000D01*
G75*
G02*
X203619000Y-108438000I-200000J0D01*
G01*
X203219000Y-108438000D01*
G75*
G02*
X203019000Y-108238000I0J200000D01*
G01*
G37*
G36*
G01*
X201369000Y-108238000D02*
X201369000Y-107688000D01*
G75*
G02*
X201569000Y-107488000I200000J0D01*
G01*
X201969000Y-107488000D01*
G75*
G02*
X202169000Y-107688000I0J-200000D01*
G01*
X202169000Y-108238000D01*
G75*
G02*
X201969000Y-108438000I-200000J0D01*
G01*
X201569000Y-108438000D01*
G75*
G02*
X201369000Y-108238000I0J200000D01*
G01*
G37*
G36*
G01*
X206446000Y-110759250D02*
X206446000Y-110246750D01*
G75*
G02*
X206664750Y-110028000I218750J0D01*
G01*
X207102250Y-110028000D01*
G75*
G02*
X207321000Y-110246750I0J-218750D01*
G01*
X207321000Y-110759250D01*
G75*
G02*
X207102250Y-110978000I-218750J0D01*
G01*
X206664750Y-110978000D01*
G75*
G02*
X206446000Y-110759250I0J218750D01*
G01*
G37*
G36*
G01*
X204871000Y-110759250D02*
X204871000Y-110246750D01*
G75*
G02*
X205089750Y-110028000I218750J0D01*
G01*
X205527250Y-110028000D01*
G75*
G02*
X205746000Y-110246750I0J-218750D01*
G01*
X205746000Y-110759250D01*
G75*
G02*
X205527250Y-110978000I-218750J0D01*
G01*
X205089750Y-110978000D01*
G75*
G02*
X204871000Y-110759250I0J218750D01*
G01*
G37*
G36*
G01*
X206319000Y-108219250D02*
X206319000Y-107706750D01*
G75*
G02*
X206537750Y-107488000I218750J0D01*
G01*
X206975250Y-107488000D01*
G75*
G02*
X207194000Y-107706750I0J-218750D01*
G01*
X207194000Y-108219250D01*
G75*
G02*
X206975250Y-108438000I-218750J0D01*
G01*
X206537750Y-108438000D01*
G75*
G02*
X206319000Y-108219250I0J218750D01*
G01*
G37*
G36*
G01*
X204744000Y-108219250D02*
X204744000Y-107706750D01*
G75*
G02*
X204962750Y-107488000I218750J0D01*
G01*
X205400250Y-107488000D01*
G75*
G02*
X205619000Y-107706750I0J-218750D01*
G01*
X205619000Y-108219250D01*
G75*
G02*
X205400250Y-108438000I-218750J0D01*
G01*
X204962750Y-108438000D01*
G75*
G02*
X204744000Y-108219250I0J218750D01*
G01*
G37*
G36*
G01*
X242775000Y-109637000D02*
X242775000Y-109337000D01*
G75*
G02*
X242925000Y-109187000I150000J0D01*
G01*
X244575000Y-109187000D01*
G75*
G02*
X244725000Y-109337000I0J-150000D01*
G01*
X244725000Y-109637000D01*
G75*
G02*
X244575000Y-109787000I-150000J0D01*
G01*
X242925000Y-109787000D01*
G75*
G02*
X242775000Y-109637000I0J150000D01*
G01*
G37*
G36*
G01*
X242775000Y-110907000D02*
X242775000Y-110607000D01*
G75*
G02*
X242925000Y-110457000I150000J0D01*
G01*
X244575000Y-110457000D01*
G75*
G02*
X244725000Y-110607000I0J-150000D01*
G01*
X244725000Y-110907000D01*
G75*
G02*
X244575000Y-111057000I-150000J0D01*
G01*
X242925000Y-111057000D01*
G75*
G02*
X242775000Y-110907000I0J150000D01*
G01*
G37*
G36*
G01*
X242775000Y-112177000D02*
X242775000Y-111877000D01*
G75*
G02*
X242925000Y-111727000I150000J0D01*
G01*
X244575000Y-111727000D01*
G75*
G02*
X244725000Y-111877000I0J-150000D01*
G01*
X244725000Y-112177000D01*
G75*
G02*
X244575000Y-112327000I-150000J0D01*
G01*
X242925000Y-112327000D01*
G75*
G02*
X242775000Y-112177000I0J150000D01*
G01*
G37*
G36*
G01*
X242775000Y-113447000D02*
X242775000Y-113147000D01*
G75*
G02*
X242925000Y-112997000I150000J0D01*
G01*
X244575000Y-112997000D01*
G75*
G02*
X244725000Y-113147000I0J-150000D01*
G01*
X244725000Y-113447000D01*
G75*
G02*
X244575000Y-113597000I-150000J0D01*
G01*
X242925000Y-113597000D01*
G75*
G02*
X242775000Y-113447000I0J150000D01*
G01*
G37*
G36*
G01*
X242775000Y-114717000D02*
X242775000Y-114417000D01*
G75*
G02*
X242925000Y-114267000I150000J0D01*
G01*
X244575000Y-114267000D01*
G75*
G02*
X244725000Y-114417000I0J-150000D01*
G01*
X244725000Y-114717000D01*
G75*
G02*
X244575000Y-114867000I-150000J0D01*
G01*
X242925000Y-114867000D01*
G75*
G02*
X242775000Y-114717000I0J150000D01*
G01*
G37*
G36*
G01*
X242775000Y-115987000D02*
X242775000Y-115687000D01*
G75*
G02*
X242925000Y-115537000I150000J0D01*
G01*
X244575000Y-115537000D01*
G75*
G02*
X244725000Y-115687000I0J-150000D01*
G01*
X244725000Y-115987000D01*
G75*
G02*
X244575000Y-116137000I-150000J0D01*
G01*
X242925000Y-116137000D01*
G75*
G02*
X242775000Y-115987000I0J150000D01*
G01*
G37*
G36*
G01*
X242775000Y-117257000D02*
X242775000Y-116957000D01*
G75*
G02*
X242925000Y-116807000I150000J0D01*
G01*
X244575000Y-116807000D01*
G75*
G02*
X244725000Y-116957000I0J-150000D01*
G01*
X244725000Y-117257000D01*
G75*
G02*
X244575000Y-117407000I-150000J0D01*
G01*
X242925000Y-117407000D01*
G75*
G02*
X242775000Y-117257000I0J150000D01*
G01*
G37*
G36*
G01*
X237825000Y-117257000D02*
X237825000Y-116957000D01*
G75*
G02*
X237975000Y-116807000I150000J0D01*
G01*
X239625000Y-116807000D01*
G75*
G02*
X239775000Y-116957000I0J-150000D01*
G01*
X239775000Y-117257000D01*
G75*
G02*
X239625000Y-117407000I-150000J0D01*
G01*
X237975000Y-117407000D01*
G75*
G02*
X237825000Y-117257000I0J150000D01*
G01*
G37*
G36*
G01*
X237825000Y-115987000D02*
X237825000Y-115687000D01*
G75*
G02*
X237975000Y-115537000I150000J0D01*
G01*
X239625000Y-115537000D01*
G75*
G02*
X239775000Y-115687000I0J-150000D01*
G01*
X239775000Y-115987000D01*
G75*
G02*
X239625000Y-116137000I-150000J0D01*
G01*
X237975000Y-116137000D01*
G75*
G02*
X237825000Y-115987000I0J150000D01*
G01*
G37*
G36*
G01*
X237825000Y-114717000D02*
X237825000Y-114417000D01*
G75*
G02*
X237975000Y-114267000I150000J0D01*
G01*
X239625000Y-114267000D01*
G75*
G02*
X239775000Y-114417000I0J-150000D01*
G01*
X239775000Y-114717000D01*
G75*
G02*
X239625000Y-114867000I-150000J0D01*
G01*
X237975000Y-114867000D01*
G75*
G02*
X237825000Y-114717000I0J150000D01*
G01*
G37*
G36*
G01*
X237825000Y-113447000D02*
X237825000Y-113147000D01*
G75*
G02*
X237975000Y-112997000I150000J0D01*
G01*
X239625000Y-112997000D01*
G75*
G02*
X239775000Y-113147000I0J-150000D01*
G01*
X239775000Y-113447000D01*
G75*
G02*
X239625000Y-113597000I-150000J0D01*
G01*
X237975000Y-113597000D01*
G75*
G02*
X237825000Y-113447000I0J150000D01*
G01*
G37*
G36*
G01*
X237825000Y-112177000D02*
X237825000Y-111877000D01*
G75*
G02*
X237975000Y-111727000I150000J0D01*
G01*
X239625000Y-111727000D01*
G75*
G02*
X239775000Y-111877000I0J-150000D01*
G01*
X239775000Y-112177000D01*
G75*
G02*
X239625000Y-112327000I-150000J0D01*
G01*
X237975000Y-112327000D01*
G75*
G02*
X237825000Y-112177000I0J150000D01*
G01*
G37*
G36*
G01*
X237825000Y-110907000D02*
X237825000Y-110607000D01*
G75*
G02*
X237975000Y-110457000I150000J0D01*
G01*
X239625000Y-110457000D01*
G75*
G02*
X239775000Y-110607000I0J-150000D01*
G01*
X239775000Y-110907000D01*
G75*
G02*
X239625000Y-111057000I-150000J0D01*
G01*
X237975000Y-111057000D01*
G75*
G02*
X237825000Y-110907000I0J150000D01*
G01*
G37*
G36*
G01*
X237825000Y-109637000D02*
X237825000Y-109337000D01*
G75*
G02*
X237975000Y-109187000I150000J0D01*
G01*
X239625000Y-109187000D01*
G75*
G02*
X239775000Y-109337000I0J-150000D01*
G01*
X239775000Y-109637000D01*
G75*
G02*
X239625000Y-109787000I-150000J0D01*
G01*
X237975000Y-109787000D01*
G75*
G02*
X237825000Y-109637000I0J150000D01*
G01*
G37*
G36*
G01*
X245826000Y-113151000D02*
X246376000Y-113151000D01*
G75*
G02*
X246576000Y-113351000I0J-200000D01*
G01*
X246576000Y-113751000D01*
G75*
G02*
X246376000Y-113951000I-200000J0D01*
G01*
X245826000Y-113951000D01*
G75*
G02*
X245626000Y-113751000I0J200000D01*
G01*
X245626000Y-113351000D01*
G75*
G02*
X245826000Y-113151000I200000J0D01*
G01*
G37*
G36*
G01*
X245826000Y-111501000D02*
X246376000Y-111501000D01*
G75*
G02*
X246576000Y-111701000I0J-200000D01*
G01*
X246576000Y-112101000D01*
G75*
G02*
X246376000Y-112301000I-200000J0D01*
G01*
X245826000Y-112301000D01*
G75*
G02*
X245626000Y-112101000I0J200000D01*
G01*
X245626000Y-111701000D01*
G75*
G02*
X245826000Y-111501000I200000J0D01*
G01*
G37*
D13*
X250296000Y-119907000D03*
X250296000Y-117617000D03*
X250296000Y-108477000D03*
X250296000Y-106187000D03*
D14*
X256006000Y-104917000D03*
X256006000Y-121177000D03*
D15*
X259436000Y-119397000D03*
X259436000Y-106697000D03*
D13*
X255116000Y-116599000D03*
X255116000Y-114567000D03*
X255116000Y-112535000D03*
X255116000Y-110503000D03*
X256896000Y-115583000D03*
X256896000Y-113551000D03*
X256896000Y-111519000D03*
D16*
X256896000Y-109487000D03*
G36*
G01*
X246351000Y-109035000D02*
X245851000Y-109035000D01*
G75*
G02*
X245626000Y-108810000I0J225000D01*
G01*
X245626000Y-108360000D01*
G75*
G02*
X245851000Y-108135000I225000J0D01*
G01*
X246351000Y-108135000D01*
G75*
G02*
X246576000Y-108360000I0J-225000D01*
G01*
X246576000Y-108810000D01*
G75*
G02*
X246351000Y-109035000I-225000J0D01*
G01*
G37*
G36*
G01*
X246351000Y-110585000D02*
X245851000Y-110585000D01*
G75*
G02*
X245626000Y-110360000I0J225000D01*
G01*
X245626000Y-109910000D01*
G75*
G02*
X245851000Y-109685000I225000J0D01*
G01*
X246351000Y-109685000D01*
G75*
G02*
X246576000Y-109910000I0J-225000D01*
G01*
X246576000Y-110360000D01*
G75*
G02*
X246351000Y-110585000I-225000J0D01*
G01*
G37*
D17*
X208370000Y-98770000D03*
D18*
X208370000Y-96230000D03*
X210910000Y-98770000D03*
X210910000Y-96230000D03*
X213450000Y-98770000D03*
X213450000Y-96230000D03*
X215990000Y-98770000D03*
X215990000Y-96230000D03*
X218530000Y-98770000D03*
X218530000Y-96230000D03*
X221070000Y-98770000D03*
X221070000Y-96230000D03*
X223610000Y-98770000D03*
X223610000Y-96230000D03*
X226150000Y-98770000D03*
X226150000Y-96230000D03*
X228690000Y-98770000D03*
X228690000Y-96230000D03*
X231230000Y-98770000D03*
X231230000Y-96230000D03*
X233770000Y-98770000D03*
X233770000Y-96230000D03*
X236310000Y-98770000D03*
X236310000Y-96230000D03*
X238850000Y-98770000D03*
X238850000Y-96230000D03*
X241390000Y-98770000D03*
X241390000Y-96230000D03*
X243930000Y-98770000D03*
X243930000Y-96230000D03*
X246470000Y-98770000D03*
X246470000Y-96230000D03*
X249010000Y-98770000D03*
X249010000Y-96230000D03*
X251550000Y-98770000D03*
X251550000Y-96230000D03*
X254090000Y-98770000D03*
X254090000Y-96230000D03*
X256630000Y-98770000D03*
X256630000Y-96230000D03*
D19*
X261500000Y-146500000D03*
X203500000Y-146500000D03*
X261500000Y-97500000D03*
X203500000Y-97500000D03*
M02*
