M48
; DRILL file {KiCad (5.1.7)-1} date 10/30/20 03:26:31
; FORMAT={-:-/ absolute / inch / decimal}
; #@! TF.CreationDate,2020-10-30T03:26:31-04:00
; #@! TF.GenerationSoftware,Kicad,Pcbnew,(5.1.7)-1
; #@! TF.FileFunction,Plated,1,2,PTH
FMAT,2
INCH
T1C0.0118
T2C0.0350
T3C0.0394
T4C0.0618
%
G90
G05
T1
X7.924Y-4.2105
X7.924Y-4.3955
X9.309Y-4.4055
X9.314Y-4.5455
X9.319Y-4.6255
X9.649Y-4.2655
T2
X9.8542Y-4.1806
X9.8542Y-4.2707
X9.8542Y-4.6306
X9.8542Y-4.7207
X10.0439Y-4.3505
X10.0439Y-4.4305
X10.0439Y-4.5105
X10.0439Y-4.5905
X10.114Y-4.3105
X10.114Y-4.3905
X10.114Y-4.4705
X10.114Y-4.5505
T3
X8.2035Y-3.7886
X8.2035Y-3.8886
X8.3035Y-3.7886
X8.3035Y-3.8886
X8.4035Y-3.7886
X8.4035Y-3.8886
X8.5035Y-3.7886
X8.5035Y-3.8886
X8.6035Y-3.7886
X8.6035Y-3.8886
X8.7035Y-3.7886
X8.7035Y-3.8886
X8.8035Y-3.7886
X8.8035Y-3.8886
X8.9035Y-3.7886
X8.9035Y-3.8886
X9.0035Y-3.7886
X9.0035Y-3.8886
X9.1035Y-3.7886
X9.1035Y-3.8886
X9.2035Y-3.7886
X9.2035Y-3.8886
X9.3035Y-3.7886
X9.3035Y-3.8886
X9.4035Y-3.7886
X9.4035Y-3.8886
X9.5035Y-3.7886
X9.5035Y-3.8886
X9.6035Y-3.7886
X9.6035Y-3.8886
X9.7035Y-3.7886
X9.7035Y-3.8886
X9.8035Y-3.7886
X9.8035Y-3.8886
X9.9035Y-3.7886
X9.9035Y-3.8886
X10.0035Y-3.7886
X10.0035Y-3.8886
X10.1035Y-3.7886
X10.1035Y-3.8886
T4
X10.079Y-4.1306
X10.079Y-4.7707
T0
M30
